<svg width="61" height="61" viewBox="0 0 61 61" fill="none" xmlns="http://www.w3.org/2000/svg">
<rect x="0.6875" y="0.976562" width="60" height="60" rx="25" fill="#40AF92" fill-opacity="0.2"/>
<g clip-path="url(#clip0_302_5834)">
<path d="M26.3125 45.9766H35.0625C35.2283 45.9766 35.3872 45.9107 35.5044 45.7935C35.6217 45.6763 35.6875 45.5173 35.6875 45.3516C35.6875 45.1858 35.6217 45.0268 35.5044 44.9096C35.3872 44.7924 35.2283 44.7266 35.0625 44.7266H26.3125C26.1467 44.7266 25.9878 44.7924 25.8706 44.9096C25.7533 45.0268 25.6875 45.1858 25.6875 45.3516C25.6875 45.5173 25.7533 45.6763 25.8706 45.7935C25.9878 45.9107 26.1467 45.9766 26.3125 45.9766Z" fill="#40AF92"/>
<path d="M36.3125 32.2266C37.0029 32.2266 37.5625 31.6669 37.5625 30.9766C37.5625 30.2862 37.0029 29.7266 36.3125 29.7266C35.6221 29.7266 35.0625 30.2862 35.0625 30.9766C35.0625 31.6669 35.6221 32.2266 36.3125 32.2266Z" fill="#40AF92"/>
<path d="M25.6686 35.3516C25.6686 35.1858 25.6027 35.0268 25.4855 34.9096C25.3683 34.7924 25.2093 34.7266 25.0436 34.7266H20.7061V32.8516C20.7061 32.6858 20.6402 32.5268 20.523 32.4096C20.4058 32.2924 20.2468 32.2266 20.0811 32.2266C19.9153 32.2266 19.7563 32.2924 19.6391 32.4096C19.5219 32.5268 19.4561 32.6858 19.4561 32.8516V35.3516C19.4561 35.5173 19.5219 35.6763 19.6391 35.7935C19.7563 35.9107 19.9153 35.9766 20.0811 35.9766H25.0448C25.2103 35.9762 25.369 35.9102 25.4859 35.7931C25.6029 35.6759 25.6686 35.5171 25.6686 35.3516Z" fill="#40AF92"/>
<path d="M15.6875 42.1623V50.3511C15.6875 50.5168 15.7533 50.6758 15.8706 50.793C15.9878 50.9102 16.1467 50.9761 16.3125 50.9761H45.0625C45.2283 50.9761 45.3872 50.9102 45.5044 50.793C45.6217 50.6758 45.6875 50.5168 45.6875 50.3511V42.1623C47.1125 41.8723 48.1875 40.6098 48.1875 39.1011V37.8511C48.1875 37.6853 48.1217 37.5264 48.0044 37.4091C47.8872 37.2919 47.7283 37.2261 47.5625 37.2261H42.5462C42.9437 36.7023 43.1875 36.0573 43.1875 35.3511V26.6011C43.1875 26.4353 43.1217 26.2764 43.0044 26.1591C42.8872 26.0419 42.7283 25.9761 42.5625 25.9761H30.0625C29.8967 25.9761 29.7378 26.0419 29.6206 26.1591C29.5033 26.2764 29.4375 26.4353 29.4375 26.6011V27.2236L28.4162 26.0886C28.3537 26.0198 28.2688 25.9936 28.1875 25.9586V24.6673C28.7088 24.2207 29.1278 23.6669 29.4157 23.0437C29.7037 22.4205 29.854 21.7426 29.8563 21.0561V19.3548L30.5863 15.9786C30.6474 15.6466 30.6416 15.3056 30.569 14.9759C30.4965 14.6462 30.3587 14.3343 30.1637 14.0586C29.9703 13.7816 29.7233 13.5461 29.4373 13.3662C29.1514 13.1863 28.8322 13.0655 28.4987 13.0111L23.9675 12.2561C23.3267 12.147 22.6687 12.2924 22.1336 12.6613C21.5984 13.0302 21.2285 13.5934 21.1025 14.2311C20.5595 14.3803 20.095 14.7332 19.8057 15.2164C19.5165 15.6996 19.4249 16.2758 19.55 16.8248L20.2438 19.3598V21.0573C20.2438 22.5148 20.91 23.8073 21.9375 24.6898V25.9473C21.8475 25.9823 21.755 26.0148 21.6875 26.0886L20.5025 27.4061L17.33 29.3086C16.83 29.6109 16.4163 30.0369 16.1286 30.5454C15.8409 31.054 15.689 31.6281 15.6875 32.2123V36.6011C15.6875 36.8211 15.7325 37.0298 15.8025 37.2261H13.8125C13.6467 37.2261 13.4878 37.2919 13.3706 37.4091C13.2533 37.5264 13.1875 37.6853 13.1875 37.8511V39.1011C13.1875 40.6098 14.2625 41.8723 15.6875 42.1623ZM44.4375 49.7261H16.9375V42.2261H44.4375V49.7261ZM28.295 35.9761H41.83C41.5725 36.7036 40.8775 37.2261 40.0625 37.2261H30.0625C29.6749 37.2257 29.2969 37.1053 28.9805 36.8815C28.664 36.6577 28.4245 36.3414 28.295 35.9761ZM30.6875 27.2261H41.9375V34.7261H30.6875V27.2261ZM27.7975 27.2711L28.3738 27.9111L27.3013 29.2523L26.12 28.0711L27.7975 27.2711ZM20.9513 15.7498C21.038 15.642 21.1479 15.5551 21.2727 15.4954C21.3975 15.4357 21.5341 15.4047 21.6725 15.4048C22.0175 15.4048 22.2975 15.0748 22.2975 14.7286C22.2974 14.546 22.337 14.3655 22.4137 14.1998C22.4905 14.0341 22.6024 13.8871 22.7417 13.769C22.8811 13.651 23.0445 13.5648 23.2205 13.5163C23.3966 13.4679 23.5811 13.4584 23.7612 13.4886L28.2925 14.2436C28.6362 14.3011 28.9388 14.4911 29.14 14.7773C29.3412 15.0636 29.4175 15.4111 29.36 15.7348L28.8988 17.8673L28.5575 17.4423V16.7023C28.5575 16.5366 28.4917 16.3776 28.3744 16.2604C28.2572 16.1432 28.0983 16.0773 27.9325 16.0773H22.1675C22.0017 16.0773 21.8428 16.1432 21.7256 16.2604C21.6083 16.3776 21.5425 16.5366 21.5425 16.7023V17.4436L21.1488 17.9323L20.765 16.5286C20.7355 16.3931 20.737 16.2528 20.7692 16.118C20.8015 15.9831 20.8637 15.8573 20.9513 15.7498ZM21.4938 21.0573V19.4998L22.655 18.0536C22.7438 17.9425 22.7923 17.8046 22.7925 17.6623V17.3273H27.3075V17.6636C27.3075 17.8059 27.356 17.9439 27.445 18.0548L28.6062 19.4973V21.0573C28.6053 22.0004 28.2301 22.9046 27.5631 23.5713C26.8961 24.2381 25.9918 24.6129 25.0487 24.6136C24.1061 24.6123 23.2024 24.2371 22.536 23.5704C21.8696 22.9038 21.4947 22 21.4938 21.0573ZM25.0487 25.8636C25.7188 25.8636 26.3575 25.7236 26.9375 25.4748V26.2961L25.0513 27.1948L23.1875 26.3073V25.4886C23.76 25.7298 24.3888 25.8636 25.0487 25.8636ZM22.305 27.2711L23.9838 28.0711L22.8025 29.2523L21.73 27.9111L22.305 27.2711ZM16.9375 36.6011V34.7236L16.9363 32.2111C16.9363 31.4648 17.3338 30.7636 17.9725 30.3798L20.7638 28.7061L22.2625 30.5798C22.3175 30.6484 22.3864 30.7047 22.4645 30.7449C22.5427 30.7852 22.6285 30.8086 22.7163 30.8136L22.75 30.8148C22.915 30.8148 23.075 30.7498 23.1925 30.6323L25.0513 28.7736L26.91 30.6323C27.0275 30.7494 27.1867 30.815 27.3525 30.8148L27.3863 30.8136C27.4741 30.8087 27.5599 30.7854 27.6381 30.7451C27.7163 30.7049 27.7851 30.6485 27.84 30.5798L29.34 28.7048L29.4375 28.7623V34.7261H27.5625C27.3967 34.7261 27.2378 34.7919 27.1206 34.9091C27.0033 35.0264 26.9375 35.1853 26.9375 35.3511C26.9375 36.0573 27.1812 36.7023 27.5787 37.2261H17.5625C17.3967 37.2261 17.2378 37.1602 17.1206 37.043C17.0033 36.9258 16.9375 36.7668 16.9375 36.6011ZM14.4375 38.4761H46.9375V39.1011C46.9375 40.1348 46.0962 40.9761 45.0625 40.9761H16.3125C15.2787 40.9761 14.4375 40.1348 14.4375 39.1011V38.4761Z" fill="#40AF92"/>
</g>
<defs>
<clipPath id="clip0_302_5834">
<rect width="40" height="40" fill="white" transform="translate(10.6875 10.9766)"/>
</clipPath>
</defs>
</svg>
