<svg width="61" height="61" viewBox="0 0 61 61" fill="none" xmlns="http://www.w3.org/2000/svg">
<rect x="0.6875" y="0.976562" width="60" height="60" rx="25" fill="#45ABC2" fill-opacity="0.2"/>
<path d="M47.75 18.8516L30.875 12.6016C30.75 12.5391 30.5625 12.5391 30.4375 12.6016L13.5625 18.8516C13.375 18.9141 13.1875 19.1641 13.1875 19.4141C13.1875 19.6641 13.375 19.9141 13.625 19.9766L19.4375 22.1641V25.6641C19.4375 25.7891 19.4375 25.8516 19.5 25.9766C19.5625 26.0391 19.875 26.6641 20.6875 27.4141C20.6875 27.4766 20.625 27.5391 20.625 27.6016V27.6641C18.875 27.9766 17.5 29.4766 17.5 31.3516C17.5 33.2266 18.875 34.7266 20.625 35.0391V35.2266C20.625 35.2891 21.125 38.4141 23.4375 40.9141C20.125 42.5391 17.4375 45.2891 15.875 48.6641C15.8125 48.8516 15.8125 49.1016 15.9375 49.2891C16.0625 49.4766 16.25 49.6016 16.4375 49.6016H44.8125C45 49.6016 45.25 49.4766 45.3125 49.2891C45.375 49.1016 45.4375 48.9141 45.375 48.6641C43.8125 45.2891 41.125 42.6016 37.8125 40.9141C40.0625 38.4141 40.625 35.2891 40.625 35.2266V35.0391C42.375 34.7266 43.75 33.2266 43.75 31.3516C43.75 29.4766 42.375 27.9766 40.625 27.6641V27.6016C40.625 27.5391 40.625 27.4766 40.5625 27.4141C41.375 26.6641 41.75 26.1016 41.75 25.9766C41.8125 25.8516 41.8125 25.7891 41.8125 25.6641V22.1641L44.3125 21.2266V26.4141C43.5625 26.6641 43.0625 27.3516 43.0625 28.1641C43.0625 29.2266 43.875 30.0391 44.9375 30.0391C46 30.0391 46.8125 29.2266 46.8125 28.1641C46.8125 27.3516 46.3125 26.6641 45.5625 26.4141V20.7891L47.625 20.0391C47.875 19.9766 48.0625 19.7266 48.0625 19.4766C48.0625 19.2266 48 18.9141 47.75 18.8516ZM45.0625 28.7891C44.6875 28.7891 44.4375 28.5391 44.4375 28.1641C44.4375 27.7891 44.6875 27.5391 45.0625 27.5391C45.4375 27.5391 45.6875 27.7891 45.6875 28.1641C45.6875 28.5391 45.4375 28.7891 45.0625 28.7891ZM21.9375 28.3516C22.6875 28.8516 23.5625 29.3516 24.6875 29.7266C24.25 30.2891 23.3125 31.0391 21.9375 31.2266V28.3516ZM18.8125 31.2891C18.8125 30.1016 19.625 29.1641 20.6875 28.8516V33.6641C19.625 33.4141 18.8125 32.4766 18.8125 31.2891ZM24.4375 41.7266C25.4375 42.5391 26.6875 43.2266 28.25 43.5391L30.8125 48.1641H17.4375C19.0625 45.2891 21.5 43.0391 24.4375 41.7266ZM29.875 43.7891H31.5L30.6875 45.1641L29.875 43.7891ZM43.875 48.1641H32.3125L31.3125 46.4141L33.0625 43.5391C34.625 43.2266 35.875 42.5391 36.875 41.7266C39.875 43.0391 42.3125 45.2891 43.875 48.1641ZM39.4375 34.9766C39.3125 35.6641 38 42.5391 30.6875 42.5391C23.4375 42.5391 22.0625 35.6641 21.9375 34.9766V32.4766C24.25 32.2266 25.5 30.7891 26 30.1016C26.5625 30.2266 27.125 30.3516 27.75 30.4766C28.0625 30.9766 29.9375 33.4766 33.0625 34.0391C33.5 34.1016 33.9375 34.1641 34.375 34.1641H34.4375V34.4766C34.4375 34.8516 34.6875 35.1016 35.0625 35.1016C35.4375 35.1016 35.6875 34.8516 35.6875 34.4766V34.0391C36.9375 33.8516 38.1875 33.2891 39.4375 32.5391V34.9766ZM39.4375 30.9766C37.3125 32.5391 35.1875 33.1641 33.3125 32.7891C31.5625 32.4766 30.25 31.4141 29.5 30.6016C29.875 30.6016 30.3125 30.6641 30.6875 30.6641C34.9375 30.6641 37.6875 29.5391 39.4375 28.3516V30.9766ZM42.5625 31.2891C42.5625 32.4766 41.75 33.4141 40.6875 33.7266V28.9141C41.75 29.1641 42.5625 30.1016 42.5625 31.2891ZM40.6875 25.4766C40.1875 26.1641 37.625 29.4141 30.6875 29.4141C23.75 29.4141 21.1875 26.1641 20.6875 25.4766V22.6016L30.5 26.2266C30.5625 26.2266 30.625 26.2891 30.6875 26.2891C30.75 26.2891 30.8125 26.2891 30.875 26.2266L40.6875 22.6016V25.4766ZM30.6875 24.9766L15.625 19.4141L30.6875 13.8516L45.75 19.4141L30.6875 24.9766Z" fill="#45ABC2"/>
<path d="M26.3125 32.5391C25.9375 32.5391 25.6875 32.7891 25.6875 33.1641V34.4141C25.6875 34.7891 25.9375 35.0391 26.3125 35.0391C26.6875 35.0391 26.9375 34.7891 26.9375 34.4141V33.1641C26.9375 32.7891 26.6875 32.5391 26.3125 32.5391ZM34 38.2266C33.6875 38.1016 33.3125 38.2891 33.1875 38.6016C33.1875 38.6016 32.6875 40.0391 30.625 40.0391C28.625 40.0391 28.125 38.6641 28.0625 38.6016C27.9375 38.2891 27.625 38.1016 27.25 38.2266C26.9375 38.3516 26.75 38.6641 26.875 39.0391C26.9375 39.1641 27.6875 41.3516 30.5625 41.3516C33.4375 41.3516 34.25 39.1641 34.25 39.0391C34.5 38.6641 34.3125 38.2891 34 38.2266Z" fill="#45ABC2"/>
</svg>
