<svg width="61" height="61" viewBox="0 0 61 61" fill="none" xmlns="http://www.w3.org/2000/svg">
<rect x="0.6875" y="0.976562" width="60" height="60" rx="25" fill="#40AF92" fill-opacity="0.2"/>
<g clip-path="url(#clip0_302_5848)">
<path d="M18.5 19.4141C16.2594 19.4141 14.4375 17.5922 14.4375 15.3516C14.4375 13.1109 16.2594 11.2891 18.5 11.2891C20.7406 11.2891 22.5625 13.1109 22.5625 15.3516C22.5625 17.5922 20.7406 19.4141 18.5 19.4141ZM18.5 13.1641C17.2938 13.1641 16.3125 14.1453 16.3125 15.3516C16.3125 16.5578 17.2938 17.5391 18.5 17.5391C19.7063 17.5391 20.6875 16.5578 20.6875 15.3516C20.6875 14.1453 19.7063 13.1641 18.5 13.1641ZM43.8125 35.0391C42.0906 35.0391 40.6875 33.6359 40.6875 31.9141C40.6875 30.1922 42.0906 28.7891 43.8125 28.7891C45.5344 28.7891 46.9375 30.1922 46.9375 31.9141C46.9375 33.6359 45.5344 35.0391 43.8125 35.0391ZM43.8125 30.6641C43.1219 30.6641 42.5625 31.2234 42.5625 31.9141C42.5625 32.6047 43.1219 33.1641 43.8125 33.1641C44.5031 33.1641 45.0625 32.6047 45.0625 31.9141C45.0625 31.2234 44.5031 30.6641 43.8125 30.6641ZM30.6875 19.4141C28.4469 19.4141 26.625 17.5922 26.625 15.3516C26.625 13.1109 28.4469 11.2891 30.6875 11.2891C32.9281 11.2891 34.75 13.1109 34.75 15.3516C34.75 17.5922 32.9281 19.4141 30.6875 19.4141ZM30.6875 13.1641C29.4812 13.1641 28.5 14.1453 28.5 15.3516C28.5 16.5578 29.4812 17.5391 30.6875 17.5391C31.8937 17.5391 32.875 16.5578 32.875 15.3516C32.875 14.1453 31.8937 13.1641 30.6875 13.1641Z" fill="#40AF92"/>
<path d="M50.047 44.5578L49.497 41.5359C49.0033 38.8266 46.8345 36.7797 44.1001 36.4484C40.7533 36.0422 38.172 33.4172 37.8251 30.0672L37.4845 26.8078C37.1189 23.3047 34.1908 20.6641 30.6689 20.6641C29.2126 20.6641 27.822 21.1141 26.647 21.9672C26.2283 22.2703 26.1345 22.8578 26.4376 23.2766C26.7408 23.6953 27.3283 23.7891 27.747 23.4859C28.6001 22.8672 29.6095 22.5391 30.6689 22.5391C33.2283 22.5391 35.3564 24.4578 35.622 27.0016L35.9626 30.2609C36.2439 32.9547 37.6689 35.2703 39.7533 36.7328V41.6016C39.7533 42.7422 40.2283 43.7766 40.9908 44.5141L41.3189 49.7859C41.3501 50.2828 41.7626 50.6641 42.2533 50.6641C42.272 50.6641 42.2939 50.6641 42.3126 50.6609C42.8283 50.6297 43.222 50.1828 43.1908 49.6672L42.9345 45.5641C43.2189 45.6266 43.5126 45.6641 43.8189 45.6641H44.697L44.447 49.6672C44.4158 50.1828 44.8064 50.6297 45.3251 50.6609C45.3439 50.6609 45.3658 50.6641 45.3845 50.6641C45.8751 50.6641 46.2876 50.2828 46.3189 49.7859L46.6314 44.7859C46.647 44.5266 46.5564 44.2734 46.3783 44.0859C46.2001 43.8984 45.947 43.7891 45.6876 43.7891H43.8126C42.6064 43.7891 41.6251 42.8078 41.6251 41.6016V37.7453C42.3345 38.0234 43.0876 38.2172 43.8751 38.3109C45.7908 38.5422 47.3095 39.9734 47.6533 41.8703L48.2033 44.8922C48.2845 45.3453 48.6814 45.6609 49.1251 45.6609C49.1814 45.6609 49.2376 45.6547 49.2939 45.6453C49.8033 45.5578 50.1408 45.0672 50.047 44.5578Z" fill="#40AF92"/>
<path d="M34.75 34.4141C34.2313 34.4141 33.8125 34.8328 33.8125 35.3516V40.6641H27.5625C27.5625 40.1453 27.1438 39.7266 26.625 39.7266C26.1062 39.7266 25.6875 40.1453 25.6875 40.6641C25.6875 41.6984 26.5281 42.5391 27.5625 42.5391H27.6313L28.1906 49.7984C28.2281 50.2891 28.6375 50.6641 29.125 50.6641C29.15 50.6641 29.175 50.6641 29.1969 50.6609C29.7125 50.6203 30.1 50.1703 30.0594 49.6547L29.5125 42.5391H31.8625L31.3156 49.6547C31.275 50.1703 31.6625 50.6203 32.1781 50.6609C32.2031 50.6641 32.2281 50.6641 32.25 50.6641C32.7344 50.6641 33.1469 50.2891 33.1844 49.7984L33.7437 42.5391H33.8125C34.8469 42.5391 35.6875 41.6984 35.6875 40.6641V35.3516C35.6875 34.8328 35.2687 34.4141 34.75 34.4141ZM25.6094 26.8078C25.2437 23.3047 22.3156 20.6641 18.7938 20.6641C15.0125 20.6641 11.9375 23.7391 11.9375 27.5203V36.6016C11.9375 37.8234 12.7219 38.8672 13.8125 39.2547V47.8516C13.8125 49.4016 15.075 50.6641 16.625 50.6641C17.3469 50.6641 18.0031 50.3891 18.5 49.9422C18.9969 50.3891 19.6531 50.6641 20.375 50.6641C21.925 50.6641 23.1875 49.4016 23.1875 47.8516V39.7266C23.1875 39.2078 22.7688 38.7891 22.25 38.7891C21.7312 38.7891 21.3125 39.2078 21.3125 39.7266V47.8516C21.3125 48.3672 20.8906 48.7891 20.375 48.7891C19.8594 48.7891 19.4375 48.3672 19.4375 47.8516V36.6016C19.4375 36.0828 19.0188 35.6641 18.5 35.6641C17.9812 35.6641 17.5625 36.0828 17.5625 36.6016V47.8516C17.5625 48.3672 17.1406 48.7891 16.625 48.7891C16.1094 48.7891 15.6875 48.3672 15.6875 47.8516V38.4766C15.6875 37.9578 15.2687 37.5391 14.75 37.5391C14.2344 37.5391 13.8125 37.1172 13.8125 36.6016V27.5203C13.8125 24.7734 16.0469 22.5391 18.7938 22.5391C21.3375 22.5391 23.4563 24.4359 23.7406 26.9578V36.6016C23.7406 37.1203 24.1594 37.5391 24.6781 37.5391C25.1969 37.5391 25.6156 37.1203 25.6156 36.6016V26.9047C25.6156 26.8734 25.6125 26.8422 25.6094 26.8078Z" fill="#40AF92"/>
</g>
<defs>
<clipPath id="clip0_302_5848">
<rect width="40" height="40" fill="white" transform="translate(10.6875 10.9766)"/>
</clipPath>
</defs>
</svg>
