<svg width="61" height="61" viewBox="0 0 61 61" fill="none" xmlns="http://www.w3.org/2000/svg">
<rect x="0.6875" y="0.976562" width="60" height="60" rx="25" fill="#45ABC2" fill-opacity="0.2"/>
<g clip-path="url(#clip0_302_5855)">
<path d="M16.2431 50.9712C16.3904 50.9712 16.5317 50.9053 16.6359 50.7881C16.7401 50.6709 16.7986 50.5119 16.7986 50.3462V43.4424C16.7986 42.0762 17.4464 40.7887 18.4886 40.0862L22.8375 37.1499L25.2242 40.5062C25.2731 40.5747 25.3343 40.631 25.4038 40.6712C25.4732 40.7115 25.5495 40.7349 25.6275 40.7399L25.6586 40.7412C25.8053 40.7412 25.9475 40.6762 26.0519 40.5587L27.3553 39.0924V50.3462C27.3553 50.5119 27.4138 50.6709 27.518 50.7881C27.6222 50.9053 27.7635 50.9712 27.9108 50.9712C28.0582 50.9712 28.1995 50.9053 28.3037 50.7881C28.4079 50.6709 28.4664 50.5119 28.4664 50.3462V37.8512L28.4653 37.8437L29.0208 37.2174L29.5775 37.8437L29.5764 37.8512V50.3462C29.5764 50.5119 29.6349 50.6709 29.7391 50.7881C29.8433 50.9053 29.9846 50.9712 30.1319 50.9712C30.2793 50.9712 30.4206 50.9053 30.5248 50.7881C30.629 50.6709 30.6875 50.5119 30.6875 50.3462V39.0924L31.9908 40.5587C32.0425 40.6167 32.1039 40.6626 32.1714 40.6939C32.2388 40.7253 32.3112 40.7413 32.3842 40.7412L32.4153 40.7399C32.4933 40.7349 32.5695 40.7115 32.639 40.6712C32.7085 40.631 32.7697 40.5747 32.8186 40.5062L35.2053 37.1499L39.5553 40.0862C40.0688 40.4358 40.4938 40.9282 40.7894 41.5159C41.0849 42.1037 41.2412 42.7671 41.2431 43.4424V50.3462C41.2431 50.5119 41.3016 50.6709 41.4058 50.7881C41.51 50.9053 41.6513 50.9712 41.7986 50.9712C41.946 50.9712 42.0873 50.9053 42.1914 50.7881C42.2956 50.6709 42.3542 50.5119 42.3542 50.3462V43.4424C42.3542 41.6387 41.4997 39.9424 40.1253 39.0149L35.4297 35.8462L33.6697 33.6462C33.5964 33.5581 33.5016 33.4963 33.3972 33.4688C33.2928 33.4412 33.1835 33.449 33.0831 33.4912V31.2749C33.9525 30.5589 34.6598 29.6225 35.1476 28.5416C35.6354 27.4608 35.89 26.2658 35.8908 25.0537V22.1087L36.7564 16.6824C36.8373 16.1888 36.8295 15.6821 36.7335 15.1919C36.6376 14.7018 36.4553 14.2383 36.1975 13.8287C35.9419 13.4173 35.6156 13.0676 35.238 12.8003C34.8603 12.5331 34.4389 12.3536 33.9986 12.2724L27.3786 11.0312C26.9047 10.9422 26.4192 10.9706 25.956 11.1141C25.4928 11.2577 25.063 11.513 24.6964 11.8624C24.071 12.4597 23.6664 13.2982 23.5619 14.2137C22.9064 14.3512 22.3131 14.7449 21.8853 15.3399C21.6196 15.7081 21.4308 16.1387 21.3328 16.6C21.2347 17.0612 21.2299 17.5413 21.3186 18.0049L22.1364 22.3112C22.1375 22.3199 22.1431 22.3237 22.1442 22.3299V25.0524C22.1442 27.6037 23.2531 29.8649 24.9519 31.2737V33.4887C24.8521 33.4485 24.7439 33.4418 24.6407 33.4696C24.5375 33.4973 24.4438 33.5582 24.3708 33.6449L22.6119 35.8437L17.9164 39.0137C17.2382 39.4746 16.6769 40.1241 16.2866 40.8998C15.8962 41.6754 15.6899 42.5511 15.6875 43.4424V50.3462C15.6875 50.5119 15.746 50.6709 15.8502 50.7881C15.9544 50.9053 16.0957 50.9712 16.2431 50.9712ZM34.3453 36.3574L32.3375 39.1812L29.9697 36.5174L33.1219 34.8287L34.3453 36.3574ZM22.7486 16.1274C22.9091 15.9032 23.1124 15.7224 23.3434 15.5984C23.5743 15.4744 23.8271 15.4104 24.0831 15.4112C24.3897 15.4112 24.6386 15.0474 24.6386 14.7024C24.638 14.3778 24.6944 14.0562 24.8045 13.7562C24.9146 13.4562 25.0763 13.1835 25.2803 12.9539C25.4843 12.7243 25.7265 12.5423 25.9932 12.4183C26.2598 12.2943 26.5456 12.2307 26.8342 12.2312C26.9555 12.2313 27.0767 12.2425 27.1964 12.2649L33.8164 13.5062C34.4164 13.6187 34.9386 13.9887 35.2886 14.5474C35.6386 15.1074 35.7719 15.7862 35.6619 16.4599L34.9697 20.7987L33.7853 19.2887V17.9449C33.7853 17.7791 33.7267 17.6202 33.6226 17.503C33.5184 17.3858 33.3771 17.3199 33.2297 17.3199H24.8053C24.6579 17.3199 24.5166 17.3858 24.4124 17.503C24.3083 17.6202 24.2497 17.7791 24.2497 17.9449V19.2849L22.9942 20.8537L22.4042 17.7449C22.2964 17.1724 22.4219 16.5824 22.7486 16.1274ZM23.2553 25.0524V22.3962L25.2186 19.9424C25.3103 19.8279 25.361 19.6791 25.3608 19.5249V18.5699H32.6742V19.5249C32.6742 19.6774 32.7231 19.8249 32.8131 19.9387L34.7797 22.4449V25.0524C34.7793 26.1138 34.5473 27.1588 34.104 28.0958C33.6608 29.0327 33.0198 29.8329 32.2375 30.4262L32.2353 30.4274C31.9627 30.6294 31.6754 30.8051 31.3764 30.9524C31.2397 31.0212 31.0975 31.0749 30.9564 31.1312C30.6203 31.2663 30.2741 31.3671 29.9219 31.4324C29.8197 31.4512 29.7153 31.4562 29.6119 31.4674C29.2159 31.5124 28.8169 31.5124 28.4208 31.4674C28.3186 31.4549 28.2142 31.4512 28.1131 31.4324C27.7617 31.367 27.4162 31.2662 27.0808 31.1312C26.9386 31.0749 26.7953 31.0199 26.6564 30.9512C26.359 30.8044 26.0732 30.6296 25.8019 30.4287L25.7942 30.4237C25.0127 29.8303 24.3727 29.0303 23.93 28.0938C23.4874 27.1574 23.2557 26.113 23.2553 25.0524ZM26.6375 32.2974C26.7031 32.3237 26.7664 32.3537 26.8319 32.3774C27.536 32.6459 28.2741 32.7835 29.0175 32.7849C29.7605 32.7836 30.4983 32.6459 31.2019 32.3774C31.2686 32.3524 31.3331 32.3237 31.3997 32.2962C31.5519 32.2324 31.7031 32.1649 31.8508 32.0899C31.8908 32.0699 31.9331 32.0549 31.9731 32.0337V34.0587L29.0208 35.6412L26.0631 34.0562V32.0349C26.1019 32.0562 26.1431 32.0699 26.1819 32.0899C26.3308 32.1649 26.4831 32.2337 26.6375 32.2974ZM24.9197 34.8287L28.0719 36.5174L25.7042 39.1812L23.6964 36.3574L24.9197 34.8287Z" fill="#45ABC2"/>
<path d="M22.5627 50.9722C22.7284 50.9722 22.8874 50.9063 23.0046 50.7891C23.1218 50.6719 23.1877 50.5129 23.1877 50.3472V47.4197C23.1889 46.1307 22.7068 44.888 21.8364 43.9372L20.8902 42.9009C20.8348 42.8403 20.7679 42.7911 20.6936 42.7563C20.6192 42.7215 20.5386 42.7016 20.4566 42.6979C20.3745 42.6942 20.2925 42.7067 20.2153 42.7347C20.138 42.7626 20.0671 42.8055 20.0064 42.8609C19.9458 42.9163 19.8966 42.9831 19.8618 43.0575C19.8269 43.1319 19.8071 43.2125 19.8034 43.2945C19.7997 43.3766 19.8121 43.4586 19.8401 43.5358C19.8681 43.6131 19.911 43.684 19.9664 43.7447L20.9127 44.7809C21.5728 45.5011 21.9385 46.4428 21.9377 47.4197V50.3472C21.9377 50.5129 22.0035 50.6719 22.1207 50.7891C22.2379 50.9063 22.3969 50.9722 22.5627 50.9722ZM40.4852 42.9009L39.5389 43.9384C38.6686 44.8888 38.1864 46.131 38.1877 47.4197V50.3472C38.1877 50.5129 38.2535 50.6719 38.3707 50.7891C38.4879 50.9063 38.6469 50.9722 38.8127 50.9722C38.9784 50.9722 39.1374 50.9063 39.2546 50.7891C39.3718 50.6719 39.4377 50.5129 39.4377 50.3472V47.4197C39.4377 46.4409 39.8014 45.5034 40.4614 44.7809L41.4077 43.7447C41.4631 43.6841 41.506 43.6132 41.534 43.5361C41.562 43.4589 41.5745 43.377 41.5709 43.295C41.5672 43.213 41.5474 43.1325 41.5127 43.0581C41.4779 42.9838 41.4289 42.917 41.3683 42.8616C41.3077 42.8062 41.2368 42.7632 41.1597 42.7352C41.0825 42.7072 41.0006 42.6947 40.9186 42.6983C40.8366 42.702 40.7561 42.7218 40.6817 42.7565C40.6073 42.7913 40.5406 42.8404 40.4852 42.9009Z" fill="#45ABC2"/>
</g>
<defs>
<clipPath id="clip0_302_5855">
<rect width="40" height="40" fill="white" transform="translate(10.6875 10.9766)"/>
</clipPath>
</defs>
</svg>
