<svg width="61" height="61" viewBox="0 0 61 61" fill="none" xmlns="http://www.w3.org/2000/svg">
<rect x="0.6875" y="0.976562" width="60" height="60" rx="25" fill="#40AF92" fill-opacity="0.2"/>
<g clip-path="url(#clip0_302_5861)">
<path d="M37.3542 32.6439H32.3542C31.4375 32.6439 30.6875 33.3939 30.6875 34.3105V39.3105C30.6875 40.2272 31.4375 40.9772 32.3542 40.9772H37.3542C38.2708 40.9772 39.0208 40.2272 39.0208 39.3105V34.3105C39.0208 33.3939 38.2708 32.6439 37.3542 32.6439ZM37.3542 15.9772V17.6439H24.0208V15.9772C24.0208 15.0605 23.2708 14.3105 22.3542 14.3105C21.4375 14.3105 20.6875 15.0605 20.6875 15.9772V17.6439H19.0208C17.1708 17.6439 15.7042 19.1439 15.7042 20.9772L15.6875 44.3105C15.6875 46.1439 17.1708 47.6439 19.0208 47.6439H42.3542C44.1875 47.6439 45.6875 46.1439 45.6875 44.3105V20.9772C45.6875 19.1439 44.1875 17.6439 42.3542 17.6439H40.6875V15.9772C40.6875 15.0605 39.9375 14.3105 39.0208 14.3105C38.1042 14.3105 37.3542 15.0605 37.3542 15.9772ZM40.6875 44.3105H20.6875C19.7708 44.3105 19.0208 43.5605 19.0208 42.6439V25.9772H42.3542V42.6439C42.3542 43.5605 41.6042 44.3105 40.6875 44.3105Z" fill="#40AF92"/>
</g>
<defs>
<clipPath id="clip0_302_5861">
<rect width="40" height="40" fill="white" transform="translate(10.6875 10.9766)"/>
</clipPath>
</defs>
</svg>
