<svg width="19" height="12" viewBox="0 0 19 12" fill="none" xmlns="http://www.w3.org/2000/svg">
<path d="M9.66665 11.8743C8.97916 11.8743 8.52083 11.6451 8.0625 11.1868C7.14583 10.2701 7.14583 8.89514 8.0625 7.97848L14.9375 1.10351C15.8541 0.18685 17.2291 0.18685 18.1458 1.10351C19.0624 2.02018 19.0624 3.39517 18.1458 4.31183L11.2708 11.1868C10.8125 11.6451 10.3542 11.8743 9.66665 11.8743Z" fill="#45ABC2"/>
<path d="M9.66663 11.8743C8.97913 11.8743 8.5208 11.6451 8.06247 11.1868L1.1875 4.31183C0.270834 3.39517 0.270834 2.02018 1.1875 1.10351C2.10416 0.18685 3.47915 0.18685 4.39582 1.10351L11.2708 7.97848C12.1874 8.89514 12.1874 10.2701 11.2708 11.1868C10.8125 11.6451 10.3541 11.8743 9.66663 11.8743Z" fill="#45ABC2"/>
</svg>
