<svg width="1280" height="832" viewBox="0 0 1280 832" fill="none" xmlns="http://www.w3.org/2000/svg">
<path d="M978.245 418.277C956.317 484.744 909.064 557.616 839.508 581.332C734.435 617.191 725.007 703.36 534.35 702.774C506.509 702.813 478.745 699.831 451.547 693.883C438.249 690.927 425.153 687.126 412.339 682.504C299.366 641.753 237.515 544.84 228.656 441.278C217.034 305.06 309.72 236.35 370.076 195.826C430.431 155.301 499.353 4.90897 686.84 4.01494C715.46 3.75837 744.014 6.80744 771.935 13.1016C835.59 27.7312 901.099 62.9561 940.452 116.647C943.394 120.678 946.223 124.774 948.954 129.033C1002.09 211.658 1008.15 327.638 978.245 418.277Z" fill="#45ABC2" fill-opacity="0.2"/>
<path opacity="0.7" d="M978.585 418.277C956.657 484.744 909.403 557.616 839.848 581.332C734.774 617.191 725.346 703.36 534.69 702.774C506.849 702.813 479.085 699.831 451.886 693.883C438.589 690.927 425.493 687.126 412.679 682.504C299.706 641.753 237.855 544.84 228.996 441.278C217.374 305.06 310.06 236.35 370.416 195.826C430.771 155.301 499.693 4.90897 687.179 4.01494C715.8 3.75837 744.354 6.80744 772.275 13.1016C835.93 27.7312 901.438 62.9561 940.792 116.647C943.734 120.678 946.563 124.774 949.293 129.033C1002.43 211.658 1008.49 327.638 978.585 418.277Z" fill="white"/>
<path d="M204.585 503.025C207.6 502.179 212.934 497.606 212.943 497.605C212.952 497.604 208.832 495.006 208.578 494.873C205.341 493.33 198.203 492.323 195.48 495.245C195.039 495.742 194.708 496.326 194.508 496.96C194.307 497.593 194.242 498.261 194.317 498.922C194.391 499.582 194.604 500.219 194.94 500.791C195.277 501.364 195.73 501.86 196.27 502.246C198.544 503.955 202.013 503.745 204.585 503.025Z" fill="#40AF92"/>
<path d="M219.339 517.229C221.922 515.678 225.62 510.307 225.915 509.882C228.983 512.004 232.19 513.918 235.514 515.612C237.439 516.607 239.417 517.557 241.41 518.477C240.425 518.197 239.565 517.941 239.44 517.927C235.925 517.312 228.761 518.179 226.901 521.738C226.61 522.336 226.448 522.988 226.425 523.652C226.402 524.317 226.519 524.978 226.769 525.595C227.019 526.211 227.395 526.768 227.874 527.229C228.352 527.69 228.923 528.046 229.548 528.272C232.168 529.331 235.467 528.214 237.746 526.84C240.024 525.467 243.319 520.924 244.156 519.723L246.459 520.76C250.158 522.414 253.844 524.039 257.414 525.745C258.675 526.347 259.892 526.983 261.119 527.617C260.251 527.372 259.521 527.158 259.405 527.143C255.89 526.528 248.726 527.395 246.867 530.964C246.576 531.561 246.414 532.213 246.391 532.878C246.368 533.542 246.485 534.204 246.735 534.82C246.985 535.436 247.361 535.993 247.84 536.454C248.318 536.916 248.889 537.271 249.514 537.498C252.132 538.547 255.423 537.431 257.711 536.056C259.998 534.682 262.962 530.587 263.974 529.156C265.206 529.837 266.438 530.528 267.598 531.247C268.381 531.759 269.165 532.196 269.924 532.749L272.162 534.31C273.561 535.373 275.01 536.46 276.343 537.531C277.276 538.275 278.158 538.986 279.042 539.717C277.799 539.103 275.331 537.95 275.123 537.879C271.731 536.744 264.474 536.543 262.146 539.755C261.767 540.3 261.507 540.92 261.383 541.573C261.259 542.226 261.273 542.897 261.426 543.544C261.578 544.191 261.864 544.799 262.267 545.328C262.669 545.857 263.178 546.295 263.76 546.615C266.194 548.048 269.581 547.456 272.081 546.439C274.818 545.318 279.077 540.782 279.651 540.201C281.123 541.409 282.536 542.595 283.866 543.724C286.786 546.257 289.315 548.539 291.426 550.505L293.462 548.843C291.222 546.835 288.522 544.477 285.398 541.91C283.913 540.674 282.308 539.396 280.644 538.095C281.614 536.327 282.482 534.505 283.244 532.638C286.231 533.064 291.933 531.752 292.667 531.574C293.228 533.419 293.749 535.155 294.214 536.829C295.211 540.334 296.017 543.497 296.667 546.21L298.869 544.415C298.201 541.962 297.42 539.187 296.496 536.161C295.935 534.316 295.293 532.356 294.629 530.36C295.305 530.007 300.861 527.07 302.671 524.757C304.343 522.659 305.82 519.515 305.101 516.781C304.95 516.134 304.665 515.526 304.265 514.996C303.864 514.466 303.356 514.026 302.775 513.705C302.193 513.383 301.551 513.188 300.889 513.131C300.227 513.074 299.56 513.157 298.933 513.374C295.185 514.751 293.442 521.791 293.606 525.36C293.63 525.568 293.981 527.837 294.238 529.268C293.965 528.45 293.704 527.659 293.408 526.814C292.83 525.162 292.205 523.515 291.539 521.758L290.478 519.205C290.142 518.346 289.672 517.483 289.23 516.607C288.26 514.608 287.177 512.631 286.038 510.65C287.488 510.143 292.62 508.266 294.57 506.433C296.52 504.6 298.476 501.726 298.169 498.926C298.12 498.263 297.932 497.618 297.617 497.033C297.303 496.447 296.869 495.935 296.343 495.528C295.817 495.121 295.212 494.829 294.567 494.672C293.921 494.514 293.25 494.494 292.596 494.612C288.682 495.445 285.892 502.097 285.521 505.651C285.545 505.868 285.532 508.455 285.568 509.873C284.881 508.691 284.194 507.509 283.452 506.343C281.323 502.957 279.064 499.604 276.823 496.241C276.135 495.211 275.465 494.18 274.785 493.15C275.3 492.977 281.447 490.871 283.638 488.81C285.579 486.987 287.545 484.112 287.237 481.303C287.187 480.641 286.997 479.996 286.682 479.411C286.366 478.826 285.931 478.315 285.404 477.909C284.878 477.503 284.272 477.212 283.626 477.056C282.98 476.899 282.309 476.88 281.655 477C277.75 477.832 274.952 484.485 274.59 488.038C274.563 488.308 274.6 492.016 274.659 492.964C273.171 490.689 271.702 488.412 270.354 486.111C268.515 483.007 266.876 479.787 265.449 476.473C265.687 476.389 272.113 474.222 274.357 472.118C276.297 470.286 278.263 467.411 277.956 464.611C277.905 463.948 277.716 463.304 277.4 462.719C277.085 462.134 276.649 461.622 276.123 461.216C275.597 460.811 274.991 460.52 274.345 460.363C273.699 460.207 273.028 460.188 272.374 460.308C268.469 461.14 265.671 467.793 265.308 471.345C265.282 471.616 265.322 475.61 265.386 476.337C265.307 476.146 265.199 475.957 265.12 475.757C263.788 472.391 262.757 468.915 262.038 465.369C261.617 463.422 261.318 461.528 261.08 459.675C262.318 459.401 267.959 458.058 270.184 456.385C272.41 454.711 274.581 452.137 274.587 449.312C274.609 448.648 274.491 447.987 274.241 447.372C273.991 446.757 273.615 446.201 273.136 445.74C272.658 445.28 272.088 444.925 271.463 444.698C270.839 444.472 270.174 444.38 269.511 444.427C265.538 444.818 262.032 451.121 261.272 454.614C261.236 454.809 261.029 456.779 260.906 458.224C260.812 457.386 260.715 456.528 260.624 455.727C260.285 452.721 260.229 449.941 260.171 447.486C260.146 446.086 260.156 444.825 260.178 443.668C261.249 442.755 265.524 439.037 266.706 436.575C267.889 434.113 268.648 430.782 267.353 428.275C267.068 427.676 266.659 427.143 266.154 426.711C265.649 426.28 265.059 425.959 264.422 425.77C263.786 425.581 263.116 425.528 262.458 425.614C261.799 425.7 261.166 425.924 260.599 426.271C257.248 428.453 257.041 435.662 257.985 439.115C258.019 439.417 259.873 443.922 259.935 443.876L259.995 443.822C259.952 444.962 259.927 446.177 259.916 447.514C259.918 449.976 259.955 452.759 260.192 455.786C260.409 459.053 260.818 462.305 261.416 465.525C262.064 469.135 263.036 472.679 264.32 476.114C264.32 476.114 264.329 476.189 264.334 476.236C263.61 475.316 261.485 472.808 261.303 472.637C258.707 470.182 252.247 466.98 248.742 468.903C248.17 469.24 247.675 469.694 247.289 470.235C246.903 470.776 246.635 471.392 246.502 472.043C246.37 472.694 246.376 473.366 246.519 474.014C246.663 474.663 246.942 475.274 247.337 475.809C248.936 478.138 252.305 479.065 254.966 479.136C257.967 479.265 264.019 476.826 264.502 476.628C265.891 480.093 267.508 483.462 269.344 486.712C270.407 488.606 271.535 490.482 272.691 492.356C272.031 491.581 271.448 490.893 271.351 490.799C268.756 488.353 262.286 485.143 258.782 487.075C258.216 487.418 257.727 487.877 257.349 488.421C256.97 488.965 256.71 489.582 256.585 490.233C256.46 490.884 256.472 491.554 256.622 492.199C256.771 492.845 257.055 493.452 257.453 493.981C259.062 496.309 262.43 497.236 265.092 497.317C267.755 497.399 272.996 495.471 274.363 494.906C274.816 495.618 275.251 496.342 275.703 497.054C277.873 500.464 280.059 503.853 282.094 507.25C282.811 508.448 283.482 509.651 284.14 510.836C283.566 510.147 283.044 509.576 283.034 509.491C280.429 507.037 273.969 503.835 270.464 505.758C269.88 506.091 269.374 506.544 268.979 507.088C268.584 507.631 268.309 508.252 268.172 508.91C268.035 509.568 268.039 510.248 268.185 510.904C268.331 511.56 268.614 512.178 269.017 512.716C270.624 515.035 273.989 515.924 276.655 516.043C279.321 516.161 284.043 514.368 285.68 513.735C286.326 514.979 286.975 516.242 287.544 517.485C287.918 518.34 288.332 519.133 288.661 520.021L289.667 522.589C290.246 524.251 290.858 525.957 291.386 527.587C291.754 528.728 292.095 529.806 292.438 530.903C291.73 529.704 290.313 527.383 290.169 527.209C288.146 524.802 285.538 522.954 282.597 521.842C282.382 521.567 282.145 521.31 281.89 521.072C281.407 520.615 280.833 520.265 280.206 520.044C279.58 519.823 278.913 519.736 278.251 519.79C277.588 519.843 276.944 520.035 276.36 520.353C275.777 520.671 275.266 521.109 274.863 521.637C272.519 524.879 274.919 531.679 277.038 534.561C277.162 534.728 278.728 536.422 279.724 537.473C279.044 536.939 278.384 536.422 277.638 535.896C276.247 534.822 274.815 533.8 273.287 532.694L270.995 531.159C270.238 530.624 269.374 530.158 268.563 529.649C266.641 528.52 264.652 527.466 262.609 526.447C263.548 525.215 266.746 520.826 267.405 518.213C268.064 515.601 268.073 512.135 266.273 509.962C265.865 509.438 265.352 509.005 264.767 508.692C264.181 508.378 263.537 508.191 262.875 508.143C262.212 508.094 261.547 508.186 260.923 508.41C260.298 508.635 259.727 508.989 259.248 509.448C256.44 512.304 257.776 519.396 259.44 522.558C259.539 522.757 260.983 524.894 261.801 526.051C260.568 525.446 259.354 524.839 258.087 524.266C254.447 522.626 250.703 521.073 246.986 519.508L243.576 518.051C243.919 517.621 247.881 512.479 248.572 509.557C249.232 506.953 249.231 503.48 247.43 501.307C247.023 500.782 246.51 500.35 245.924 500.036C245.339 499.723 244.694 499.536 244.032 499.487C243.37 499.439 242.705 499.53 242.08 499.755C241.456 499.98 240.885 500.333 240.406 500.793C237.598 503.648 238.942 510.73 240.597 513.893C240.72 514.137 242.803 517.203 243.375 517.959C240.878 516.886 238.36 515.806 236.003 514.622C232.754 513.05 229.611 511.269 226.593 509.291C226.751 509.091 230.918 503.735 231.621 500.745C232.224 498.148 232.28 494.668 230.479 492.495C230.071 491.97 229.558 491.538 228.973 491.224C228.388 490.911 227.743 490.724 227.081 490.675C226.419 490.627 225.754 490.718 225.129 490.943C224.504 491.168 223.934 491.521 223.454 491.981C220.647 494.836 221.992 501.928 223.647 505.09C223.779 505.333 226.013 508.64 226.469 509.209L225.926 508.879C222.955 506.81 220.176 504.479 217.619 501.916C216.183 500.522 214.898 499.112 213.67 497.705C214.521 496.788 218.518 492.548 219.472 489.93C220.427 487.313 220.793 483.96 219.238 481.606C218.892 481.041 218.43 480.554 217.883 480.178C217.336 479.802 216.717 479.545 216.064 479.423C215.412 479.302 214.741 479.318 214.096 479.472C213.45 479.626 212.844 479.914 212.317 480.317C209.215 482.843 209.77 490.043 211.062 493.371C211.14 493.553 212.054 495.31 212.751 496.577C212.202 495.943 211.651 495.289 211.122 494.662C209.216 492.32 207.605 490.049 206.203 488.031C205.414 486.88 204.722 485.822 204.085 484.826C204.476 483.474 205.988 478.016 205.615 475.31C205.243 472.604 204.041 469.399 201.577 468.027C201.008 467.683 200.373 467.463 199.713 467.381C199.054 467.299 198.384 467.356 197.748 467.55C197.112 467.743 196.524 468.068 196.021 468.503C195.519 468.939 195.114 469.475 194.832 470.077C193.252 473.748 197.057 479.884 199.746 482.233C199.979 482.436 203.975 485.201 203.995 485.132C203.995 485.106 203.993 485.081 203.987 485.056C204.583 486.029 205.225 487.064 205.962 488.183C207.32 490.234 208.888 492.538 210.752 494.933C212.748 497.528 214.894 500.004 217.181 502.347C219.717 504.994 222.481 507.412 225.441 509.573L225.554 509.646C224.434 509.277 221.295 508.352 221.043 508.314C217.519 507.701 210.364 508.566 208.505 512.135C208.214 512.733 208.052 513.385 208.029 514.049C208.006 514.714 208.124 515.375 208.373 515.991C208.623 516.608 208.999 517.164 209.478 517.626C209.956 518.087 210.527 518.442 211.152 518.669C213.761 519.72 217.05 518.585 219.339 517.229Z" fill="#40AF92"/>
<path d="M260.539 459.276C260.605 459.269 258.569 454.851 258.407 454.593C256.544 451.539 251.164 446.736 247.271 447.672C246.63 447.847 246.034 448.154 245.52 448.574C245.006 448.993 244.585 449.516 244.286 450.109C243.987 450.701 243.816 451.35 243.783 452.013C243.75 452.675 243.857 453.338 244.096 453.957C245.028 456.629 248.04 458.369 250.575 459.189C253.533 460.115 260.529 459.277 260.539 459.276Z" fill="#40AF92"/>
<path d="M973.584 249.824C976.009 252.225 983.197 254.84 983.197 254.85C983.197 254.861 983.488 249.61 983.467 249.278C983.186 245.42 980.352 238.121 976.117 237.093C975.409 236.941 974.676 236.94 973.968 237.089C973.259 237.238 972.59 237.535 972.004 237.958C971.418 238.382 970.929 238.924 970.568 239.549C970.207 240.173 969.983 240.866 969.909 241.583C969.478 244.616 971.504 247.788 973.584 249.824Z" fill="#40AF92"/>
<path d="M961.699 267.069C964.235 269.632 971.55 272.405 972.131 272.616C970.539 276.795 969.228 281.076 968.208 285.431C967.589 287.964 967.059 290.533 966.551 293.109C966.606 291.895 966.649 290.813 966.627 290.671C966.339 286.398 963.257 278.323 958.595 277.161C957.817 276.992 957.012 276.989 956.233 277.151C955.453 277.313 954.717 277.637 954.071 278.102C953.425 278.566 952.884 279.162 952.484 279.849C952.083 280.537 951.832 281.301 951.746 282.091C951.267 285.45 953.525 288.968 955.761 291.238C957.997 293.508 964.265 296.063 965.883 296.661C965.704 297.657 965.503 298.646 965.324 299.641C964.466 304.407 963.622 309.164 962.618 313.79C962.284 315.431 961.889 317.03 961.493 318.629C961.544 317.561 961.576 316.648 961.566 316.51C961.266 312.234 958.184 304.159 953.531 303.011C952.752 302.841 951.946 302.836 951.166 302.997C950.385 303.158 949.647 303.481 949 303.946C948.353 304.41 947.811 305.006 947.41 305.694C947.008 306.382 946.756 307.147 946.67 307.939C946.194 311.286 948.452 314.804 950.688 317.073C952.925 319.343 958.57 321.615 960.523 322.38C960.069 324.012 959.615 325.644 959.119 327.203C958.752 328.256 958.463 329.295 958.024 330.341C957.586 331.387 957.228 332.406 956.822 333.424C955.989 335.357 955.137 337.357 954.274 339.22C953.679 340.517 953.091 341.743 952.501 342.981C952.854 341.358 953.496 338.167 953.512 337.889C953.874 333.625 952.049 325.186 947.619 323.326C946.876 323.04 946.081 322.913 945.285 322.955C944.49 322.996 943.712 323.204 943.003 323.566C942.294 323.928 941.669 324.435 941.169 325.054C940.669 325.674 940.306 326.392 940.103 327.161C939.114 330.403 940.798 334.216 942.675 336.804C944.752 339.644 951.285 343.368 952.105 343.83C951.116 345.878 950.146 347.859 949.232 349.731C947.142 353.834 945.189 357.447 943.497 360.431L946.001 362.357C947.708 359.144 949.671 355.362 951.773 350.992C952.783 348.912 953.82 346.643 954.846 344.371C957.183 344.994 959.553 345.485 961.945 345.842C962.311 349.436 965.467 355.7 965.883 356.504C963.93 357.682 962.023 358.787 960.203 359.842C956.404 361.994 952.938 363.833 949.975 365.369L952.708 367.359C955.381 365.89 958.381 364.179 961.642 362.234C963.629 361.066 965.725 359.768 967.864 358.408C968.47 359.105 973.486 364.743 976.69 366.188C979.613 367.494 983.692 368.358 986.669 366.728C987.38 366.369 988.006 365.864 988.509 365.248C989.011 364.631 989.378 363.916 989.586 363.148C989.794 362.381 989.838 361.578 989.715 360.792C989.592 360.006 989.305 359.255 988.873 358.586C986.158 354.634 977.506 354.587 973.397 355.817C973.157 355.885 970.617 356.961 969.031 357.663C969.9 357.106 970.76 356.583 971.665 355.937C973.436 354.794 975.158 353.602 977.027 352.327L979.691 350.363C980.597 349.717 981.466 348.938 982.368 348.218C984.429 346.517 986.424 344.699 988.401 342.815C989.408 344.325 993.056 349.791 995.758 351.539C998.459 353.286 1002.35 354.75 1005.53 353.593C1006.27 353.34 1006.96 352.934 1007.54 352.401C1008.12 351.869 1008.58 351.221 1008.9 350.499C1009.22 349.778 1009.38 348.998 1009.38 348.21C1009.38 347.422 1009.21 346.643 1008.89 345.922C1006.78 341.647 998.26 340.247 994.01 340.835C993.753 340.874 990.747 341.636 989.119 342.092C990.288 340.942 991.474 339.821 992.621 338.616C995.954 335.178 999.218 331.586 1002.49 328.021C1003.49 326.935 1004.49 325.85 1005.51 324.779C1005.86 325.331 1010.06 331.887 1013.09 333.836C1015.77 335.578 1019.68 337.047 1022.86 335.89C1023.6 335.637 1024.29 335.231 1024.87 334.699C1025.45 334.166 1025.92 333.519 1026.23 332.797C1026.55 332.075 1026.71 331.296 1026.71 330.508C1026.71 329.72 1026.54 328.94 1026.22 328.22C1024.13 323.947 1015.59 322.544 1011.35 323.135C1011.03 323.181 1006.72 324.305 1005.64 324.618C1007.86 322.237 1010.09 319.883 1012.39 317.656C1015.48 314.632 1018.76 311.808 1022.21 309.201C1022.37 309.467 1026.73 316.323 1029.83 318.328C1032.52 320.061 1036.42 321.528 1039.61 320.374C1040.35 320.121 1041.04 319.715 1041.62 319.183C1042.2 318.65 1042.67 318.002 1042.98 317.281C1043.3 316.559 1043.46 315.779 1043.46 314.991C1043.46 314.203 1043.29 313.424 1042.97 312.703C1040.87 308.431 1032.34 307.039 1028.09 307.627C1027.76 307.67 1023.13 308.866 1022.3 309.14C1022.5 308.987 1022.69 308.817 1022.9 308.667C1026.43 306.152 1030.18 303.957 1034.1 302.108C1036.27 301.062 1038.34 300.163 1040.46 299.363C1041.13 300.781 1044.32 306.919 1046.9 309.026C1049.48 311.132 1053.11 312.931 1056.4 312.136C1057.18 311.973 1057.92 311.647 1058.56 311.181C1059.21 310.715 1059.75 310.118 1060.15 309.43C1060.55 308.742 1060.8 307.977 1060.89 307.185C1060.97 306.393 1060.89 305.592 1060.65 304.834C1059.05 300.319 1050.7 298.033 1046.42 298.157C1046.18 298.165 1043.86 298.503 1042.1 298.752C1043.05 298.401 1044.01 298.053 1044.93 297.707C1048.36 296.496 1051.56 295.604 1054.41 294.835C1056.03 294.401 1057.51 294.05 1058.89 293.733C1060.25 294.726 1065.79 298.631 1069 299.303C1072.21 299.975 1076.31 299.923 1078.87 297.695C1079.48 297.192 1079.99 296.565 1080.34 295.855C1080.7 295.145 1080.9 294.368 1080.94 293.574C1080.98 292.78 1080.85 291.986 1080.56 291.246C1080.27 290.505 1079.83 289.833 1079.27 289.273C1075.76 285.998 1067.3 287.813 1063.58 289.826C1063.26 290.007 1058.53 293.338 1058.58 293.452L1058.67 293.477C1057.36 293.764 1055.91 294.062 1054.36 294.44C1051.49 295.142 1048.25 295.976 1044.79 297.114C1041.04 298.296 1037.36 299.695 1033.77 301.303C1029.76 303.084 1025.91 305.222 1022.27 307.693C1022.23 307.73 1022.19 307.763 1022.15 307.794C1023.01 306.681 1025.32 303.512 1025.47 303.246C1027.59 299.52 1029.48 291.095 1026.23 287.559C1025.67 286.987 1025 286.538 1024.26 286.242C1023.52 285.946 1022.73 285.809 1021.93 285.84C1021.13 285.871 1020.35 286.069 1019.63 286.422C1018.92 286.775 1018.29 287.275 1017.78 287.888C1015.54 290.412 1015.45 294.618 1016.09 297.722C1016.8 301.253 1021.38 307.603 1021.74 308.11C1018.1 310.709 1014.64 313.55 1011.38 316.615C1009.48 318.383 1007.61 320.236 1005.77 322.11C1006.5 321.083 1007.11 320.246 1007.2 320.05C1009.31 316.332 1011.2 307.895 1007.96 304.374C1007.4 303.802 1006.73 303.353 1005.99 303.057C1005.25 302.761 1004.46 302.624 1003.66 302.655C1002.86 302.686 1002.08 302.884 1001.37 303.237C1000.65 303.59 1000.02 304.09 999.511 304.704C997.27 307.228 997.183 311.433 997.824 314.526C998.465 317.618 1002.27 323.14 1003.27 324.647C1002.57 325.376 1001.86 326.087 1001.16 326.827C997.81 330.322 994.485 333.823 991.106 337.161C989.916 338.343 988.707 339.457 987.499 340.572C988.134 339.703 988.66 338.964 988.729 338.848C990.837 335.119 992.73 326.682 989.488 323.161C988.932 322.589 988.262 322.14 987.522 321.844C986.781 321.548 985.986 321.411 985.189 321.442C984.392 321.473 983.61 321.672 982.895 322.025C982.18 322.378 981.548 322.877 981.039 323.491C978.798 326.015 978.711 330.22 979.349 333.324C979.987 336.428 983.414 341.451 984.612 343.162C983.343 344.272 982.07 345.393 980.789 346.414C979.889 347.086 979.076 347.794 978.148 348.433C977.219 349.072 976.331 349.698 975.44 350.335C973.669 351.478 971.857 352.683 970.103 353.769C968.895 354.527 967.717 355.22 966.545 355.939C967.743 354.772 970.036 352.459 970.206 352.248C972.437 349.214 973.851 345.657 974.311 341.919C974.573 341.594 974.805 341.247 975.006 340.882C975.402 340.189 975.647 339.419 975.725 338.624C975.803 337.829 975.713 337.026 975.459 336.268C975.205 335.51 974.794 334.815 974.252 334.226C973.711 333.638 973.051 333.171 972.316 332.855C967.89 331.07 960.641 335.754 957.885 339.069C957.719 339.269 956.206 341.565 955.27 343.026C955.68 342.083 956.107 341.168 956.527 340.191C957.36 338.259 958.147 336.314 959.002 334.215C959.374 333.188 959.757 332.163 960.136 331.113C960.514 330.062 960.837 328.947 961.191 327.853C961.962 325.301 962.633 322.672 963.226 320.009C964.915 320.75 970.936 323.261 974.179 323.242C977.422 323.222 981.451 322.277 983.461 319.566C983.958 318.946 984.319 318.228 984.52 317.459C984.721 316.69 984.757 315.887 984.627 315.102C984.497 314.318 984.203 313.57 983.765 312.906C983.326 312.243 982.753 311.679 982.082 311.252C977.963 308.802 970.088 312.377 966.876 315.209C966.678 315.388 964.602 317.675 963.484 318.95C963.842 317.353 964.2 315.755 964.493 314.128C965.364 309.452 966.114 304.632 966.867 299.849C967.101 298.389 967.346 296.933 967.591 295.477C968.194 295.743 975.27 298.843 978.954 298.872C982.151 298.84 986.214 297.905 988.224 295.194C988.722 294.573 989.082 293.855 989.283 293.086C989.484 292.317 989.521 291.514 989.391 290.73C989.261 289.946 988.967 289.198 988.528 288.534C988.09 287.871 987.517 287.307 986.846 286.879C982.716 284.427 974.852 288.005 971.639 290.837C971.395 291.051 968.409 294.352 967.698 295.224C968.234 292.016 968.793 288.815 969.479 285.686C970.366 281.458 971.525 277.291 972.95 273.213C973.247 273.295 980.61 276.647 984.31 276.62C987.518 276.59 991.581 275.655 993.591 272.944C994.087 272.323 994.446 271.605 994.646 270.836C994.846 270.067 994.882 269.265 994.752 268.482C994.622 267.698 994.329 266.95 993.891 266.286C993.454 265.623 992.882 265.059 992.213 264.63C988.083 262.177 980.208 265.752 977.006 268.587C976.747 268.81 973.499 272.345 973.009 273.045C973.076 272.805 973.145 272.554 973.212 272.314C974.765 268.264 976.675 264.36 978.92 260.648C980.149 258.531 981.415 256.682 982.696 254.862C984.011 255.622 990.078 259.031 993.395 259.364C996.712 259.697 1000.73 259.203 1003.03 256.733C1003.59 256.167 1004.02 255.489 1004.3 254.745C1004.59 254 1004.71 253.204 1004.66 252.409C1004.62 251.614 1004.4 250.837 1004.04 250.129C1003.67 249.421 1003.16 248.797 1002.54 248.298C998.717 245.414 990.497 248.106 986.992 250.574C986.795 250.704 985.017 252.274 983.732 253.441C984.329 252.624 984.92 251.78 985.504 251.008C987.689 248.112 989.866 245.595 991.808 243.393C992.931 242.144 993.967 241.031 994.94 240.01C996.633 240.076 1003.42 240.291 1006.46 239.073C1009.51 237.856 1012.89 235.563 1013.79 232.307C1014.02 231.547 1014.1 230.745 1014.01 229.954C1013.91 229.163 1013.66 228.4 1013.25 227.714C1012.84 227.029 1012.29 226.437 1011.64 225.977C1010.99 225.517 1010.25 225.199 1009.47 225.044C1004.77 224.252 998.693 230.419 996.712 234.22C996.548 234.544 994.466 239.989 994.553 239.989L994.655 240.017C993.687 240.977 992.667 242.034 991.577 243.206C989.581 245.38 987.342 247.855 985.084 250.707C982.621 253.758 980.336 256.948 978.24 260.262C975.931 264.009 973.956 267.953 972.339 272.047C972.331 272.097 972.317 272.147 972.298 272.195C972.403 270.798 972.549 266.867 972.56 266.563C972.269 262.301 969.19 254.215 964.525 253.064C963.747 252.895 962.942 252.892 962.163 253.054C961.383 253.216 960.647 253.54 960.001 254.005C959.355 254.47 958.814 255.065 958.414 255.752C958.013 256.44 957.762 257.204 957.676 257.995C957.205 261.281 959.446 264.77 961.699 267.069Z" fill="#40AF92"/>
<path d="M1040.92 299.956C1040.92 300.023 1044.53 295.537 1044.72 295.222C1046.91 291.672 1048.86 283.647 1045.45 280.3C1044.87 279.758 1044.17 279.335 1043.39 279.057C1042.62 278.779 1041.79 278.652 1040.96 278.685C1040.12 278.718 1039.31 278.91 1038.56 279.248C1037.82 279.587 1037.16 280.064 1036.63 280.649C1034.29 283.061 1034.23 287.028 1034.9 290.015C1035.65 293.464 1040.91 299.956 1040.92 299.956Z" fill="#40AF92"/>
</svg>
