<svg width="325" height="410" viewBox="0 0 325 410" fill="none" xmlns="http://www.w3.org/2000/svg">
<g clip-path="url(#clip0_1441_3718)">
<rect width="325" height="410" fill="white"/>
<path d="M236.467 194.516C236.467 194.516 237.565 188.838 237.681 188.526C239.011 184.495 243.983 177.455 248.811 177.455C249.613 177.484 250.4 177.677 251.122 178.021C251.844 178.366 252.485 178.854 253.004 179.454C253.524 180.055 253.91 180.756 254.139 181.511C254.367 182.266 254.433 183.06 254.332 183.842C253.946 185.508 253.195 187.072 252.132 188.425C251.069 189.778 249.718 190.888 248.175 191.677C244.433 193.175 240.489 194.132 236.467 194.516Z" fill="#40AF92"/>
<path d="M227.189 156.479C231.728 158.068 233.983 166.357 233.838 170.672C233.838 171.041 232.971 176.747 232.884 176.719C233.26 178.024 233.636 179.415 234.012 180.977C234.705 183.815 235.457 187.023 236.006 190.6C236.673 194.432 237.107 198.299 237.307 202.182C237.552 206.52 237.397 210.872 236.845 215.183C236.858 215.239 236.858 215.297 236.845 215.353C237.452 214.076 239.244 210.613 239.418 210.357C241.788 206.809 248.466 201.33 253.149 202.608C253.911 202.846 254.614 203.238 255.214 203.757C255.814 204.276 256.298 204.912 256.635 205.625C256.972 206.337 257.155 207.11 257.172 207.896C257.189 208.681 257.04 209.461 256.734 210.187C255.914 211.69 254.771 213 253.383 214.024C251.995 215.049 250.396 215.764 248.697 216.12C244.726 216.617 240.7 216.522 236.758 215.836C236.093 220.219 235.128 224.553 233.867 228.809C233.144 231.307 232.364 233.776 231.526 236.246L232.653 234.089C235.024 230.54 241.73 225.062 246.385 226.339C247.147 226.578 247.85 226.969 248.45 227.489C249.05 228.008 249.534 228.644 249.871 229.356C250.208 230.069 250.39 230.842 250.407 231.627C250.424 232.412 250.275 233.193 249.969 233.918C249.15 235.422 248.006 236.731 246.618 237.756C245.23 238.781 243.631 239.496 241.933 239.851C238.089 240.359 234.189 240.282 230.369 239.624L229.415 242.463C227.796 247.005 226.177 251.518 224.761 256.003C224.241 257.593 223.807 259.154 223.344 260.744C223.836 259.779 224.27 258.984 224.327 258.87C226.698 255.322 233.405 249.843 238.059 251.092C238.824 251.331 239.531 251.723 240.134 252.244C240.736 252.766 241.222 253.405 241.559 254.12C241.896 254.836 242.078 255.613 242.092 256.401C242.107 257.19 241.954 257.973 241.644 258.7C240.822 260.202 239.678 261.511 238.29 262.535C236.903 263.56 235.305 264.276 233.607 264.633C229.861 265.145 226.057 265.077 222.333 264.434C221.928 266.081 221.523 267.699 221.205 269.288C221.003 270.367 220.743 271.417 220.598 272.524C220.454 273.632 220.28 274.71 220.136 275.761C219.933 277.861 219.673 279.99 219.528 282.006C219.528 283.425 219.297 284.844 219.21 286.122C219.702 284.561 220.714 281.495 220.829 281.239C222.547 277.917 225.093 275.075 228.23 272.979C228.402 272.589 228.615 272.218 228.866 271.872C229.311 271.219 229.889 270.664 230.564 270.242C231.239 269.82 231.996 269.54 232.787 269.42C233.577 269.3 234.385 269.342 235.158 269.544C235.931 269.746 236.653 270.104 237.278 270.594C240.95 273.688 240.025 282.204 238.348 286.122C238.348 286.349 236.874 288.733 236.006 290.209L237.972 287.825C239.302 286.207 240.69 284.646 242.193 282.942L244.448 280.53C245.199 279.706 246.067 278.94 246.905 278.117C248.813 276.3 250.865 274.512 252.976 272.78C249.929 270.464 247.259 267.708 245.055 264.605C244.175 263.13 243.631 261.486 243.462 259.785C243.292 258.085 243.5 256.368 244.072 254.754C244.41 254.041 244.895 253.405 245.497 252.885C246.099 252.366 246.804 251.975 247.568 251.737C248.332 251.5 249.137 251.421 249.934 251.505C250.731 251.59 251.501 251.836 252.195 252.228C256.3 254.754 256.705 263.299 255.635 267.415C255.635 267.67 254.479 270.537 253.843 272.099C255.115 271.077 256.387 270.026 257.717 269.033C261.533 266.194 265.493 263.355 269.425 260.517L273.038 257.877C269.855 255.47 267.067 252.598 264.77 249.361C263.888 247.887 263.345 246.241 263.18 244.54C263.015 242.838 263.233 241.121 263.816 239.511C264.155 238.801 264.639 238.168 265.239 237.652C265.838 237.135 266.54 236.746 267.301 236.508C268.061 236.271 268.863 236.191 269.656 236.273C270.45 236.355 271.217 236.597 271.911 236.984C276.016 239.51 276.421 248.083 275.38 252.171C275.38 252.483 273.703 256.599 273.241 257.65C275.871 255.719 278.473 253.761 280.988 251.745C284.367 249.037 287.564 246.117 290.557 243.002C287.358 240.595 284.55 237.723 282.231 234.486C281.349 233.017 280.807 231.377 280.642 229.679C280.477 227.982 280.694 226.27 281.277 224.664C281.615 223.951 282.101 223.314 282.702 222.795C283.304 222.276 284.009 221.885 284.773 221.647C285.537 221.41 286.343 221.331 287.139 221.415C287.936 221.5 288.706 221.746 289.4 222.138C293.477 224.664 293.881 233.209 292.841 237.325C292.841 237.58 291.569 240.731 290.933 242.207L291.193 242.349C294.111 239.139 296.732 235.681 299.027 232.016C300.328 230.001 301.455 228.014 302.496 226.055C299.141 224.049 296.111 221.561 293.506 218.675C292.475 217.301 291.758 215.725 291.404 214.054C291.049 212.384 291.066 210.658 291.453 208.995C291.707 208.249 292.117 207.564 292.655 206.982C293.193 206.4 293.848 205.935 294.579 205.614C295.31 205.294 296.101 205.126 296.902 205.122C297.702 205.117 298.495 205.276 299.229 205.588C303.595 207.66 305.011 216.12 304.375 220.321C304.375 220.548 303.739 222.847 303.277 224.494C303.739 223.614 304.231 222.705 304.664 221.825C306.254 218.589 307.555 215.552 308.596 212.827C309.203 211.266 309.694 209.988 310.186 208.54C308.151 205.266 306.64 201.705 305.705 197.98C305.388 196.308 305.44 194.588 305.859 192.938C306.278 191.287 307.054 189.745 308.133 188.414C308.712 187.871 309.399 187.451 310.151 187.182C310.903 186.913 311.705 186.8 312.504 186.85C313.303 186.901 314.082 187.114 314.793 187.476C315.504 187.838 316.13 188.341 316.632 188.953C319.523 192.757 316.632 200.876 314.262 204.339C314.06 204.623 310.128 208.909 310.07 208.853C309.637 210.13 309.174 211.493 308.625 212.997C307.584 215.836 306.399 218.816 304.867 222.109C303.278 225.672 301.463 229.132 299.432 232.471C297.199 236.229 294.625 239.783 291.742 243.087C292.927 242.349 296.367 240.419 296.657 240.249C300.617 238.574 309.29 237.637 312.47 241.214C312.97 241.826 313.336 242.533 313.544 243.291C313.753 244.049 313.798 244.842 313.679 245.618C313.559 246.394 313.277 247.138 312.85 247.802C312.423 248.465 311.86 249.035 311.198 249.474C309.67 250.284 307.981 250.756 306.249 250.859C304.516 250.962 302.782 250.693 301.166 250.07C297.582 248.334 294.28 246.086 291.366 243.399C288.355 246.695 285.119 249.787 281.682 252.654C279.687 254.328 277.635 255.975 275.553 257.593L277.721 256.401C281.682 254.726 290.355 253.789 293.534 257.366C294.035 257.978 294.401 258.685 294.609 259.444C294.817 260.202 294.863 260.994 294.744 261.77C294.624 262.546 294.342 263.29 293.915 263.954C293.488 264.618 292.925 265.187 292.262 265.626C290.735 266.436 289.046 266.908 287.314 267.011C285.581 267.114 283.847 266.845 282.231 266.223C278.731 264.571 275.513 262.398 272.691 259.779L270.263 261.624C266.389 264.463 262.516 267.301 258.7 270.367C257.399 271.417 256.127 272.496 254.884 273.546L256.763 272.524C260.723 270.85 269.396 269.913 272.576 273.49C273.081 274.102 273.451 274.812 273.662 275.573C273.873 276.334 273.92 277.13 273.8 277.909C273.681 278.689 273.397 279.436 272.967 280.102C272.537 280.768 271.971 281.339 271.304 281.779C269.769 282.583 268.076 283.053 266.34 283.156C264.604 283.259 262.865 282.992 261.244 282.375C257.837 280.77 254.706 278.653 251.964 276.101C250.692 277.237 249.449 278.372 248.292 279.536C247.136 280.7 246.703 281.069 245.98 281.921L243.754 284.362C242.395 285.98 241.008 287.626 239.736 289.244C238.839 290.351 238.001 291.43 237.163 292.509C238.464 291.459 241.036 289.443 241.268 289.301C244.939 287.059 253.351 284.844 257.052 287.91C257.639 288.442 258.107 289.087 258.427 289.805C258.748 290.523 258.913 291.299 258.913 292.083C258.913 292.867 258.748 293.643 258.427 294.361C258.107 295.079 257.639 295.724 257.052 296.256C255.662 297.286 254.06 298.007 252.358 298.37C250.656 298.733 248.894 298.728 247.194 298.357C243.405 297.191 239.818 295.468 236.556 293.247C235.168 295.035 233.838 296.795 232.595 298.47C228.346 304.147 224.992 309.257 222.708 312.664L222.477 313.004L219.586 311.613L220.049 310.932C222.448 307.412 225.831 302.416 230.369 296.739C231.757 294.922 233.26 292.991 234.879 291.061C233.251 289.253 231.726 287.357 230.311 285.384C226.596 286.346 222.764 286.805 218.921 286.746C218.777 288.989 218.632 291.175 218.546 293.247C218.257 300.4 218.285 306.362 218.343 310.535V311.017L215.105 309.484C215.105 305.34 215.25 299.719 215.684 293.105C215.684 290.806 216.031 288.393 216.262 285.895C212.387 285.019 208.665 283.584 205.219 281.637C203.795 280.664 202.604 279.399 201.731 277.928C200.857 276.457 200.321 274.816 200.16 273.121C200.157 272.333 200.321 271.553 200.642 270.83C200.963 270.108 201.433 269.459 202.023 268.925C202.613 268.391 203.31 267.984 204.069 267.729C204.828 267.473 205.633 267.376 206.433 267.443C211.232 268.039 215.25 275.647 216.059 279.792C216.059 280.047 216.291 282.772 216.406 284.504C216.406 283.482 216.58 282.488 216.695 281.438C216.898 279.366 217.187 277.293 217.476 275.079L217.996 271.843C218.17 270.736 218.459 269.629 218.69 268.494C219.268 265.939 219.991 263.327 220.772 260.744C216.921 260.483 213.136 259.63 209.555 258.217C207.997 257.467 206.624 256.393 205.531 255.069C204.437 253.746 203.65 252.205 203.224 250.553C203.102 249.774 203.147 248.979 203.355 248.217C203.563 247.456 203.93 246.746 204.433 246.132C204.936 245.517 205.564 245.013 206.277 244.65C206.989 244.287 207.771 244.074 208.572 244.024C213.4 244.024 218.546 250.837 219.962 254.839C219.962 255.095 220.743 258.076 221.118 259.722C221.581 258.161 222.072 256.599 222.593 255.067C224.154 250.553 225.888 246.068 227.565 241.583C228.085 240.192 228.606 238.744 229.097 237.438C225.135 237.154 221.238 236.293 217.534 234.883C215.974 234.128 214.599 233.049 213.506 231.721C212.413 230.393 211.627 228.847 211.203 227.191C211.085 226.414 211.133 225.621 211.343 224.863C211.553 224.106 211.921 223.399 212.424 222.788C212.927 222.177 213.553 221.675 214.263 221.314C214.974 220.953 215.753 220.74 216.551 220.69C221.379 220.69 226.524 227.474 227.97 231.477C227.97 231.789 229.068 236.076 229.242 237.154C230.369 234.117 231.439 231.108 232.393 228.071C233.69 223.977 234.714 219.805 235.457 215.58C231.492 215.294 227.594 214.423 223.894 212.997C222.33 212.255 220.952 211.183 219.858 209.858C218.763 208.534 217.98 206.988 217.563 205.333C217.445 204.556 217.493 203.763 217.703 203.006C217.913 202.248 218.281 201.541 218.784 200.93C219.287 200.319 219.913 199.817 220.623 199.456C221.334 199.095 222.113 198.882 222.911 198.832C227.738 198.832 232.884 205.617 234.301 209.619C234.301 209.903 235.168 213.167 235.486 214.729H235.746C236.39 210.464 236.641 206.15 236.498 201.841C236.498 199.457 236.267 197.186 236.035 195C232.136 195.138 228.238 194.697 224.472 193.694C222.838 193.115 221.353 192.192 220.119 190.991C218.886 189.79 217.935 188.339 217.331 186.739C217.127 185.979 217.086 185.186 217.211 184.409C217.335 183.632 217.623 182.89 218.055 182.228C218.487 181.566 219.054 181 219.721 180.564C220.388 180.129 221.139 179.834 221.928 179.699C226.698 179.075 232.595 185.377 234.474 189.209C234.474 189.408 235.341 191.65 235.92 193.268C235.775 192.275 235.688 191.253 235.544 190.43C235.052 186.853 234.387 183.645 233.78 180.778C233.405 179.16 233.029 177.684 232.682 176.35C229.154 174.699 225.899 172.537 223.026 169.934C221.847 168.682 220.96 167.193 220.426 165.571C219.892 163.948 219.724 162.231 219.933 160.538C220.123 159.795 220.464 159.097 220.936 158.487C221.408 157.877 222.001 157.367 222.679 156.988C223.357 156.608 224.106 156.368 224.881 156.28C225.656 156.193 226.441 156.26 227.189 156.479Z" fill="#40AF92"/>
<path d="M314.522 229.661C310.567 228.903 306.748 227.573 303.19 225.715C303.19 225.715 307.266 221.57 307.555 221.343C310.937 218.703 319.119 215.666 323.05 218.192C323.698 218.652 324.241 219.238 324.647 219.914C325.052 220.589 325.31 221.34 325.405 222.119C325.501 222.898 325.43 223.688 325.199 224.439C324.968 225.189 324.581 225.885 324.062 226.481C322.804 227.662 321.298 228.558 319.65 229.108C318.002 229.657 316.252 229.846 314.522 229.661Z" fill="#40AF92"/>
<path d="M270.552 322.571C270.552 322.571 247.425 268.295 234.647 270.736C221.87 273.177 256.647 357.26 256.647 357.26C256.647 357.26 216.319 282.545 188.798 282.545C161.277 282.545 198.887 365.151 233.722 392.658C233.722 392.658 178.796 334.465 146.621 347.04C114.445 359.616 210.798 418.632 210.798 418.632C210.798 418.632 154.918 401.316 161.277 414.601C167.637 427.886 185.127 430.356 185.127 430.356L121.875 433.478H341.927L292.407 428.766C292.407 428.766 343.777 403.587 329.988 393.368C316.198 383.148 285.96 405.177 285.96 405.177C285.96 405.177 338.227 348.545 328.138 327.311C318.049 306.078 273.211 365.832 273.211 365.832C273.211 365.832 309.896 289.528 302.554 276.158C295.211 262.788 270.552 322.571 270.552 322.571Z" fill="#40AF92"/>
<path d="M277.751 325.437C257.515 383.97 257.515 425.387 257.515 425.387C257.515 425.387 281.364 426.295 306.11 408.355" stroke="#263238" stroke-linecap="round" stroke-linejoin="round"/>
<path d="M267.661 356.948C263.497 339.452 257.979 322.294 251.154 305.624" stroke="#263238" stroke-linecap="round" stroke-linejoin="round"/>
<path d="M208.049 322.743L259.391 397.486C259.391 397.486 294.255 368.673 306.165 352.464" stroke="#263238" stroke-linecap="round" stroke-linejoin="round"/>
<path d="M258.496 415.507C258.496 415.507 204.379 390.3 182.379 375.766" stroke="#263238" stroke-linecap="round" stroke-linejoin="round"/>
</g>
<defs>
<clipPath id="clip0_1441_3718">
<rect width="325" height="410" fill="white"/>
</clipPath>
</defs>
</svg>
