<svg width="2523" height="3362" viewBox="0 0 2523 3362" fill="none" xmlns="http://www.w3.org/2000/svg">
<path d="M1195 4.99951H1882.5V780C1518 729 1231 363 1195 4.99951Z" fill="#ECF7F5" stroke="#ECF7F5"/>
<path d="M1883 9.99951H1095.01C1055.63 105.263 1603.93 191.692 1883 223V9.99951Z" fill="#40AF92" fill-opacity="0.1" stroke="#E8F5F2"/>
<path d="M465.99 1630.71H373.15H210.69C148.276 1630.71 90.3046 1597.8 57.4432 1543.7L16.3241 1476.01C-17.3072 1420.65 2.86883 1347.8 59.9357 1318.55C111.549 1292.09 133.871 1229.11 110.773 1175.13L94.3307 1136.7C70.0271 1079.9 81.2021 1013.81 122.757 968.58L194.883 890.077C271.169 807.048 399.739 804.907 478.644 885.352L568.667 977.133C580.361 989.054 598.541 991.258 612.65 982.465C635.305 968.348 664.62 983.399 666.978 1010.36L678.15 1137.98C680.608 1166.05 693.075 1192.21 715.174 1209.15C758.767 1242.57 818.904 1283.74 829.904 1311.14C907.439 1504.2 670.635 1630.71 465.99 1630.71Z" fill="url(#paint0_linear_989_6010)"/>
<path d="M2143.92 3361.32H2051.08H1888.62C1826.21 3361.32 1768.24 3328.41 1735.37 3274.32L1694.25 3206.63C1660.62 3151.27 1680.8 3078.42 1737.87 3049.16C1789.48 3022.7 1811.8 2959.73 1788.7 2905.75L1772.26 2867.32C1747.96 2810.52 1759.13 2744.42 1800.69 2699.2L1872.81 2620.69C1949.1 2537.66 2077.67 2535.52 2156.57 2615.97L2246.6 2707.75C2258.29 2719.67 2276.47 2721.87 2290.58 2713.08C2313.24 2698.96 2342.55 2714.01 2344.91 2740.97L2356.08 2868.59C2358.54 2896.67 2371.01 2922.83 2393.1 2939.77C2436.7 2973.19 2496.83 3014.36 2507.83 3041.75C2585.37 3234.82 2348.57 3361.32 2143.92 3361.32Z" fill="url(#paint1_linear_989_6010)"/>
<path d="M796.439 0H592.591V335C751.232 287 734.499 225.333 706.302 200.5C634.193 163.7 618.014 129.833 618.939 117.5C623.007 41.9 738.967 7.66667 796.439 0Z" fill="#40AF92" fill-opacity="0.1"/>
<path d="M1198.02 2950.15C925.182 2830.82 646.991 2828.01 542 2841.52V3086.85L1198.02 3124.27V2950.15Z" fill="#40AF92" fill-opacity="0.2"/>
<path d="M1440.48 2868.29C1226.99 2966.65 752.219 2911.61 542 2876.55V3294H1899.28V2876.55C1816.4 2769.22 1559.2 2829.49 1440.48 2868.29Z" fill="url(#paint2_linear_989_6010)"/>
<path d="M1902.57 3303.48V3207.69C1905.87 3203.09 1891.45 3206.59 1807.38 3257.43C1723.3 3308.27 1599.86 3278.61 1548.65 3257.43C1466.08 3240.48 1426.9 3281.07 1417.63 3303.48H1902.57Z" fill="#40AF92" fill-opacity="0.2" stroke="#E8F5F2"/>
<path d="M1689.85 3271.38C1689.85 3271.38 1711.06 3273.2 1721.8 3284.55C1721.8 3284.55 1733.15 3271.39 1753.53 3271.67C1758.51 3266.48 1761.69 3260.17 1762.68 3253.49C1763.67 3246.8 1762.45 3240 1759.14 3233.89C1755.84 3227.78 1750.6 3222.61 1744.02 3218.98C1737.44 3215.34 1729.81 3213.4 1722 3213.37C1714.19 3213.33 1706.54 3215.22 1699.92 3218.8C1693.31 3222.38 1688.01 3227.51 1684.64 3233.6C1681.27 3239.68 1679.97 3246.46 1680.89 3253.16C1681.82 3259.86 1684.92 3266.19 1689.85 3271.42V3271.38Z" fill="#40AF92"/>
<path opacity="0.3" d="M1689.85 3271.38C1689.85 3271.38 1711.06 3273.2 1721.8 3284.55C1721.8 3284.55 1733.15 3271.39 1753.53 3271.67C1758.51 3266.48 1761.69 3260.17 1762.68 3253.49C1763.67 3246.8 1762.45 3240 1759.14 3233.89C1755.84 3227.78 1750.6 3222.61 1744.02 3218.98C1737.44 3215.34 1729.81 3213.4 1722 3213.37C1714.19 3213.33 1706.54 3215.22 1699.92 3218.8C1693.31 3222.38 1688.01 3227.51 1684.64 3233.6C1681.27 3239.68 1679.97 3246.46 1680.89 3253.16C1681.82 3259.86 1684.92 3266.19 1689.85 3271.42V3271.38Z" fill="white"/>
<path d="M1721.09 3215.89L1720.37 3307.65H1723.96L1721.09 3215.89Z" fill="#263238"/>
<path d="M1722.17 3281.09C1722.17 3281.09 1729.32 3269.96 1742.21 3266.56C1742.21 3266.56 1728.61 3269.35 1721.81 3278.92L1722.17 3281.09Z" fill="#263238"/>
<path d="M1722.17 3249.57C1722.17 3249.57 1729.32 3238.45 1742.21 3235.04C1742.21 3235.04 1728.61 3237.82 1721.81 3247.41L1722.17 3249.57Z" fill="#263238"/>
<path d="M1722.17 3265.29C1722.17 3265.29 1729.32 3254.16 1742.21 3250.76C1742.21 3250.76 1728.61 3253.55 1721.81 3263.12L1722.17 3265.29Z" fill="#263238"/>
<path d="M1721.11 3257.66C1721.11 3257.66 1714.21 3246.54 1701.77 3243.14C1701.77 3243.14 1714.9 3245.92 1721.45 3255.5L1721.11 3257.66Z" fill="#263238"/>
<path d="M1721.11 3273.04C1721.11 3273.04 1714.21 3261.92 1701.77 3258.53C1701.77 3258.53 1714.9 3261.31 1721.45 3270.88L1721.11 3273.04Z" fill="#263238"/>
<path d="M1755.59 3264.43C1755.59 3264.43 1780.84 3266.59 1793.66 3280.11C1793.66 3280.11 1807.18 3264.44 1831.48 3264.76C1837.41 3258.57 1841.18 3251.06 1842.36 3243.09C1843.54 3235.12 1842.08 3227.03 1838.14 3219.76C1834.2 3212.48 1827.95 3206.32 1820.11 3201.99C1812.28 3197.67 1803.18 3195.35 1793.88 3195.32C1784.58 3195.28 1775.46 3197.53 1767.59 3201.79C1759.71 3206.06 1753.39 3212.17 1749.38 3219.41C1745.37 3226.66 1743.82 3234.74 1744.91 3242.71C1746.01 3250.69 1749.71 3258.23 1755.57 3264.46L1755.59 3264.43Z" fill="#40AF92"/>
<path opacity="0.5" d="M1755.59 3264.43C1755.59 3264.43 1780.84 3266.59 1793.66 3280.11C1793.66 3280.11 1807.18 3264.44 1831.48 3264.76C1837.41 3258.57 1841.18 3251.06 1842.36 3243.09C1843.54 3235.12 1842.08 3227.03 1838.14 3219.76C1834.2 3212.48 1827.95 3206.32 1820.11 3201.99C1812.28 3197.67 1803.18 3195.35 1793.88 3195.32C1784.58 3195.28 1775.46 3197.53 1767.59 3201.79C1759.71 3206.06 1753.39 3212.17 1749.38 3219.41C1745.37 3226.66 1743.82 3234.74 1744.91 3242.71C1746.01 3250.69 1749.71 3258.23 1755.57 3264.46L1755.59 3264.43Z" fill="white"/>
<path d="M1792.82 3198.28L1791.97 3307.65H1796.24L1792.82 3198.28Z" fill="#263238"/>
<path d="M1794.1 3275.99C1794.1 3275.99 1802.62 3262.74 1817.97 3258.68C1817.97 3258.68 1801.78 3262 1793.67 3273.41L1794.1 3275.99Z" fill="#263238"/>
<path d="M1794.1 3238.42C1794.1 3238.42 1802.62 3225.16 1817.97 3221.11C1817.97 3221.11 1801.78 3224.43 1793.67 3235.84L1794.1 3238.42Z" fill="#263238"/>
<path d="M1794.1 3257.21C1794.1 3257.21 1802.62 3243.95 1817.97 3239.9C1817.97 3239.9 1801.78 3243.21 1793.67 3254.63L1794.1 3257.21Z" fill="#263238"/>
<path d="M1792.83 3248C1792.83 3248 1784.61 3234.75 1769.79 3230.69C1769.79 3230.69 1785.43 3234.01 1793.25 3245.42L1792.83 3248Z" fill="#263238"/>
<path d="M1792.83 3266.41C1792.83 3266.41 1784.61 3253.15 1769.79 3249.1C1769.79 3249.1 1785.43 3252.42 1793.25 3263.83L1792.83 3266.41Z" fill="#263238"/>
<path d="M1823.42 3277.06C1823.42 3277.06 1841.31 3278.58 1850.36 3288.16C1853.62 3284.75 1857.71 3282.01 1862.34 3280.13C1866.97 3278.25 1872.03 3277.28 1877.15 3277.29C1881.35 3272.91 1884.02 3267.59 1884.86 3261.95C1885.69 3256.3 1884.66 3250.57 1881.87 3245.42C1879.08 3240.27 1874.65 3235.91 1869.1 3232.84C1863.56 3229.78 1857.11 3228.14 1850.53 3228.12C1843.94 3228.09 1837.49 3229.68 1831.91 3232.7C1826.33 3235.73 1821.86 3240.05 1819.02 3245.18C1816.18 3250.32 1815.08 3256.04 1815.86 3261.69C1816.64 3267.33 1819.26 3272.67 1823.42 3277.08V3277.06Z" fill="#40AF92"/>
<path opacity="0.5" d="M1823.42 3277.06C1823.42 3277.06 1841.31 3278.58 1850.36 3288.16C1853.62 3284.75 1857.71 3282.01 1862.34 3280.13C1866.97 3278.25 1872.03 3277.28 1877.15 3277.29C1881.35 3272.91 1884.02 3267.59 1884.86 3261.95C1885.69 3256.3 1884.66 3250.57 1881.87 3245.42C1879.08 3240.27 1874.65 3235.91 1869.1 3232.84C1863.56 3229.78 1857.11 3228.14 1850.53 3228.12C1843.94 3228.09 1837.49 3229.68 1831.91 3232.7C1826.33 3235.73 1821.86 3240.05 1819.02 3245.18C1816.18 3250.32 1815.08 3256.04 1815.86 3261.69C1816.64 3267.33 1819.26 3272.67 1823.42 3277.08V3277.06Z" fill="white"/>
<path d="M1849.77 3230.24L1849.17 3307.65H1852.19L1849.77 3230.24Z" fill="#263238"/>
<path d="M1850.69 3285.25C1850.69 3285.25 1856.72 3275.85 1867.58 3272.99C1867.58 3272.99 1856.12 3275.33 1850.38 3283.41L1850.69 3285.25Z" fill="#263238"/>
<path d="M1850.69 3258.66C1850.69 3258.66 1856.72 3249.26 1867.58 3246.4C1867.58 3246.4 1856.12 3248.74 1850.38 3256.83L1850.69 3258.66Z" fill="#263238"/>
<path d="M1850.69 3271.95C1850.69 3271.95 1856.72 3262.56 1867.58 3259.7C1867.58 3259.7 1856.12 3262.04 1850.38 3270.12L1850.69 3271.95Z" fill="#263238"/>
<path d="M1849.79 3265.43C1849.79 3265.43 1843.9 3256.05 1833.48 3253.18C1833.48 3253.18 1844.55 3255.53 1850.08 3263.6L1849.79 3265.43Z" fill="#263238"/>
<path d="M1849.79 3278.46C1849.79 3278.46 1843.9 3269.08 1833.48 3266.21C1833.48 3266.21 1844.55 3268.56 1850.08 3276.64L1849.79 3278.46Z" fill="#263238"/>
<path d="M552.926 3266.7C552.926 3266.7 577.969 3268.85 590.665 3282.26C590.665 3282.26 604.091 3266.72 628.177 3267.05C634.067 3260.91 637.817 3253.46 638.993 3245.56C640.168 3237.65 638.719 3229.63 634.815 3222.41C630.911 3215.19 624.712 3209.07 616.941 3204.78C609.17 3200.48 600.146 3198.18 590.92 3198.15C581.694 3198.11 572.645 3200.34 564.828 3204.57C557.011 3208.8 550.748 3214.87 546.767 3222.05C542.785 3229.24 541.251 3237.26 542.341 3245.17C543.432 3253.08 547.103 3260.57 552.926 3266.75V3266.7Z" fill="#40AF92"/>
<path opacity="0.3" d="M552.926 3266.7C552.926 3266.7 577.969 3268.85 590.665 3282.26C590.665 3282.26 604.091 3266.72 628.177 3267.05C634.067 3260.91 637.817 3253.46 638.993 3245.56C640.168 3237.65 638.719 3229.63 634.815 3222.41C630.911 3215.19 624.712 3209.07 616.941 3204.78C609.17 3200.48 600.146 3198.18 590.92 3198.15C581.694 3198.11 572.645 3200.34 564.828 3204.57C557.011 3208.8 550.748 3214.87 546.767 3222.05C542.785 3229.24 541.251 3237.26 542.341 3245.17C543.432 3253.08 547.103 3260.57 552.926 3266.75V3266.7Z" fill="white"/>
<path d="M589.848 3201.12L588.996 3309.57H593.222L589.848 3201.12Z" fill="#263238"/>
<path d="M591.065 3278.18C591.065 3278.18 599.517 3265.02 614.734 3261.01C614.734 3261.01 598.664 3264.3 590.63 3275.61L591.065 3278.18Z" fill="#263238"/>
<path d="M591.065 3240.93C591.065 3240.93 599.517 3227.79 614.734 3223.76C614.734 3223.76 598.664 3227.05 590.63 3238.37L591.065 3240.93Z" fill="#263238"/>
<path d="M591.065 3259.51C591.065 3259.51 599.517 3246.35 614.734 3242.34C614.734 3242.34 598.664 3245.63 590.63 3256.94L591.065 3259.51Z" fill="#263238"/>
<path d="M589.866 3250.5C589.866 3250.5 581.692 3237.35 567.014 3233.33C567.014 3233.33 582.51 3236.62 590.266 3247.94L589.866 3250.5Z" fill="#263238"/>
<path d="M589.866 3268.67C589.866 3268.67 581.692 3255.53 567.014 3251.52C567.014 3251.52 582.51 3254.81 590.266 3266.12L589.866 3268.67Z" fill="#263238"/>
<path d="M602.544 3252.16C602.544 3252.16 636.091 3255 653.082 3273.03C653.082 3273.03 671.047 3252.22 703.307 3252.64C711.174 3244.43 716.177 3234.45 717.736 3223.87C719.294 3213.29 717.343 3202.55 712.11 3192.89C706.877 3183.24 698.577 3175.06 688.175 3169.32C677.773 3163.58 665.697 3160.5 653.351 3160.45C641.005 3160.41 628.898 3163.39 618.437 3169.05C607.975 3174.71 599.591 3182.82 594.257 3192.44C588.924 3202.05 586.862 3212.78 588.31 3223.37C589.759 3233.96 594.659 3243.98 602.44 3252.25L602.544 3252.16Z" fill="#40AF92"/>
<path opacity="0.5" d="M602.544 3252.16C602.544 3252.16 636.091 3255 653.082 3273.03C653.082 3273.03 671.047 3252.22 703.307 3252.64C711.174 3244.43 716.177 3234.45 717.736 3223.87C719.294 3213.29 717.343 3202.55 712.11 3192.89C706.877 3183.24 698.577 3175.06 688.175 3169.32C677.773 3163.58 665.697 3160.5 653.351 3160.45C641.005 3160.41 628.898 3163.39 618.437 3169.05C607.975 3174.71 599.591 3182.82 594.257 3192.44C588.924 3202.05 586.862 3212.78 588.31 3223.37C589.759 3233.96 594.659 3243.98 602.44 3252.25L602.544 3252.16Z" fill="white"/>
<path d="M651.968 3164.34L650.837 3309.57H656.507L651.968 3164.34Z" fill="#263238"/>
<path d="M653.673 3267.53C653.673 3267.53 664.995 3249.92 685.377 3244.53C685.377 3244.53 663.865 3248.93 653.1 3264.06L653.673 3267.53Z" fill="#263238"/>
<path d="M653.673 3217.65C653.673 3217.65 664.995 3200.04 685.377 3194.67C685.377 3194.67 663.865 3199.07 653.1 3214.19L653.673 3217.65Z" fill="#263238"/>
<path d="M653.673 3242.58C653.673 3242.58 664.995 3224.98 685.377 3219.6C685.377 3219.6 663.865 3224 653.1 3239.13L653.673 3242.58Z" fill="#263238"/>
<path d="M651.933 3230.35C651.933 3230.35 641.012 3212.75 621.343 3207.37C621.343 3207.37 642.108 3211.77 652.49 3226.9L651.933 3230.35Z" fill="#263238"/>
<path d="M651.933 3254.81C651.933 3254.81 641.012 3237.2 621.343 3231.83C621.343 3231.83 642.108 3236.23 652.49 3251.35L651.933 3254.81Z" fill="#263238"/>
<defs>
<linearGradient id="paint0_linear_989_6010" x1="690.242" y1="1167.37" x2="79.5069" y2="1551.87" gradientUnits="userSpaceOnUse">
<stop stop-color="#EBF0FB"/>
<stop offset="1" stop-color="#EFFBFC"/>
</linearGradient>
<linearGradient id="paint1_linear_989_6010" x1="2368.17" y1="2897.98" x2="1757.44" y2="3282.49" gradientUnits="userSpaceOnUse">
<stop stop-color="#EBF0FB"/>
<stop offset="1" stop-color="#EFFBFC"/>
</linearGradient>
<linearGradient id="paint2_linear_989_6010" x1="1220.88" y1="2815.94" x2="1220.65" y2="3294" gradientUnits="userSpaceOnUse">
<stop stop-color="#D2ECE6"/>
<stop offset="1" stop-color="#FEFEFE"/>
</linearGradient>
</defs>
</svg>
