<svg width="769" height="699" viewBox="0 0 769 699" fill="none" xmlns="http://www.w3.org/2000/svg">
<path d="M750.586 414.277C728.657 480.744 681.404 553.616 611.848 577.332C506.775 613.191 497.347 699.36 306.69 698.774C278.849 698.812 251.085 695.831 223.887 689.883C210.589 686.927 197.493 683.126 184.679 678.504C71.7061 637.753 9.85532 540.84 0.996276 437.278C-10.6261 301.06 82.0606 232.35 142.416 191.826C202.771 151.301 271.693 0.908971 459.18 0.0149385C487.8 -0.241627 516.354 2.80744 544.275 9.10156C607.93 23.7312 673.439 58.9561 712.792 112.647C715.735 116.678 718.563 120.774 721.294 125.033C774.432 207.658 780.495 323.638 750.586 414.277Z" fill="#F4FAFB"/>
</svg>
