<svg width="2523" height="4021" viewBox="0 0 2523 4021" fill="none" xmlns="http://www.w3.org/2000/svg">
<path d="M1195 4.99951H1882.5V780C1518 729 1231 363 1195 4.99951Z" fill="#ECF7F5" stroke="#ECF7F5"/>
<path d="M1883 9.99951H1095.01C1055.63 105.263 1603.93 191.692 1883 223V9.99951Z" fill="#40AF92" fill-opacity="0.1" stroke="#E8F5F2"/>
<path d="M465.99 1630.71H373.15H210.69C148.276 1630.71 90.3046 1597.8 57.4432 1543.7L16.3241 1476.01C-17.3072 1420.65 2.86883 1347.8 59.9357 1318.55C111.549 1292.09 133.871 1229.11 110.773 1175.13L94.3307 1136.7C70.0271 1079.9 81.2021 1013.81 122.757 968.58L194.883 890.077C271.169 807.048 399.739 804.907 478.644 885.352L568.667 977.133C580.361 989.054 598.541 991.258 612.65 982.465C635.305 968.348 664.62 983.399 666.978 1010.36L678.15 1137.98C680.608 1166.05 693.075 1192.21 715.174 1209.15C758.767 1242.57 818.904 1283.74 829.904 1311.14C907.439 1504.2 670.635 1630.71 465.99 1630.71Z" fill="url(#paint0_linear_879_5901)"/>
<path d="M2143.92 3361.32H2051.08H1888.62C1826.21 3361.32 1768.24 3328.41 1735.37 3274.32L1694.25 3206.63C1660.62 3151.27 1680.8 3078.42 1737.87 3049.16C1789.48 3022.7 1811.8 2959.73 1788.7 2905.75L1772.26 2867.32C1747.96 2810.52 1759.13 2744.42 1800.69 2699.2L1872.81 2620.69C1949.1 2537.66 2077.67 2535.52 2156.57 2615.97L2246.6 2707.75C2258.29 2719.67 2276.47 2721.87 2290.58 2713.08C2313.24 2698.96 2342.55 2714.01 2344.91 2740.97L2356.08 2868.59C2358.54 2896.67 2371.01 2922.83 2393.1 2939.77C2436.7 2973.19 2496.83 3014.36 2507.83 3041.75C2585.37 3234.82 2348.57 3361.32 2143.92 3361.32Z" fill="url(#paint1_linear_879_5901)"/>
<path d="M796.439 0H592.591V335C751.232 287 734.499 225.333 706.302 200.5C634.193 163.7 618.014 129.833 618.939 117.5C623.007 41.9 738.967 7.66667 796.439 0Z" fill="#40AF92" fill-opacity="0.1"/>
<path d="M1225.02 3661.15C952.182 3541.82 673.991 3539.01 569 3552.52V3797.85L1225.02 3835.27V3661.15Z" fill="#40AF92" fill-opacity="0.2"/>
<path d="M1467.48 3579.29C1253.99 3677.65 779.219 3622.61 569 3587.55V4005H1926.28V3587.55C1843.4 3480.22 1586.2 3540.49 1467.48 3579.29Z" fill="url(#paint2_linear_879_5901)"/>
<path d="M1929.57 4014.48V3918.69C1932.87 3914.09 1918.45 3917.59 1834.38 3968.43C1750.3 4019.27 1626.86 3989.61 1575.65 3968.43C1493.08 3951.48 1453.9 3992.07 1444.63 4014.48H1929.57Z" fill="#40AF92" fill-opacity="0.2" stroke="#E8F5F2"/>
<path d="M1716.85 3982.38C1716.85 3982.38 1738.06 3984.2 1748.8 3995.55C1748.8 3995.55 1760.15 3982.39 1780.53 3982.67C1785.51 3977.48 1788.69 3971.17 1789.68 3964.49C1790.67 3957.8 1789.45 3951 1786.14 3944.89C1782.84 3938.78 1777.6 3933.61 1771.02 3929.98C1764.44 3926.34 1756.81 3924.4 1749 3924.37C1741.19 3924.33 1733.54 3926.22 1726.92 3929.8C1720.31 3933.38 1715.01 3938.51 1711.64 3944.6C1708.27 3950.68 1706.97 3957.46 1707.89 3964.16C1708.82 3970.86 1711.92 3977.19 1716.85 3982.42V3982.38Z" fill="#40AF92"/>
<path opacity="0.3" d="M1716.85 3982.38C1716.85 3982.38 1738.06 3984.2 1748.8 3995.55C1748.8 3995.55 1760.15 3982.39 1780.53 3982.67C1785.51 3977.48 1788.69 3971.17 1789.68 3964.49C1790.67 3957.8 1789.45 3951 1786.14 3944.89C1782.84 3938.78 1777.6 3933.61 1771.02 3929.98C1764.44 3926.34 1756.81 3924.4 1749 3924.37C1741.19 3924.33 1733.54 3926.22 1726.92 3929.8C1720.31 3933.38 1715.01 3938.51 1711.64 3944.6C1708.27 3950.68 1706.97 3957.46 1707.89 3964.16C1708.82 3970.86 1711.92 3977.19 1716.85 3982.42V3982.38Z" fill="white"/>
<path d="M1748.09 3926.89L1747.37 4018.65H1750.96L1748.09 3926.89Z" fill="#263238"/>
<path d="M1749.17 3992.09C1749.17 3992.09 1756.32 3980.96 1769.21 3977.56C1769.21 3977.56 1755.61 3980.35 1748.81 3989.92L1749.17 3992.09Z" fill="#263238"/>
<path d="M1749.17 3960.57C1749.17 3960.57 1756.32 3949.45 1769.21 3946.04C1769.21 3946.04 1755.61 3948.82 1748.81 3958.41L1749.17 3960.57Z" fill="#263238"/>
<path d="M1749.17 3976.29C1749.17 3976.29 1756.32 3965.16 1769.21 3961.76C1769.21 3961.76 1755.61 3964.55 1748.81 3974.12L1749.17 3976.29Z" fill="#263238"/>
<path d="M1748.11 3968.66C1748.11 3968.66 1741.21 3957.54 1728.77 3954.14C1728.77 3954.14 1741.9 3956.92 1748.45 3966.5L1748.11 3968.66Z" fill="#263238"/>
<path d="M1748.11 3984.04C1748.11 3984.04 1741.21 3972.92 1728.77 3969.53C1728.77 3969.53 1741.9 3972.31 1748.45 3981.88L1748.11 3984.04Z" fill="#263238"/>
<path d="M1782.59 3975.43C1782.59 3975.43 1807.84 3977.59 1820.66 3991.11C1820.66 3991.11 1834.18 3975.44 1858.48 3975.76C1864.41 3969.57 1868.18 3962.06 1869.36 3954.09C1870.54 3946.12 1869.08 3938.03 1865.14 3930.76C1861.2 3923.48 1854.95 3917.32 1847.11 3912.99C1839.28 3908.67 1830.18 3906.35 1820.88 3906.32C1811.58 3906.28 1802.46 3908.53 1794.59 3912.79C1786.71 3917.06 1780.39 3923.17 1776.38 3930.41C1772.37 3937.66 1770.82 3945.74 1771.91 3953.71C1773.01 3961.69 1776.71 3969.23 1782.57 3975.46L1782.59 3975.43Z" fill="#40AF92"/>
<path opacity="0.5" d="M1782.59 3975.43C1782.59 3975.43 1807.84 3977.59 1820.66 3991.11C1820.66 3991.11 1834.18 3975.44 1858.48 3975.76C1864.41 3969.57 1868.18 3962.06 1869.36 3954.09C1870.54 3946.12 1869.08 3938.03 1865.14 3930.76C1861.2 3923.48 1854.95 3917.32 1847.11 3912.99C1839.28 3908.67 1830.18 3906.35 1820.88 3906.32C1811.58 3906.28 1802.46 3908.53 1794.59 3912.79C1786.71 3917.06 1780.39 3923.17 1776.38 3930.41C1772.37 3937.66 1770.82 3945.74 1771.91 3953.71C1773.01 3961.69 1776.71 3969.23 1782.57 3975.46L1782.59 3975.43Z" fill="white"/>
<path d="M1819.82 3909.28L1818.97 4018.65H1823.24L1819.82 3909.28Z" fill="#263238"/>
<path d="M1821.1 3986.99C1821.1 3986.99 1829.62 3973.74 1844.97 3969.68C1844.97 3969.68 1828.78 3973 1820.67 3984.41L1821.1 3986.99Z" fill="#263238"/>
<path d="M1821.1 3949.42C1821.1 3949.42 1829.62 3936.16 1844.97 3932.11C1844.97 3932.11 1828.78 3935.43 1820.67 3946.84L1821.1 3949.42Z" fill="#263238"/>
<path d="M1821.1 3968.21C1821.1 3968.21 1829.62 3954.95 1844.97 3950.9C1844.97 3950.9 1828.78 3954.21 1820.67 3965.63L1821.1 3968.21Z" fill="#263238"/>
<path d="M1819.83 3959C1819.83 3959 1811.61 3945.75 1796.79 3941.69C1796.79 3941.69 1812.43 3945.01 1820.25 3956.42L1819.83 3959Z" fill="#263238"/>
<path d="M1819.83 3977.41C1819.83 3977.41 1811.61 3964.15 1796.79 3960.1C1796.79 3960.1 1812.43 3963.42 1820.25 3974.83L1819.83 3977.41Z" fill="#263238"/>
<path d="M1850.42 3988.06C1850.42 3988.06 1868.31 3989.58 1877.36 3999.16C1880.62 3995.75 1884.71 3993.01 1889.34 3991.13C1893.97 3989.25 1899.03 3988.28 1904.15 3988.29C1908.35 3983.91 1911.02 3978.59 1911.86 3972.95C1912.69 3967.3 1911.66 3961.57 1908.87 3956.42C1906.08 3951.27 1901.65 3946.91 1896.1 3943.84C1890.56 3940.78 1884.11 3939.14 1877.53 3939.12C1870.94 3939.09 1864.49 3940.68 1858.91 3943.7C1853.33 3946.73 1848.86 3951.05 1846.02 3956.18C1843.18 3961.32 1842.08 3967.04 1842.86 3972.69C1843.64 3978.33 1846.26 3983.67 1850.42 3988.08V3988.06Z" fill="#40AF92"/>
<path opacity="0.5" d="M1850.42 3988.06C1850.42 3988.06 1868.31 3989.58 1877.36 3999.16C1880.62 3995.75 1884.71 3993.01 1889.34 3991.13C1893.97 3989.25 1899.03 3988.28 1904.15 3988.29C1908.35 3983.91 1911.02 3978.59 1911.86 3972.95C1912.69 3967.3 1911.66 3961.57 1908.87 3956.42C1906.08 3951.27 1901.65 3946.91 1896.1 3943.84C1890.56 3940.78 1884.11 3939.14 1877.53 3939.12C1870.94 3939.09 1864.49 3940.68 1858.91 3943.7C1853.33 3946.73 1848.86 3951.05 1846.02 3956.18C1843.18 3961.32 1842.08 3967.04 1842.86 3972.69C1843.64 3978.33 1846.26 3983.67 1850.42 3988.08V3988.06Z" fill="white"/>
<path d="M1876.77 3941.24L1876.17 4018.65H1879.19L1876.77 3941.24Z" fill="#263238"/>
<path d="M1877.69 3996.25C1877.69 3996.25 1883.72 3986.85 1894.58 3983.99C1894.58 3983.99 1883.12 3986.33 1877.38 3994.41L1877.69 3996.25Z" fill="#263238"/>
<path d="M1877.69 3969.66C1877.69 3969.66 1883.72 3960.26 1894.58 3957.4C1894.58 3957.4 1883.12 3959.74 1877.38 3967.83L1877.69 3969.66Z" fill="#263238"/>
<path d="M1877.69 3982.95C1877.69 3982.95 1883.72 3973.56 1894.58 3970.7C1894.58 3970.7 1883.12 3973.04 1877.38 3981.12L1877.69 3982.95Z" fill="#263238"/>
<path d="M1876.79 3976.43C1876.79 3976.43 1870.9 3967.05 1860.48 3964.18C1860.48 3964.18 1871.55 3966.53 1877.08 3974.6L1876.79 3976.43Z" fill="#263238"/>
<path d="M1876.79 3989.46C1876.79 3989.46 1870.9 3980.08 1860.48 3977.21C1860.48 3977.21 1871.55 3979.56 1877.08 3987.64L1876.79 3989.46Z" fill="#263238"/>
<path d="M579.926 3977.7C579.926 3977.7 604.969 3979.85 617.665 3993.26C617.665 3993.26 631.091 3977.72 655.177 3978.05C661.067 3971.91 664.817 3964.46 665.993 3956.56C667.168 3948.65 665.719 3940.63 661.815 3933.41C657.911 3926.19 651.712 3920.07 643.941 3915.78C636.17 3911.48 627.146 3909.18 617.92 3909.15C608.694 3909.11 599.645 3911.34 591.828 3915.57C584.011 3919.8 577.748 3925.87 573.767 3933.05C569.785 3940.24 568.251 3948.26 569.341 3956.17C570.432 3964.08 574.103 3971.57 579.926 3977.75V3977.7Z" fill="#40AF92"/>
<path opacity="0.3" d="M579.926 3977.7C579.926 3977.7 604.969 3979.85 617.665 3993.26C617.665 3993.26 631.091 3977.72 655.177 3978.05C661.067 3971.91 664.817 3964.46 665.993 3956.56C667.168 3948.65 665.719 3940.63 661.815 3933.41C657.911 3926.19 651.712 3920.07 643.941 3915.78C636.17 3911.48 627.146 3909.18 617.92 3909.15C608.694 3909.11 599.645 3911.34 591.828 3915.57C584.011 3919.8 577.748 3925.87 573.767 3933.05C569.785 3940.24 568.251 3948.26 569.341 3956.17C570.432 3964.08 574.103 3971.57 579.926 3977.75V3977.7Z" fill="white"/>
<path d="M616.848 3912.12L615.996 4020.57H620.222L616.848 3912.12Z" fill="#263238"/>
<path d="M618.065 3989.18C618.065 3989.18 626.517 3976.02 641.734 3972.01C641.734 3972.01 625.664 3975.3 617.63 3986.61L618.065 3989.18Z" fill="#263238"/>
<path d="M618.065 3951.93C618.065 3951.93 626.517 3938.79 641.734 3934.76C641.734 3934.76 625.664 3938.05 617.63 3949.37L618.065 3951.93Z" fill="#263238"/>
<path d="M618.065 3970.51C618.065 3970.51 626.517 3957.35 641.734 3953.34C641.734 3953.34 625.664 3956.63 617.63 3967.94L618.065 3970.51Z" fill="#263238"/>
<path d="M616.866 3961.5C616.866 3961.5 608.692 3948.35 594.014 3944.33C594.014 3944.33 609.51 3947.62 617.266 3958.94L616.866 3961.5Z" fill="#263238"/>
<path d="M616.866 3979.67C616.866 3979.67 608.692 3966.53 594.014 3962.52C594.014 3962.52 609.51 3965.81 617.266 3977.12L616.866 3979.67Z" fill="#263238"/>
<path d="M629.544 3963.16C629.544 3963.16 663.091 3966 680.082 3984.03C680.082 3984.03 698.047 3963.22 730.307 3963.64C738.174 3955.43 743.177 3945.45 744.736 3934.87C746.294 3924.29 744.343 3913.55 739.11 3903.89C733.877 3894.24 725.577 3886.06 715.175 3880.32C704.773 3874.58 692.697 3871.5 680.351 3871.45C668.005 3871.41 655.898 3874.39 645.437 3880.05C634.975 3885.71 626.591 3893.82 621.257 3903.44C615.924 3913.05 613.862 3923.78 615.31 3934.37C616.759 3944.96 621.659 3954.98 629.44 3963.25L629.544 3963.16Z" fill="#40AF92"/>
<path opacity="0.5" d="M629.544 3963.16C629.544 3963.16 663.091 3966 680.082 3984.03C680.082 3984.03 698.047 3963.22 730.307 3963.64C738.174 3955.43 743.177 3945.45 744.736 3934.87C746.294 3924.29 744.343 3913.55 739.11 3903.89C733.877 3894.24 725.577 3886.06 715.175 3880.32C704.773 3874.58 692.697 3871.5 680.351 3871.45C668.005 3871.41 655.898 3874.39 645.437 3880.05C634.975 3885.71 626.591 3893.82 621.257 3903.44C615.924 3913.05 613.862 3923.78 615.31 3934.37C616.759 3944.96 621.659 3954.98 629.44 3963.25L629.544 3963.16Z" fill="white"/>
<path d="M678.968 3875.34L677.837 4020.57H683.507L678.968 3875.34Z" fill="#263238"/>
<path d="M680.673 3978.53C680.673 3978.53 691.995 3960.92 712.377 3955.53C712.377 3955.53 690.865 3959.93 680.1 3975.06L680.673 3978.53Z" fill="#263238"/>
<path d="M680.673 3928.65C680.673 3928.65 691.995 3911.04 712.377 3905.67C712.377 3905.67 690.865 3910.07 680.1 3925.19L680.673 3928.65Z" fill="#263238"/>
<path d="M680.673 3953.58C680.673 3953.58 691.995 3935.98 712.377 3930.6C712.377 3930.6 690.865 3935 680.1 3950.13L680.673 3953.58Z" fill="#263238"/>
<path d="M678.933 3941.35C678.933 3941.35 668.012 3923.75 648.343 3918.37C648.343 3918.37 669.108 3922.77 679.49 3937.9L678.933 3941.35Z" fill="#263238"/>
<path d="M678.933 3965.81C678.933 3965.81 668.012 3948.2 648.343 3942.83C648.343 3942.83 669.108 3947.23 679.49 3962.35L678.933 3965.81Z" fill="#263238"/>
<defs>
<linearGradient id="paint0_linear_879_5901" x1="690.242" y1="1167.37" x2="79.5069" y2="1551.87" gradientUnits="userSpaceOnUse">
<stop stop-color="#EBF0FB"/>
<stop offset="1" stop-color="#EFFBFC"/>
</linearGradient>
<linearGradient id="paint1_linear_879_5901" x1="2368.17" y1="2897.98" x2="1757.44" y2="3282.49" gradientUnits="userSpaceOnUse">
<stop stop-color="#EBF0FB"/>
<stop offset="1" stop-color="#EFFBFC"/>
</linearGradient>
<linearGradient id="paint2_linear_879_5901" x1="1247.88" y1="3526.94" x2="1247.65" y2="4005" gradientUnits="userSpaceOnUse">
<stop stop-color="#D2ECE6"/>
<stop offset="1" stop-color="#FEFEFE"/>
</linearGradient>
</defs>
</svg>
