<svg width="80" height="81" viewBox="0 0 80 81" fill="none" xmlns="http://www.w3.org/2000/svg">
<rect y="0.976562" width="80" height="80" rx="20" fill="#45ABC2" fill-opacity="0.2"/>
<path d="M29.8731 43.767C29.7004 43.7667 29.5303 43.7273 29.3766 43.6518C29.2229 43.5764 29.0901 43.4671 28.989 43.333C27.5726 41.4153 26.7294 39.1632 26.5505 36.8199C26.3717 34.4765 26.8639 32.1309 27.974 30.036C29.0842 27.9411 30.7702 26.1765 32.85 24.9327C34.9299 23.6889 37.3247 23.013 39.7759 22.978C42.2272 22.943 44.6419 23.5502 46.7595 24.7342C48.8771 25.9181 50.6172 27.6338 51.7919 29.696C52.9667 31.7583 53.5315 34.0889 53.4255 36.4363C53.3195 38.7837 52.5467 41.0588 51.1905 43.0161C51.1172 43.1393 51.0183 43.2468 50.8999 43.3318C50.7815 43.4168 50.6461 43.4775 50.5021 43.5102C50.3581 43.5428 50.2087 43.5468 50.0631 43.5217C49.9175 43.4966 49.7788 43.4431 49.6557 43.3644C49.5326 43.2858 49.4277 43.1837 49.3475 43.0645C49.2674 42.9453 49.2137 42.8116 49.1898 42.6717C49.1659 42.5317 49.1723 42.3886 49.2086 42.2511C49.2449 42.1137 49.3103 41.9848 49.4008 41.8727C50.5393 40.229 51.188 38.3186 51.2768 36.3476C51.3657 34.3765 50.8914 32.4197 49.905 30.688C48.9187 28.9564 47.4578 27.5157 45.6799 26.5213C43.902 25.527 41.8745 25.0167 39.8163 25.0456C37.758 25.0745 35.7471 25.6414 34.0003 26.6852C32.2535 27.729 30.8372 29.2101 29.9042 30.9687C28.9712 32.7273 28.5569 34.6966 28.7059 36.6643C28.855 38.632 29.5617 40.5234 30.7499 42.1344C30.8647 42.2889 30.9328 42.4706 30.947 42.6597C30.9612 42.8488 30.9208 43.038 30.8302 43.2066C30.7397 43.3752 30.6025 43.5167 30.4337 43.6155C30.2648 43.7143 30.0709 43.7667 29.8731 43.767Z" fill="#45ABC2"/>
<path d="M43.5869 40.1921C43.3096 40.6009 42.9392 40.9441 42.5035 41.1959C42.0677 41.4477 41.5781 41.6014 41.0714 41.6456V42.4446C41.0714 42.7186 40.9578 42.9815 40.7556 43.1752C40.5535 43.369 40.2792 43.4779 39.9933 43.4779C39.7074 43.4779 39.4332 43.369 39.231 43.1752C39.0288 42.9815 38.9152 42.7186 38.9152 42.4446V41.5973C38.2814 41.487 37.6637 41.3043 37.0753 41.0532C36.9386 41.0039 36.8138 40.9286 36.7085 40.8317C36.6031 40.7349 36.5193 40.6185 36.4623 40.4897C36.4052 40.3609 36.3761 40.2223 36.3766 40.0824C36.3771 39.9424 36.4073 39.8041 36.4653 39.6756C36.5232 39.5472 36.6078 39.4314 36.7139 39.3353C36.82 39.2391 36.9454 39.1646 37.0824 39.1163C37.2194 39.068 37.3652 39.0468 37.511 39.0541C37.6568 39.0615 37.7996 39.0971 37.9306 39.1588C39.7561 39.9235 41.4308 39.6686 41.7326 39.1588C41.7326 39.1175 41.8261 39.0004 41.7326 38.7387C41.2875 37.8887 40.514 37.2387 39.5765 36.927C38.8292 36.6612 38.1463 36.2523 37.5692 35.7253C36.9922 35.1983 36.5331 34.5642 36.22 33.8617C36.0915 33.5192 36.0417 33.1542 36.074 32.7916C36.1062 32.429 36.2198 32.0774 36.4069 31.7607C36.6846 31.3532 37.0541 31.0105 37.4882 30.7578C37.9222 30.5051 38.4099 30.3488 38.9152 30.3004V29.2051C38.9152 28.9311 39.0288 28.6683 39.231 28.4745C39.4332 28.2807 39.7074 28.1719 39.9933 28.1719C40.2792 28.1719 40.5535 28.2807 40.7556 28.4745C40.9578 28.6683 41.0714 28.9311 41.0714 29.2051V30.3624C41.7065 30.4734 42.3262 30.6537 42.9185 30.8997C43.1806 31.0093 43.3866 31.2142 43.491 31.4693C43.5955 31.7245 43.5899 32.0089 43.4755 32.2601C43.3612 32.5113 43.1474 32.7087 42.8812 32.8088C42.615 32.9089 42.3182 32.9036 42.0561 32.794C40.2305 32.0363 38.5631 32.2911 38.254 32.794C38.2205 32.8581 38.203 32.9289 38.203 33.0006C38.203 33.0724 38.2205 33.1431 38.254 33.2073C38.6958 34.0613 39.4702 34.7144 40.4102 35.0258C41.159 35.2905 41.8435 35.6989 42.4219 36.226C43.0002 36.7531 43.4603 37.3877 43.7738 38.0911C43.9018 38.4337 43.9514 38.7986 43.9191 39.1611C43.8869 39.5237 43.7736 39.8753 43.5869 40.1921Z" fill="#45ABC2"/>
<path d="M55.3089 39.6406C55.1673 39.6406 55.0271 39.6674 54.8963 39.7193C54.7655 39.7712 54.6466 39.8473 54.5465 39.9433C54.4464 40.0392 54.367 40.1531 54.3128 40.2785C54.2587 40.4038 54.2308 40.5382 54.2308 40.6739C54.2308 40.8096 54.2587 40.9439 54.3128 41.0693C54.367 41.1947 54.4464 41.3086 54.5465 41.4045C54.6466 41.5005 54.7655 41.5766 54.8963 41.6285C55.0271 41.6804 55.1673 41.7071 55.3089 41.7071C55.5828 41.7089 55.8449 41.814 56.0386 41.9997C56.2323 42.1853 56.3419 42.4365 56.3438 42.6991V44.7656H23.6202V42.6991C23.6128 42.6212 23.6128 42.5428 23.6202 42.4649C23.6202 42.4649 23.6202 42.4649 23.6202 42.4235C23.6355 42.3685 23.6572 42.3154 23.6849 42.2651C23.694 42.2408 23.7061 42.2177 23.7209 42.1962C23.7533 42.144 23.7919 42.0954 23.8359 42.0516L23.8718 42.0033C23.9266 41.9517 23.9868 41.9055 24.0515 41.8656L24.1808 41.838L24.3102 41.7829H24.418H24.5618H24.648C24.9339 41.7829 25.2082 41.6741 25.4103 41.4803C25.6125 41.2865 25.7261 41.0237 25.7261 40.7497C25.7283 40.5428 25.663 40.3405 25.5392 40.171C25.4411 40.0309 25.3085 39.916 25.153 39.8367C24.9976 39.7574 24.8241 39.7161 24.648 39.7164C24.4476 39.7196 24.2479 39.7404 24.0515 39.7784H23.9652C23.5859 39.8595 23.2254 40.0066 22.9015 40.2124L22.8296 40.2606C22.6736 40.3382 22.5246 40.428 22.384 40.5292C22.2527 40.6598 22.1325 40.8004 22.0247 40.9494L21.9672 41.039C21.9199 41.1006 21.8767 41.165 21.8378 41.2318C21.8378 41.3007 21.7659 41.3696 21.7372 41.4385L21.6941 41.528C21.6307 41.6824 21.5802 41.8413 21.5431 42.0033C21.5431 42.0584 21.5431 42.1136 21.5431 42.1687C21.5181 42.3122 21.5037 42.4572 21.5 42.6026C21.5 42.6026 21.5 42.6577 21.5 42.6853V55.9179C21.5 56.7278 21.8352 57.5047 22.4321 58.0781C23.029 58.6515 23.8389 58.9745 24.684 58.9763H55.3089C56.1552 58.9763 56.9669 58.6541 57.5653 58.0805C58.1638 57.507 58.5 56.729 58.5 55.9179V42.6991C58.5 42.2974 58.4175 41.8997 58.2571 41.5287C58.0967 41.1576 57.8617 40.8204 57.5653 40.5364C57.269 40.2524 56.9172 40.0271 56.5301 39.8734C56.1429 39.7197 55.7279 39.6406 55.3089 39.6406ZM31.2675 56.6343V51.4818C31.2675 51.4087 31.2978 51.3386 31.3517 51.2869C31.4056 51.2352 31.4787 51.2062 31.555 51.2062H34.243C34.3193 51.2062 34.3924 51.2352 34.4463 51.2869C34.5002 51.3386 34.5305 51.4087 34.5305 51.4818V56.6136L31.2675 56.6343ZM55.3089 56.9098H36.6867V51.4818C36.6848 50.8612 36.4267 50.2665 35.9688 49.8277C35.511 49.3889 34.8905 49.1415 34.243 49.1397H31.555C30.9075 49.1415 30.287 49.3889 29.8291 49.8277C29.3713 50.2665 29.1132 50.8612 29.1113 51.4818V56.8891H24.648C24.5124 56.8891 24.3782 56.8634 24.253 56.8135C24.1279 56.7636 24.0142 56.6904 23.9187 56.5982C23.8232 56.506 23.7476 56.3966 23.6964 56.2763C23.6452 56.156 23.6193 56.0271 23.6202 55.8972V46.839H56.3438V55.9179C56.3438 56.0481 56.3171 56.1771 56.265 56.2975C56.213 56.4178 56.1368 56.5272 56.0407 56.6193C55.9446 56.7114 55.8305 56.7844 55.7049 56.8343C55.5794 56.8841 55.4448 56.9098 55.3089 56.9098Z" fill="#45ABC2"/>
<path d="M32.8997 53.92C33.3443 53.92 33.7047 53.5745 33.7047 53.1485C33.7047 52.7224 33.3443 52.377 32.8997 52.377C32.4551 52.377 32.0947 52.7224 32.0947 53.1485C32.0947 53.5745 32.4551 53.92 32.8997 53.92Z" fill="#45ABC2"/>
</svg>
