<svg width="797" height="699" viewBox="0 0 797 699" fill="none" xmlns="http://www.w3.org/2000/svg">
<path d="M751.246 414.277C729.318 480.744 682.064 553.616 612.508 577.332C507.435 613.191 498.007 699.36 307.351 698.774C279.509 698.812 251.745 695.831 224.547 689.883C211.249 686.927 198.154 683.126 185.339 678.504C72.3663 637.753 10.5155 540.84 1.65643 437.278C-9.96599 301.06 82.7208 232.35 143.076 191.826C203.431 151.301 272.353 0.908971 459.84 0.0149385C488.46 -0.241627 517.015 2.80744 544.935 9.10156C608.591 23.7312 674.099 58.9561 713.453 112.647C716.395 116.678 719.223 120.774 721.954 125.033C775.092 207.658 781.155 323.638 751.246 414.277Z" fill="#F4FAFB"/>
<path d="M49.5846 562.025C52.6 561.179 57.9336 556.606 57.943 556.605C57.9524 556.604 53.8322 554.006 53.5786 553.873C50.3409 552.33 43.2035 551.323 40.4797 554.245C40.0392 554.742 39.708 555.326 39.5077 555.96C39.3074 556.593 39.2424 557.261 39.317 557.922C39.3915 558.582 39.6039 559.219 39.9405 559.791C40.277 560.364 40.7301 560.86 41.2705 561.246C43.5439 562.955 47.0129 562.745 49.5846 562.025Z" fill="#40AF92"/>
<path d="M64.3394 576.23C66.9222 574.679 70.6196 569.308 70.9152 568.884C73.9835 571.005 77.1901 572.92 80.5138 574.613C82.4393 575.608 84.4171 576.558 86.4105 577.478C85.4246 577.198 84.5654 576.942 84.4397 576.928C80.9252 576.313 73.7608 577.18 71.9011 580.739C71.61 581.337 71.4478 581.989 71.425 582.654C71.4023 583.318 71.5195 583.98 71.769 584.596C72.0186 585.212 72.395 585.769 72.8737 586.23C73.3523 586.691 73.9227 587.047 74.5477 587.273C77.1676 588.333 80.4674 587.216 82.7457 585.842C85.0241 584.468 88.3188 579.925 89.1564 578.724L91.459 579.762C95.1576 581.415 98.8436 583.041 102.414 584.746C103.675 585.348 104.892 585.984 106.119 586.618C105.251 586.373 104.521 586.159 104.405 586.144C100.89 585.529 93.7256 586.396 91.867 589.965C91.5759 590.562 91.4137 591.215 91.3909 591.879C91.3682 592.543 91.4854 593.205 91.735 593.821C91.9845 594.437 92.3609 594.994 92.8396 595.455C93.3183 595.917 93.8886 596.272 94.5136 596.499C97.1325 597.549 100.423 596.433 102.711 595.058C104.998 593.683 107.962 589.588 108.974 588.157C110.206 588.838 111.439 589.529 112.598 590.248C113.381 590.761 114.165 591.197 114.924 591.751L117.162 593.311C118.561 594.375 120.01 595.461 121.343 596.532C122.276 597.276 123.158 597.987 124.043 598.718C122.799 598.104 120.331 596.952 120.123 596.88C116.731 595.746 109.474 595.544 107.146 598.756C106.767 599.302 106.507 599.921 106.383 600.574C106.259 601.227 106.273 601.899 106.426 602.545C106.578 603.192 106.865 603.8 107.267 604.329C107.669 604.858 108.178 605.297 108.761 605.616C111.194 607.05 114.581 606.457 117.081 605.44C119.818 604.32 124.077 599.783 124.651 599.203C126.123 600.411 127.536 601.597 128.866 602.725C131.786 605.258 134.315 607.54 136.426 609.506L138.462 607.844C136.222 605.836 133.522 603.478 130.398 600.911C128.913 599.676 127.308 598.397 125.644 597.096C126.614 595.328 127.482 593.507 128.244 591.64C131.231 592.066 136.933 590.754 137.667 590.575C138.228 592.421 138.749 594.156 139.214 595.831C140.211 599.335 141.017 602.498 141.667 605.211L143.869 603.416C143.201 600.963 142.42 598.188 141.496 595.163C140.935 593.317 140.293 591.357 139.629 589.361C140.305 589.008 145.861 586.071 147.671 583.758C149.343 581.66 150.82 578.516 150.101 575.782C149.95 575.135 149.665 574.527 149.265 573.997C148.864 573.467 148.356 573.027 147.775 572.706C147.193 572.385 146.551 572.189 145.889 572.132C145.227 572.075 144.561 572.158 143.933 572.375C140.185 573.753 138.442 580.792 138.606 584.362C138.63 584.569 138.981 586.839 139.238 588.27C138.965 587.451 138.704 586.66 138.408 585.815C137.83 584.163 137.205 582.516 136.539 580.759L135.478 578.207C135.142 577.347 134.672 576.484 134.23 575.609C133.26 573.609 132.178 571.632 131.038 569.652C132.488 569.144 137.62 567.267 139.57 565.434C141.52 563.601 143.476 560.727 143.169 557.927C143.12 557.264 142.932 556.619 142.617 556.034C142.303 555.449 141.869 554.936 141.343 554.529C140.817 554.122 140.212 553.831 139.567 553.673C138.921 553.515 138.25 553.495 137.596 553.613C133.682 554.447 130.892 561.098 130.521 564.652C130.545 564.869 130.532 567.457 130.568 568.874C129.881 567.692 129.194 566.51 128.452 565.344C126.323 561.958 124.064 558.606 121.823 555.242C121.135 554.213 120.465 553.181 119.785 552.151C120.3 551.978 126.447 549.872 128.638 547.811C130.579 545.989 132.545 543.114 132.237 540.305C132.187 539.642 131.997 538.997 131.682 538.412C131.366 537.828 130.931 537.316 130.404 536.91C129.878 536.504 129.272 536.214 128.626 536.057C127.98 535.901 127.309 535.882 126.655 536.001C122.751 536.834 119.952 543.486 119.59 547.039C119.563 547.309 119.6 551.017 119.659 551.965C118.171 549.69 116.702 547.413 115.354 545.112C113.515 542.008 111.876 538.789 110.449 535.474C110.687 535.39 117.113 533.224 119.357 531.119C121.297 529.287 123.263 526.412 122.956 523.612C122.905 522.949 122.716 522.305 122.4 521.72C122.085 521.135 121.65 520.623 121.123 520.218C120.597 519.812 119.991 519.521 119.345 519.365C118.699 519.208 118.028 519.189 117.374 519.309C113.469 520.141 110.671 526.794 110.308 530.347C110.282 530.617 110.322 534.611 110.386 535.338C110.307 535.147 110.2 534.959 110.12 534.758C108.788 531.393 107.757 527.917 107.038 524.37C106.617 522.423 106.318 520.529 106.08 518.676C107.318 518.402 112.959 517.059 115.184 515.386C117.41 513.712 119.581 511.139 119.587 508.313C119.609 507.65 119.491 506.989 119.241 506.373C118.991 505.758 118.615 505.202 118.136 504.741C117.658 504.281 117.088 503.926 116.463 503.7C115.839 503.473 115.174 503.381 114.512 503.428C110.538 503.819 107.032 510.123 106.272 513.615C106.236 513.81 106.029 515.78 105.906 517.226C105.812 516.387 105.715 515.53 105.624 514.729C105.285 511.723 105.229 508.942 105.171 506.487C105.146 505.087 105.156 503.826 105.178 502.669C106.249 501.756 110.524 498.038 111.707 495.576C112.889 493.114 113.648 489.783 112.353 487.277C112.068 486.677 111.659 486.144 111.154 485.713C110.649 485.281 110.059 484.96 109.423 484.771C108.786 484.582 108.116 484.529 107.458 484.615C106.799 484.702 106.166 484.925 105.599 485.272C102.248 487.454 102.041 494.663 102.985 498.116C103.019 498.418 104.873 502.923 104.935 502.878L104.995 502.823C104.953 503.963 104.928 505.178 104.916 506.516C104.918 508.978 104.955 511.76 105.192 514.787C105.409 518.054 105.818 521.306 106.416 524.526C107.064 528.136 108.036 531.68 109.32 535.115C109.32 535.115 109.329 535.191 109.334 535.238C108.61 534.317 106.485 531.809 106.303 531.639C103.707 529.184 97.2472 525.981 93.7425 527.904C93.1699 528.241 92.6747 528.695 92.2887 529.236C91.9028 529.777 91.6349 530.393 91.5024 531.044C91.3699 531.695 91.3757 532.367 91.5195 533.016C91.6633 533.664 91.9418 534.276 92.3371 534.81C93.9362 537.139 97.3046 538.066 99.9657 538.138C102.967 538.266 109.019 535.827 109.502 535.629C110.891 539.094 112.508 542.463 114.344 545.713C115.407 547.607 116.535 549.483 117.692 551.357C117.031 550.582 116.448 549.894 116.351 549.8C113.756 547.354 107.286 544.144 103.782 546.076C103.216 546.419 102.727 546.878 102.349 547.422C101.97 547.966 101.71 548.583 101.585 549.234C101.46 549.885 101.472 550.555 101.622 551.2C101.771 551.846 102.055 552.453 102.453 552.982C104.062 555.311 107.43 556.238 110.093 556.319C112.755 556.4 117.996 554.472 119.363 553.907C119.816 554.619 120.251 555.343 120.703 556.056C122.873 559.465 125.059 562.854 127.094 566.251C127.811 567.449 128.482 568.652 129.141 569.837C128.566 569.148 128.044 568.577 128.034 568.493C125.429 566.038 118.969 562.836 115.464 564.759C114.881 565.092 114.374 565.545 113.979 566.089C113.584 566.632 113.309 567.254 113.172 567.912C113.035 568.57 113.04 569.249 113.185 569.905C113.331 570.561 113.614 571.179 114.017 571.717C115.624 574.036 118.989 574.925 121.655 575.044C124.321 575.163 129.043 573.37 130.68 572.736C131.326 573.98 131.975 575.243 132.544 576.486C132.918 577.341 133.332 578.134 133.661 579.022L134.667 581.591C135.246 583.252 135.858 584.958 136.386 586.588C136.754 587.73 137.095 588.808 137.438 589.904C136.73 588.706 135.313 586.384 135.17 586.21C133.146 583.803 130.539 581.955 127.597 580.843C127.382 580.568 127.145 580.311 126.89 580.074C126.407 579.617 125.833 579.266 125.207 579.045C124.58 578.824 123.913 578.738 123.251 578.791C122.588 578.844 121.944 579.036 121.36 579.354C120.777 579.672 120.267 580.11 119.863 580.638C117.519 583.88 119.919 590.681 122.038 593.562C122.162 593.729 123.728 595.423 124.724 596.475C124.044 595.941 123.384 595.424 122.638 594.897C121.247 593.823 119.815 592.801 118.287 591.695L115.995 590.16C115.238 589.625 114.374 589.16 113.563 588.65C111.641 587.522 109.652 586.467 107.609 585.448C108.548 584.216 111.746 579.828 112.405 577.215C113.064 574.602 113.073 571.137 111.273 568.964C110.865 568.439 110.352 568.006 109.767 567.693C109.181 567.38 108.537 567.193 107.875 567.144C107.212 567.096 106.547 567.187 105.923 567.412C105.298 567.637 104.727 567.99 104.248 568.45C101.44 571.305 102.776 578.398 104.44 581.559C104.539 581.758 105.983 583.895 106.801 585.053C105.568 584.447 104.354 583.84 103.087 583.268C99.4473 581.627 95.7029 580.074 91.9856 578.509L88.5764 577.052C88.9191 576.622 92.8808 571.48 93.5719 568.558C94.2322 565.954 94.2312 562.481 92.4303 560.308C92.0228 559.784 91.5099 559.351 90.9245 559.037C90.3392 558.724 89.6945 558.537 89.0323 558.488C88.3701 558.44 87.7051 558.531 87.0804 558.756C86.4556 558.981 85.8851 559.335 85.4057 559.794C82.5981 562.649 83.9419 569.731 85.5969 572.894C85.7199 573.138 87.8031 576.205 88.3752 576.961C85.8778 575.888 83.3604 574.807 81.0031 573.623C77.7543 572.051 74.6109 570.27 71.5927 568.292C71.7515 568.093 75.9181 562.736 76.6206 559.746C77.2244 557.149 77.2799 553.669 75.4789 551.496C75.0715 550.972 74.5585 550.539 73.9732 550.225C73.3879 549.912 72.7432 549.725 72.081 549.676C71.4188 549.628 70.7538 549.719 70.1291 549.944C69.5043 550.169 68.9338 550.523 68.4544 550.982C65.6467 553.838 66.9916 560.929 68.6467 564.092C68.7791 564.334 71.0135 567.642 71.469 568.21L70.9259 567.88C67.9555 565.811 65.1757 563.481 62.6195 560.917C61.1834 559.524 59.898 558.113 58.6702 556.706C59.521 555.789 63.5178 551.549 64.4723 548.931C65.4269 546.314 65.7926 542.961 64.2384 540.608C63.8916 540.042 63.4299 539.555 62.8831 539.179C62.3364 538.803 61.7168 538.546 61.0644 538.424C60.412 538.303 59.7414 538.32 59.0959 538.474C58.4505 538.628 57.8445 538.915 57.3172 539.318C54.2147 541.845 54.7702 549.044 56.0622 552.372C56.14 552.554 57.0542 554.312 57.7508 555.579C57.202 554.944 56.651 554.29 56.1221 553.663C54.2161 551.321 52.6046 549.05 51.2029 547.033C50.4144 545.881 49.7224 544.824 49.0849 543.827C49.4762 542.475 50.9879 537.018 50.6155 534.311C50.243 531.605 49.0413 528.401 46.5769 527.028C46.0078 526.684 45.3728 526.464 44.7132 526.382C44.0536 526.3 43.384 526.358 42.7481 526.551C42.1121 526.744 41.5238 527.069 41.0215 527.504C40.5192 527.94 40.1141 528.476 39.8324 529.078C38.2525 532.749 42.0566 538.885 44.7458 541.234C44.9787 541.437 48.9746 544.202 48.9954 544.133C48.9955 544.107 48.9927 544.082 48.9869 544.057C49.5835 545.03 50.2252 546.065 50.9623 547.184C52.3201 549.235 53.8877 551.539 55.7519 553.934C57.7476 556.529 59.8945 559.005 62.1815 561.348C64.7167 563.995 67.4807 566.413 70.4413 568.575L70.5545 568.648C69.4344 568.278 66.2953 567.354 66.0429 567.315C62.5189 566.702 55.3639 567.567 53.5053 571.136C53.2141 571.734 53.0519 572.386 53.0292 573.05C53.0065 573.715 53.1237 574.377 53.3732 574.993C53.6228 575.609 53.9992 576.166 54.4778 576.627C54.9565 577.088 55.5269 577.444 56.1519 577.67C58.7613 578.721 62.0496 577.586 64.3394 576.23Z" fill="#40AF92"/>
<path d="M105.539 518.277C105.605 518.269 103.569 513.852 103.407 513.593C101.544 510.54 96.1636 505.737 92.2707 506.673C91.6304 506.847 91.0339 507.155 90.5198 507.574C90.0058 507.994 89.5855 508.517 89.2863 509.109C88.9871 509.702 88.8156 510.35 88.7829 511.013C88.7502 511.676 88.857 512.339 89.0964 512.958C90.028 515.629 93.0398 517.37 95.5755 518.19C98.5335 519.116 105.529 518.278 105.539 518.277Z" fill="#40AF92"/>
<path d="M676.584 250.824C679.009 253.225 686.197 255.84 686.197 255.851C686.197 255.861 686.488 250.61 686.467 250.278C686.186 246.42 683.352 239.122 679.117 238.093C678.409 237.942 677.676 237.94 676.968 238.09C676.259 238.239 675.59 238.535 675.004 238.959C674.418 239.382 673.929 239.924 673.568 240.549C673.207 241.173 672.983 241.867 672.909 242.583C672.478 245.616 674.504 248.788 676.584 250.824Z" fill="#40AF92"/>
<path d="M664.699 268.069C667.235 270.632 674.55 273.405 675.131 273.616C673.539 277.795 672.228 282.077 671.208 286.431C670.589 288.964 670.059 291.533 669.551 294.11C669.606 292.895 669.649 291.813 669.627 291.671C669.339 287.398 666.257 279.323 661.595 278.161C660.817 277.992 660.012 277.989 659.233 278.151C658.453 278.313 657.717 278.637 657.071 279.102C656.425 279.567 655.884 280.162 655.484 280.85C655.083 281.537 654.832 282.301 654.746 283.092C654.267 286.45 656.525 289.968 658.761 292.238C660.997 294.508 667.265 297.064 668.883 297.661C668.704 298.657 668.503 299.646 668.324 300.641C667.466 305.407 666.622 310.164 665.618 314.791C665.284 316.432 664.889 318.03 664.493 319.629C664.544 318.562 664.576 317.649 664.566 317.51C664.266 313.234 661.184 305.159 656.531 304.012C655.752 303.841 654.946 303.836 654.166 303.997C653.385 304.158 652.647 304.481 652 304.946C651.353 305.411 650.811 306.006 650.41 306.694C650.008 307.382 649.756 308.147 649.67 308.939C649.194 312.286 651.452 315.804 653.688 318.074C655.925 320.344 661.57 322.615 663.523 323.38C663.069 325.012 662.615 326.644 662.119 328.203C661.752 329.257 661.463 330.295 661.024 331.341C660.586 332.387 660.228 333.407 659.822 334.425C658.989 336.357 658.137 338.358 657.274 340.22C656.679 341.518 656.091 342.744 655.501 343.981C655.854 342.358 656.496 339.167 656.512 338.889C656.874 334.625 655.049 326.186 650.619 324.327C649.876 324.04 649.081 323.913 648.285 323.955C647.49 323.996 646.712 324.204 646.003 324.566C645.294 324.928 644.669 325.435 644.169 326.055C643.669 326.674 643.306 327.392 643.103 328.161C642.114 331.403 643.798 335.216 645.675 337.804C647.752 340.644 654.285 344.368 655.105 344.83C654.116 346.879 653.146 348.859 652.232 350.731C650.142 354.835 648.189 358.447 646.497 361.431L649.001 363.358C650.708 360.144 652.671 356.362 654.773 351.992C655.783 349.912 656.82 347.643 657.846 345.371C660.183 345.994 662.553 346.486 664.945 346.843C665.311 350.437 668.467 356.7 668.883 357.505C666.93 358.683 665.023 359.787 663.203 360.842C659.404 362.994 655.938 364.833 652.975 366.37L655.708 368.359C658.381 366.89 661.381 365.18 664.642 363.235C666.629 362.066 668.725 360.768 670.864 359.408C671.47 360.106 676.486 365.744 679.69 367.189C682.613 368.494 686.692 369.359 689.669 367.728C690.38 367.369 691.006 366.865 691.509 366.248C692.011 365.631 692.378 364.916 692.586 364.148C692.794 363.381 692.838 362.578 692.715 361.792C692.592 361.006 692.305 360.255 691.873 359.587C689.158 355.634 680.506 355.587 676.397 356.817C676.157 356.885 673.617 357.961 672.031 358.663C672.9 358.106 673.76 357.583 674.665 356.937C676.436 355.795 678.158 354.602 680.027 353.327L682.691 351.363C683.597 350.717 684.466 349.939 685.368 349.218C687.429 347.517 689.424 345.699 691.401 343.815C692.408 345.325 696.056 350.791 698.758 352.539C701.459 354.287 705.348 355.75 708.525 354.593C709.272 354.34 709.958 353.934 710.539 353.401C711.12 352.869 711.583 352.221 711.9 351.5C712.217 350.778 712.379 349.998 712.378 349.21C712.376 348.422 712.21 347.643 711.89 346.922C709.782 342.647 701.26 341.247 697.01 341.835C696.753 341.874 693.747 342.636 692.119 343.092C693.288 341.942 694.474 340.822 695.621 339.616C698.954 336.179 702.218 332.587 705.487 329.021C706.491 327.935 707.494 326.85 708.506 325.779C708.857 326.331 713.064 332.888 716.091 334.836C718.769 336.578 722.68 338.047 725.858 336.891C726.605 336.637 727.29 336.232 727.871 335.699C728.453 335.166 728.916 334.519 729.233 333.797C729.549 333.076 729.712 332.296 729.71 331.508C729.709 330.72 729.543 329.941 729.223 329.22C727.126 324.948 718.593 323.544 714.354 324.136C714.034 324.182 709.721 325.305 708.637 325.618C710.863 323.238 713.093 320.883 715.387 318.656C718.479 315.633 721.76 312.809 725.211 310.201C725.371 310.467 729.728 317.323 732.825 319.328C735.518 321.061 739.418 322.528 742.607 321.374C743.354 321.121 744.039 320.715 744.621 320.183C745.202 319.65 745.665 319.002 745.982 318.281C746.298 317.559 746.461 316.78 746.459 315.992C746.458 315.203 746.292 314.424 745.972 313.704C743.875 309.431 735.339 308.04 731.089 308.628C730.757 308.67 726.129 309.866 725.302 310.14C725.504 309.987 725.687 309.817 725.901 309.668C729.432 307.152 733.182 304.957 737.105 303.109C739.267 302.063 741.339 301.164 743.457 300.364C744.133 301.781 747.323 307.92 749.9 310.026C752.477 312.133 756.112 313.931 759.398 313.136C760.178 312.973 760.915 312.648 761.561 312.181C762.207 311.715 762.748 311.119 763.148 310.43C763.549 309.742 763.8 308.977 763.886 308.185C763.971 307.394 763.89 306.593 763.646 305.834C762.047 301.319 753.698 299.033 749.417 299.157C749.181 299.166 746.859 299.503 745.104 299.752C746.051 299.401 747.009 299.053 747.93 298.707C751.356 297.496 754.558 296.604 757.406 295.835C759.029 295.402 760.505 295.05 761.886 294.733C763.246 295.727 768.794 299.631 772.004 300.303C775.214 300.975 779.314 300.924 781.867 298.695C782.482 298.192 782.985 297.565 783.343 296.855C783.7 296.145 783.905 295.368 783.942 294.574C783.98 293.78 783.85 292.987 783.561 292.246C783.272 291.505 782.831 290.833 782.266 290.273C778.759 286.998 770.303 288.813 766.579 290.826C766.258 291.007 761.528 294.339 761.582 294.452L761.674 294.478C760.363 294.765 758.914 295.062 757.356 295.44C754.49 296.143 751.255 296.976 747.787 298.114C744.038 299.296 740.361 300.695 736.775 302.304C732.757 304.084 728.907 306.223 725.273 308.694C725.234 308.73 725.191 308.763 725.147 308.794C726.01 307.682 728.32 304.513 728.468 304.246C730.588 300.52 732.477 292.095 729.227 288.559C728.671 287.987 728.001 287.538 727.261 287.242C726.52 286.946 725.725 286.809 724.928 286.84C724.131 286.871 723.35 287.069 722.635 287.422C721.92 287.775 721.287 288.275 720.778 288.889C718.537 291.413 718.45 295.618 719.088 298.722C719.804 302.253 724.375 308.604 724.739 309.111C721.1 311.709 717.64 314.55 714.384 317.615C712.477 319.383 710.607 321.236 708.769 323.11C709.498 322.083 710.112 321.246 710.204 321.05C712.309 317.332 714.201 308.896 710.96 305.374C710.404 304.802 709.734 304.354 708.993 304.057C708.253 303.761 707.458 303.624 706.661 303.655C705.864 303.686 705.082 303.885 704.367 304.238C703.652 304.591 703.02 305.09 702.511 305.704C700.27 308.228 700.183 312.433 700.824 315.526C701.465 318.618 705.27 324.14 706.266 325.647C705.571 326.376 704.856 327.087 704.158 327.827C700.81 331.322 697.485 334.823 694.106 338.162C692.916 339.343 691.707 340.457 690.499 341.572C691.134 340.704 691.66 339.965 691.729 339.849C693.837 336.12 695.73 327.683 692.488 324.162C691.932 323.589 691.262 323.141 690.522 322.844C689.781 322.548 688.986 322.411 688.189 322.442C687.392 322.473 686.61 322.672 685.895 323.025C685.18 323.378 684.548 323.877 684.039 324.491C681.798 327.015 681.711 331.22 682.349 334.324C682.987 337.428 686.414 342.452 687.612 344.162C686.343 345.272 685.07 346.394 683.79 347.414C682.889 348.086 682.076 348.794 681.148 349.433C680.219 350.073 679.331 350.698 678.44 351.336C676.669 352.478 674.857 353.683 673.103 354.769C671.895 355.527 670.717 356.22 669.545 356.939C670.743 355.772 673.036 353.459 673.206 353.248C675.437 350.214 676.851 346.657 677.311 342.919C677.573 342.594 677.805 342.248 678.006 341.883C678.402 341.189 678.647 340.419 678.725 339.624C678.803 338.829 678.713 338.026 678.459 337.268C678.205 336.511 677.794 335.815 677.252 335.227C676.711 334.638 676.051 334.171 675.316 333.855C670.89 332.07 663.641 336.754 660.885 340.069C660.719 340.269 659.206 342.565 658.27 344.026C658.68 343.083 659.107 342.169 659.527 341.191C660.36 339.259 661.147 337.314 662.002 335.216C662.374 334.188 662.757 333.164 663.136 332.113C663.514 331.063 663.837 329.947 664.191 328.853C664.962 326.301 665.633 323.672 666.226 321.009C667.915 321.75 673.936 324.262 677.179 324.242C680.422 324.222 684.451 323.277 686.461 320.566C686.958 319.946 687.319 319.228 687.52 318.459C687.721 317.69 687.757 316.887 687.627 316.103C687.497 315.318 687.203 314.57 686.765 313.907C686.326 313.243 685.753 312.679 685.082 312.252C680.963 309.802 673.088 313.378 669.876 316.209C669.678 316.388 667.602 318.675 666.484 319.95C666.842 318.353 667.2 316.756 667.493 315.128C668.364 310.452 669.114 305.632 669.867 300.849C670.101 299.39 670.346 297.933 670.591 296.477C671.194 296.743 678.27 299.843 681.954 299.873C685.151 299.84 689.214 298.905 691.224 296.194C691.722 295.573 692.082 294.855 692.283 294.086C692.484 293.317 692.521 292.515 692.391 291.73C692.261 290.946 691.967 290.198 691.528 289.534C691.09 288.871 690.517 288.307 689.846 287.879C685.716 285.427 677.852 289.005 674.639 291.837C674.395 292.052 671.409 295.352 670.698 296.224C671.234 293.016 671.793 289.815 672.479 286.686C673.366 282.458 674.525 278.291 675.95 274.213C676.247 274.295 683.61 277.648 687.31 277.62C690.518 277.591 694.581 276.656 696.591 273.944C697.087 273.323 697.446 272.605 697.646 271.836C697.846 271.068 697.882 270.266 697.752 269.482C697.622 268.698 697.329 267.95 696.891 267.287C696.454 266.623 695.882 266.059 695.213 265.63C691.083 263.177 683.208 266.753 680.006 269.587C679.747 269.81 676.499 273.345 676.009 274.045C676.076 273.805 676.145 273.554 676.212 273.314C677.765 269.264 679.675 265.36 681.92 261.648C683.149 259.531 684.415 257.682 685.696 255.863C687.011 256.622 693.078 260.032 696.395 260.364C699.712 260.697 703.726 260.204 706.026 257.733C706.587 257.167 707.022 256.49 707.304 255.745C707.586 255 707.708 254.204 707.662 253.409C707.616 252.614 707.404 251.837 707.039 251.129C706.674 250.421 706.164 249.797 705.542 249.299C701.717 246.414 693.497 249.107 689.992 251.574C689.795 251.704 688.017 253.274 686.732 254.442C687.329 253.624 687.92 252.78 688.504 252.009C690.689 249.112 692.866 246.595 694.808 244.393C695.931 243.144 696.967 242.031 697.94 241.011C699.633 241.076 706.416 241.291 709.463 240.074C712.51 238.856 715.892 236.563 716.786 233.308C717.024 232.547 717.099 231.746 717.007 230.954C716.914 230.163 716.656 229.4 716.249 228.715C715.841 228.029 715.294 227.438 714.643 226.978C713.992 226.518 713.251 226.2 712.469 226.044C707.766 225.252 701.693 231.419 699.712 235.221C699.548 235.544 697.466 240.989 697.553 240.989L697.655 241.018C696.687 241.977 695.667 243.034 694.577 244.206C692.581 246.38 690.342 248.856 688.084 251.707C685.621 254.758 683.336 257.949 681.24 261.262C678.931 265.01 676.956 268.953 675.339 273.047C675.331 273.098 675.317 273.147 675.298 273.195C675.403 271.798 675.549 267.867 675.56 267.563C675.269 263.302 672.19 255.215 667.525 254.064C666.747 253.895 665.942 253.892 665.163 254.054C664.383 254.216 663.647 254.54 663.001 255.005C662.355 255.47 661.814 256.065 661.414 256.753C661.013 257.44 660.762 258.204 660.676 258.995C660.205 262.282 662.446 265.77 664.699 268.069Z" fill="#40AF92"/>
<path d="M743.918 300.955C743.918 301.023 747.534 296.537 747.72 296.222C749.912 292.671 751.856 284.647 748.451 281.299C747.868 280.758 747.167 280.335 746.392 280.057C745.618 279.779 744.788 279.652 743.956 279.685C743.124 279.718 742.31 279.91 741.565 280.248C740.82 280.586 740.162 281.064 739.633 281.649C737.292 284.061 737.23 288.028 737.899 291.015C738.654 294.463 743.905 300.955 743.918 300.955Z" fill="#40AF92"/>
</svg>
