<svg width="1362" height="494" viewBox="0 0 1362 494" fill="none" xmlns="http://www.w3.org/2000/svg">
<path d="M656.017 134.155C383.182 14.8175 104.991 12.0108 0 25.5246V270.852L656.017 308.274V134.155Z" fill="#40AF92" fill-opacity="0.2"/>
<path d="M898.485 52.2926C684.987 150.649 210.219 95.6095 0 60.5491V478.001H1357.28V60.5491C1274.4 -46.7823 1017.2 13.4925 898.485 52.2926Z" fill="url(#paint0_linear_302_6231)"/>
<path d="M1360.57 487.48V391.695C1363.87 387.09 1349.45 390.59 1265.38 441.43C1181.3 492.269 1057.86 462.613 1006.65 441.43C924.078 424.483 884.899 465.069 875.631 487.48H1360.57Z" fill="#40AF92" fill-opacity="0.2" stroke="#E8F5F2"/>
<path d="M1147.85 455.379C1147.85 455.379 1169.06 457.197 1179.8 468.547C1179.8 468.547 1191.15 455.392 1211.53 455.671C1216.51 450.481 1219.69 444.175 1220.68 437.487C1221.67 430.799 1220.45 424.004 1217.14 417.895C1213.84 411.785 1208.6 406.612 1202.02 402.977C1195.44 399.343 1187.81 397.397 1180 397.366C1172.19 397.334 1164.54 399.22 1157.92 402.801C1151.31 406.383 1146.01 411.514 1142.64 417.597C1139.27 423.68 1137.97 430.464 1138.89 437.16C1139.82 443.856 1142.92 450.187 1147.85 455.417V455.379Z" fill="#40AF92"/>
<path opacity="0.3" d="M1147.85 455.379C1147.85 455.379 1169.06 457.197 1179.8 468.547C1179.8 468.547 1191.15 455.392 1211.53 455.671C1216.51 450.481 1219.69 444.175 1220.68 437.487C1221.67 430.799 1220.45 424.004 1217.14 417.895C1213.84 411.785 1208.6 406.612 1202.02 402.977C1195.44 399.343 1187.81 397.397 1180 397.366C1172.19 397.334 1164.54 399.22 1157.92 402.801C1151.31 406.383 1146.01 411.514 1142.64 417.597C1139.27 423.68 1137.97 430.464 1138.89 437.16C1139.82 443.856 1142.92 450.187 1147.85 455.417V455.379Z" fill="white"/>
<path d="M1179.09 399.886L1178.37 491.653H1181.96L1179.09 399.886Z" fill="#263238"/>
<path d="M1180.17 465.091C1180.17 465.091 1187.32 453.957 1200.21 450.563C1200.21 450.563 1186.61 453.347 1179.81 462.918L1180.17 465.091Z" fill="#263238"/>
<path d="M1180.17 433.568C1180.17 433.568 1187.32 422.446 1200.21 419.04C1200.21 419.04 1186.61 421.824 1179.81 431.407L1180.17 433.568Z" fill="#263238"/>
<path d="M1180.17 449.29C1180.17 449.29 1187.32 438.156 1200.21 434.763C1200.21 434.763 1186.61 437.546 1179.81 447.117L1180.17 449.29Z" fill="#263238"/>
<path d="M1179.11 441.664C1179.11 441.664 1172.21 430.543 1159.77 427.137C1159.77 427.137 1172.9 429.92 1179.45 439.504L1179.11 441.664Z" fill="#263238"/>
<path d="M1179.11 457.045C1179.11 457.045 1172.21 445.924 1159.77 442.53C1159.77 442.53 1172.9 445.314 1179.45 454.884L1179.11 457.045Z" fill="#263238"/>
<path d="M1213.59 448.427C1213.59 448.427 1238.84 450.587 1251.66 464.111C1251.66 464.111 1265.18 448.439 1289.48 448.757C1295.41 442.571 1299.18 435.057 1300.36 427.09C1301.54 419.124 1300.08 411.032 1296.14 403.756C1292.2 396.481 1285.95 390.321 1278.11 385.995C1270.28 381.668 1261.18 379.352 1251.88 379.316C1242.59 379.28 1233.47 381.526 1225.59 385.792C1217.71 390.059 1211.39 396.17 1207.38 403.414C1203.37 410.659 1201.82 418.74 1202.91 426.715C1204.01 434.69 1207.71 442.233 1213.57 448.465L1213.59 448.427Z" fill="#40AF92"/>
<path opacity="0.5" d="M1213.59 448.427C1213.59 448.427 1238.84 450.587 1251.66 464.111C1251.66 464.111 1265.18 448.439 1289.48 448.757C1295.41 442.571 1299.18 435.057 1300.36 427.09C1301.54 419.124 1300.08 411.032 1296.14 403.756C1292.2 396.481 1285.95 390.321 1278.11 385.995C1270.28 381.668 1261.18 379.352 1251.88 379.316C1242.59 379.28 1233.47 381.526 1225.59 385.792C1217.71 390.059 1211.39 396.17 1207.38 403.414C1203.37 410.659 1201.82 418.74 1202.91 426.715C1204.01 434.69 1207.71 442.233 1213.57 448.465L1213.59 448.427Z" fill="white"/>
<path d="M1250.82 382.283L1249.97 491.654H1254.23L1250.82 382.283Z" fill="#263238"/>
<path d="M1252.1 459.993C1252.1 459.993 1260.62 446.736 1275.97 442.682C1275.97 442.682 1259.78 445.999 1251.67 457.413L1252.1 459.993Z" fill="#263238"/>
<path d="M1252.1 422.422C1252.1 422.422 1260.62 409.165 1275.97 405.11C1275.97 405.11 1259.78 408.428 1251.67 419.841L1252.1 422.422Z" fill="#263238"/>
<path d="M1252.1 441.208C1252.1 441.208 1260.62 427.951 1275.97 423.896C1275.97 423.896 1259.78 427.214 1251.67 438.627L1252.1 441.208Z" fill="#263238"/>
<path d="M1250.84 432.005C1250.84 432.005 1242.61 418.748 1227.79 414.693C1227.79 414.693 1243.43 418.011 1251.25 429.424L1250.84 432.005Z" fill="#263238"/>
<path d="M1250.84 450.41C1250.84 450.41 1242.61 437.153 1227.79 433.099C1227.79 433.099 1243.43 436.416 1251.25 447.83L1250.84 450.41Z" fill="#263238"/>
<path d="M1281.41 461.06C1281.41 461.06 1299.31 462.585 1308.36 472.156C1311.62 468.749 1315.71 466.008 1320.34 464.129C1324.97 462.25 1330.03 461.28 1335.14 461.288C1339.35 456.909 1342.02 451.588 1342.86 445.947C1343.69 440.305 1342.65 434.575 1339.87 429.423C1337.08 424.271 1332.65 419.909 1327.1 416.844C1321.56 413.78 1315.11 412.14 1308.53 412.116C1301.94 412.091 1295.49 413.682 1289.91 416.704C1284.33 419.726 1279.86 424.054 1277.02 429.185C1274.18 434.316 1273.08 440.038 1273.86 445.686C1274.64 451.333 1277.26 456.674 1281.41 461.085V461.06Z" fill="#40AF92"/>
<path opacity="0.5" d="M1281.41 461.06C1281.41 461.06 1299.31 462.585 1308.36 472.156C1311.62 468.749 1315.71 466.008 1320.34 464.129C1324.97 462.25 1330.03 461.28 1335.14 461.288C1339.35 456.909 1342.02 451.588 1342.86 445.947C1343.69 440.305 1342.65 434.575 1339.87 429.423C1337.08 424.271 1332.65 419.909 1327.1 416.844C1321.56 413.78 1315.11 412.14 1308.53 412.116C1301.94 412.091 1295.49 413.682 1289.91 416.704C1284.33 419.726 1279.86 424.054 1277.02 429.185C1274.18 434.316 1273.08 440.038 1273.86 445.686C1274.64 451.333 1277.26 456.674 1281.41 461.085V461.06Z" fill="white"/>
<path d="M1307.77 414.237L1307.17 491.654H1310.19L1307.77 414.237Z" fill="#263238"/>
<path d="M1308.69 469.246C1308.69 469.246 1314.72 459.853 1325.58 456.993C1325.58 456.993 1314.12 459.332 1308.38 467.415L1308.69 469.246Z" fill="#263238"/>
<path d="M1308.69 442.657C1308.69 442.657 1314.72 433.264 1325.58 430.404C1325.58 430.404 1314.12 432.743 1308.38 440.827L1308.69 442.657Z" fill="#263238"/>
<path d="M1308.69 455.952C1308.69 455.952 1314.72 446.559 1325.58 443.699C1325.58 443.699 1314.12 446.038 1308.38 454.121L1308.69 455.952Z" fill="#263238"/>
<path d="M1307.79 449.431C1307.79 449.431 1301.9 440.051 1291.48 437.179C1291.48 437.179 1302.55 439.53 1308.08 447.601L1307.79 449.431Z" fill="#263238"/>
<path d="M1307.79 462.46C1307.79 462.46 1301.9 453.08 1291.48 450.207C1291.48 450.207 1302.55 452.558 1308.08 460.642L1307.79 462.46Z" fill="#263238"/>
<path d="M10.9265 450.702C10.9265 450.702 35.9694 452.85 48.6647 466.263C48.6647 466.263 62.0905 450.717 86.177 451.048C92.0665 444.914 95.8173 437.462 96.9925 429.558C98.1677 421.655 96.719 413.626 92.815 406.406C88.911 399.186 82.7124 393.073 74.9412 388.778C67.1699 384.483 58.1458 382.183 48.9196 382.146C39.6935 382.109 30.6452 384.337 22.8283 388.57C15.0114 392.802 8.74766 398.866 4.76656 406.054C0.785465 413.243 -0.749156 421.26 0.341399 429.172C1.43195 437.085 5.1028 444.567 10.9265 450.747V450.702Z" fill="#40AF92"/>
<path opacity="0.3" d="M10.9265 450.702C10.9265 450.702 35.9694 452.85 48.6647 466.263C48.6647 466.263 62.0905 450.717 86.177 451.048C92.0665 444.914 95.8173 437.462 96.9925 429.558C98.1677 421.655 96.719 413.626 92.815 406.406C88.911 399.186 82.7124 393.073 74.9412 388.778C67.1699 384.483 58.1458 382.183 48.9196 382.146C39.6935 382.109 30.6452 384.337 22.8283 388.57C15.0114 392.802 8.74766 398.866 4.76656 406.054C0.785465 413.243 -0.749156 421.26 0.341399 429.172C1.43195 437.085 5.1028 444.567 10.9265 450.747V450.702Z" fill="white"/>
<path d="M47.8482 385.125L46.9961 493.569H51.2221L47.8482 385.125Z" fill="#263238"/>
<path d="M49.0647 462.179C49.0647 462.179 57.5166 449.021 72.7337 445.011C72.7337 445.011 56.6645 448.3 48.6299 459.61L49.0647 462.179Z" fill="#263238"/>
<path d="M49.0647 424.929C49.0647 424.929 57.5166 411.786 72.7337 407.761C72.7337 407.761 56.6645 411.05 48.6299 422.375L49.0647 424.929Z" fill="#263238"/>
<path d="M49.0647 443.509C49.0647 443.509 57.5166 430.351 72.7337 426.341C72.7337 426.341 56.6645 429.63 48.6299 440.94L49.0647 443.509Z" fill="#263238"/>
<path d="M47.8663 434.496C47.8663 434.496 39.6926 421.353 25.0146 417.328C25.0146 417.328 40.51 420.617 48.2663 431.943L47.8663 434.496Z" fill="#263238"/>
<path d="M47.8663 452.671C47.8663 452.671 39.6926 439.529 25.0146 435.519C25.0146 435.519 40.51 438.808 48.2663 450.118L47.8663 452.671Z" fill="#263238"/>
<path d="M60.5444 436.164C60.5444 436.164 94.0915 439.003 111.082 457.027C111.082 457.027 129.047 436.224 161.307 436.644C169.174 428.427 174.178 418.449 175.736 407.872C177.294 397.294 175.344 386.552 170.11 376.895C164.877 367.238 156.577 359.062 146.175 353.319C135.773 347.577 123.697 344.502 111.351 344.455C99.0057 344.407 86.8981 347.387 76.4368 353.049C65.9756 358.712 57.5908 366.823 52.2576 376.439C46.9245 386.055 44.8622 396.782 46.3107 407.371C47.7592 417.96 52.659 427.976 60.4401 436.254L60.5444 436.164Z" fill="#40AF92"/>
<path opacity="0.5" d="M60.5444 436.164C60.5444 436.164 94.0915 439.003 111.082 457.027C111.082 457.027 129.047 436.224 161.307 436.644C169.174 428.427 174.178 418.449 175.736 407.872C177.294 397.294 175.344 386.552 170.11 376.895C164.877 367.238 156.577 359.062 146.175 353.319C135.773 347.577 123.697 344.502 111.351 344.455C99.0057 344.407 86.8981 347.387 76.4368 353.049C65.9756 358.712 57.5908 366.823 52.2576 376.439C46.9245 386.055 44.8622 396.782 46.3107 407.371C47.7592 417.96 52.659 427.976 60.4401 436.254L60.5444 436.164Z" fill="white"/>
<path d="M109.968 348.342L108.837 493.57H114.507L109.968 348.342Z" fill="#263238"/>
<path d="M111.673 451.529C111.673 451.529 122.995 433.925 143.377 428.533C143.377 428.533 121.865 432.934 111.1 448.059L111.673 451.529Z" fill="#263238"/>
<path d="M111.673 401.648C111.673 401.648 122.995 384.044 143.377 378.667C143.377 378.667 121.865 383.068 111.1 398.193L111.673 401.648Z" fill="#263238"/>
<path d="M111.673 426.581C111.673 426.581 122.995 408.978 143.377 403.601C143.377 403.601 121.865 408.001 111.1 423.127L111.673 426.581Z" fill="#263238"/>
<path d="M109.933 414.355C109.933 414.355 99.0119 396.751 79.3428 391.374C79.3428 391.374 100.108 395.775 110.49 410.9L109.933 414.355Z" fill="#263238"/>
<path d="M109.933 438.807C109.933 438.807 99.0119 421.203 79.3428 415.826C79.3428 415.826 100.108 420.227 110.49 435.352L109.933 438.807Z" fill="#263238"/>
<defs>
<linearGradient id="paint0_linear_302_6231" x1="678.876" y1="-0.0639121" x2="678.648" y2="478.001" gradientUnits="userSpaceOnUse">
<stop stop-color="#D2ECE6"/>
<stop offset="1" stop-color="#FEFEFE"/>
</linearGradient>
</defs>
</svg>
