<svg width="80" height="81" viewBox="0 0 80 81" fill="none" xmlns="http://www.w3.org/2000/svg">
<rect y="0.976562" width="80" height="80" rx="20" fill="#40AF92" fill-opacity="0.2"/>
<path d="M17.7725 56.391H21.1454C21.5086 58.5996 23.5466 60.2982 26.0058 60.2982C28.4624 60.2982 30.4987 58.6031 30.865 56.391H51.7714C52.1345 58.5996 54.1725 60.2982 56.6317 60.2982C59.0883 60.2982 61.1247 58.6031 61.4909 56.391H63.2221C64.4752 56.391 65.4945 55.4367 65.4945 54.2635L65.4938 44.4697C65.6358 41.1061 63.3093 38.8035 61.3357 37.4655C59.9643 36.5271 58.3006 36.0312 56.5252 36.0312H36.0581C35.1305 36.0312 34.2332 36.4433 33.6539 37.1386L27.4601 44.7024C27.3159 44.8766 27.0895 44.9805 26.8543 44.9805H19.2875C17.0976 44.9805 15.503 46.764 15.503 48.3337C15.5027 48.9147 15.4998 54.6169 15.5 54.2635C15.5 55.4367 16.5194 56.391 17.7725 56.391ZM26.0058 58.8799C24.1261 58.8799 22.5971 57.4485 22.5971 55.6842C22.6037 53.9235 24.1328 52.4906 26.0058 52.4906C27.87 52.4906 29.4086 53.9143 29.4145 55.6888C29.4145 57.4485 27.8855 58.8799 26.0058 58.8799ZM56.6317 58.8799C54.752 58.8799 53.223 57.4485 53.223 55.6842C53.2289 53.9231 54.758 52.4906 56.6317 52.4906C58.4959 52.4906 60.0345 53.9143 60.0404 55.6888C60.0404 57.4485 58.5114 58.8799 56.6317 58.8799ZM19.2875 46.3988H26.8543C27.5541 46.3988 28.228 46.0892 28.66 45.5681L34.8523 38.0063C35.143 37.6577 35.5935 37.4495 36.0581 37.4495H56.5252C57.9773 37.4495 59.3318 37.8512 60.4451 38.6127C62.1213 39.7491 64.0957 41.6778 63.9795 44.4417V54.2635C63.9795 54.6545 63.64 54.9727 63.222 54.9727H61.4955C61.1238 52.7671 59.0563 51.0723 56.6317 51.0723C54.2226 51.0723 52.1436 52.7539 51.7679 54.9727H30.8696C30.4928 52.7375 28.3984 51.0723 26.0058 51.0723C23.5832 51.0723 21.5153 52.7679 21.1427 54.9727H17.7725C17.3545 54.9727 17.015 54.6545 17.015 54.2635V52.7178H19.4369C20.2721 52.7178 20.9519 52.0817 20.9519 51.2995V49.0432C20.9519 48.261 20.2721 47.6246 19.4369 47.6246H17.237C17.6009 46.9027 18.3799 46.3988 19.2875 46.3988ZM17.018 49.0429L19.4369 49.0432L19.4376 51.2995H17.018V49.0429Z" fill="#40AF92"/>
<path d="M55.5008 47.5846H60.9475C61.7827 47.5846 62.4625 46.9486 62.4625 46.1663L62.4618 44.3578C62.5335 42.6604 61.5511 41.1119 59.5428 39.7556C58.6987 39.1839 57.6261 38.8691 56.5231 38.8691H55.5008C54.6657 38.8691 53.9858 39.5052 53.9858 40.2874V46.1663C53.9858 46.9486 54.6657 47.5846 55.5008 47.5846ZM55.5008 40.2874H56.5231C57.3102 40.2874 58.067 40.5066 58.6558 40.9052C60.227 41.9665 60.9986 43.1092 60.9475 44.3297L60.9483 46.1663H55.5008V40.2874ZM44.0889 47.5846H50.9063C51.7415 47.5846 52.4213 46.9486 52.4213 46.1663V40.2874C52.4213 39.5052 51.7415 38.8691 50.9063 38.8691H44.0889C43.253 38.8691 42.5731 39.5052 42.5731 40.2874V46.1663C42.5732 46.9486 43.253 47.5846 44.0889 47.5846ZM44.0889 40.2874H50.9063L50.907 46.1663H44.0881L44.0889 40.2874ZM31.9845 47.5846H39.4944C40.3295 47.5846 41.0093 46.9486 41.0093 46.1663V40.2874C41.0093 39.5052 40.3295 38.8691 39.4944 38.8691H36.8002C36.3327 38.8691 35.8829 39.0766 35.5974 39.4242L30.7832 45.3031C30.4289 45.7345 30.3689 46.3059 30.6256 46.7938C30.8831 47.2817 31.4031 47.5846 31.9845 47.5846ZM36.8002 40.2874H39.4944L39.4951 46.1663H31.9853L36.8002 40.2874ZM26.0059 53.689C24.8335 53.689 23.8777 54.5834 23.874 55.6876C23.874 56.7884 24.8305 57.6838 26.0059 57.6838C27.1821 57.6838 28.1386 56.7884 28.1386 55.6831C28.1349 54.5834 27.1784 53.689 26.0059 53.689ZM26.0059 56.2655C25.6657 56.2655 25.389 56.0062 25.389 55.6873C25.3898 55.3673 25.6664 55.1073 26.0059 55.1073C26.3455 55.1073 26.6229 55.3673 26.6236 55.6876C26.6236 56.0062 26.3462 56.2655 26.0059 56.2655ZM56.6319 53.689C55.4601 53.689 54.5037 54.5834 54.4992 55.6876C54.4992 56.7884 55.4557 57.6838 56.6319 57.6838C57.8073 57.6838 58.7638 56.7884 58.7638 55.6831C58.7601 54.5834 57.8036 53.689 56.6319 53.689ZM56.6319 56.2655C56.2916 56.2655 56.0142 56.0062 56.0142 55.688C56.0157 55.3677 56.2924 55.1073 56.6319 55.1073C56.9714 55.1073 57.2481 55.3673 57.2488 55.6876C57.2488 56.0062 56.9722 56.2655 56.6319 56.2655Z" fill="#40AF92"/>
<path d="M18.9324 62.5586H16.2607V63.9769H18.9324V62.5586Z" fill="#40AF92"/>
<path d="M25.4771 62.5586H22.8047V63.9769H25.4771V62.5586Z" fill="#40AF92"/>
<path d="M32.022 62.5586H29.3496V63.9769H32.022V62.5586Z" fill="#40AF92"/>
<path d="M38.565 62.5586H35.8926V63.9769H38.565V62.5586Z" fill="#40AF92"/>
<path d="M45.108 62.5586H42.4355V63.9769H45.108V62.5586Z" fill="#40AF92"/>
<path d="M51.6529 62.5586H48.9805V63.9769H51.6529V62.5586Z" fill="#40AF92"/>
<path d="M58.1961 62.5586H55.5244V63.9769H58.1961V62.5586Z" fill="#40AF92"/>
<path d="M64.7408 62.5586H62.0684V63.9769H64.7408V62.5586Z" fill="#40AF92"/>
<path d="M43.1752 29.7693H45.0009C45.4196 29.7693 45.7584 29.4518 45.7584 29.0602C45.7584 27.9688 46.7127 27.0809 47.8859 27.0809C48.3046 27.0809 48.6434 26.7634 48.6434 26.3718C48.6434 25.2807 49.5984 24.3929 50.7716 24.3929C51.2273 24.3929 51.6674 24.5331 52.0455 24.7987C52.1498 24.8718 52.2718 24.9185 52.4005 24.9344C53.2054 25.0348 54.0183 25.3558 53.9444 26.9753C53.9347 27.1886 54.028 27.395 54.1996 27.5366C54.3705 27.6782 54.6012 27.7402 54.8254 27.7049C54.9245 27.6897 55.0236 27.6744 55.1272 27.6744C56.1251 27.6744 56.9366 28.4293 56.9366 29.3569C56.9366 29.7486 57.2754 30.0661 57.6941 30.0661H60.1412C60.5598 30.0661 60.8986 29.7486 60.8986 29.3569C60.8986 28.9653 60.5598 28.6478 60.1412 28.6478H58.3636C58.0418 27.3694 56.8693 26.3932 55.4364 26.2693C55.27 24.762 54.3527 23.8136 52.7926 23.5563C52.1875 23.1751 51.4921 22.9746 50.7716 22.9746C48.9999 22.9746 47.5197 24.1595 47.195 25.7239C45.7628 25.9815 44.6266 27.0241 44.3233 28.351H43.1752C42.7565 28.351 42.4177 28.6686 42.4177 29.0602C42.4177 29.4518 42.7565 29.7693 43.1752 29.7693ZM36.0493 29.7115C35.7275 28.4331 34.5551 27.457 33.1222 27.333C32.9557 25.8261 32.0385 24.8773 30.4784 24.62C29.8732 24.2388 29.1779 24.0383 28.4574 24.0383C26.6857 24.0383 25.2055 25.2232 24.8808 26.7876C23.4479 27.0453 22.3116 28.0879 22.0083 29.4148H20.861C20.4423 29.4148 20.1035 29.7323 20.1035 30.1239C20.1035 30.5155 20.4423 30.8331 20.861 30.8331H22.6859C23.1046 30.8331 23.4434 30.5155 23.4434 30.1239C23.4434 29.0325 24.3984 28.1447 25.5717 28.1447C25.9904 28.1447 26.3292 27.8271 26.3292 27.4355C26.3292 26.3444 27.2842 25.4566 28.4574 25.4566C28.9131 25.4566 29.3532 25.5968 29.7312 25.8624C29.8355 25.9355 29.9576 25.9822 30.0863 25.9982C30.8911 26.0986 31.7041 26.4196 31.6301 28.039C31.6205 28.2527 31.7145 28.4591 31.8853 28.6007C32.057 28.742 32.2878 28.8043 32.5119 28.7686C32.6103 28.753 32.7102 28.7382 32.813 28.7382C33.8109 28.7382 34.6224 29.493 34.6224 30.4207C34.6224 30.8123 34.9612 31.1298 35.3799 31.1298H37.8262C38.2449 31.1298 38.5837 30.8123 38.5837 30.4207C38.5837 30.029 38.2449 29.7115 37.8262 29.7115L36.0493 29.7115ZM39.4484 22.2315C39.4484 20.6674 40.8073 19.3949 42.4784 19.3949C42.8971 19.3949 43.2359 19.0773 43.2359 18.6857C43.2359 18.2941 42.8971 17.9766 42.4784 17.9766C40.8984 17.9766 39.5056 18.736 38.6909 19.8845C37.8763 18.736 36.4835 17.9766 34.9035 17.9766C34.4848 17.9766 34.146 18.2941 34.146 18.6857C34.146 19.0773 34.4848 19.3949 34.9035 19.3949C36.5745 19.3949 37.9335 20.6674 37.9335 22.2315C37.9335 22.6231 38.2723 22.9406 38.6909 22.9406C39.1096 22.9406 39.4484 22.6231 39.4484 22.2315ZM40.1149 48.816H37.7293C37.4156 48.816 37.1612 49.0542 37.1612 49.3479C37.1612 49.6415 37.4156 49.8797 37.7293 49.8797H40.1149C40.4286 49.8797 40.6831 49.6415 40.6831 49.3479C40.6831 49.0542 40.4286 48.816 40.1149 48.816ZM34.9249 48.816H32.54C32.2264 48.816 31.9719 49.0542 31.9719 49.3479C31.9719 49.6415 32.2264 49.8797 32.54 49.8797H34.9249C35.2386 49.8797 35.4931 49.6415 35.4931 49.3479C35.4931 49.0542 35.2386 48.816 34.9249 48.816Z" fill="#40AF92"/>
</svg>
