<svg width="24" height="25" viewBox="0 0 24 25" fill="none" xmlns="http://www.w3.org/2000/svg">
<path d="M6 2.59961H15C15.5304 2.59961 16.0391 2.81032 16.4142 3.1854C16.7893 3.56047 17 4.06918 17 4.59961V5.59961C17 5.86483 16.8946 6.11918 16.7071 6.30672C16.5196 6.49425 16.2652 6.59961 16 6.59961C15.7348 6.59961 15.4804 6.49425 15.2929 6.30672C15.1054 6.11918 15 5.86483 15 5.59961V4.59961H6V20.5996H15V19.5996C15 19.3344 15.1054 19.08 15.2929 18.8925C15.4804 18.705 15.7348 18.5996 16 18.5996C16.2652 18.5996 16.5196 18.705 16.7071 18.8925C16.8946 19.08 17 19.3344 17 19.5996V20.5996C17 21.13 16.7893 21.6388 16.4142 22.0138C16.0391 22.3889 15.5304 22.5996 15 22.5996H6C5.46957 22.5996 4.96086 22.3889 4.58579 22.0138C4.21071 21.6388 4 21.13 4 20.5996V4.59961C4 4.06918 4.21071 3.56047 4.58579 3.1854C4.96086 2.81032 5.46957 2.59961 6 2.59961Z" fill="black"/>
<path d="M16.795 16.8947C17.185 17.2847 17.815 17.2847 18.205 16.8947L21.793 13.3067C21.9805 13.1192 22.0858 12.8649 22.0858 12.5997C22.0858 12.3346 21.9805 12.0803 21.793 11.8927L18.205 8.30473C18.0149 8.13293 17.7661 8.04073 17.5099 8.04719C17.2538 8.05366 17.0099 8.1583 16.8287 8.33948C16.6476 8.52065 16.5429 8.76452 16.5365 9.02067C16.53 9.27681 16.6222 9.52565 16.794 9.71573L18.67 11.5997H10C9.73478 11.5997 9.48043 11.7051 9.29289 11.8926C9.10536 12.0802 9 12.3345 9 12.5997C9 12.865 9.10536 13.1193 9.29289 13.3068C9.48043 13.4944 9.73478 13.5997 10 13.5997H18.67L16.794 15.4837C16.6073 15.6711 16.5026 15.9249 16.5028 16.1894C16.503 16.454 16.6081 16.7076 16.795 16.8947Z" fill="black"/>
</svg>
