<svg width="31" height="31" viewBox="0 0 31 31" fill="none" xmlns="http://www.w3.org/2000/svg">
<path d="M23.9375 19.2266C23.2295 19.2318 22.5319 19.3972 21.8971 19.7106C21.2622 20.024 20.7066 20.4771 20.2719 21.0359L11.5719 16.6859C11.6838 16.2923 11.7437 15.8857 11.75 15.4766C11.7437 15.0674 11.6838 14.6608 11.5719 14.2672L20.2719 9.91719C20.7066 10.476 21.2622 10.9291 21.8971 11.2425C22.5319 11.5559 23.2295 11.7214 23.9375 11.7266C24.8646 11.7266 25.7709 11.4516 26.5417 10.9366C27.3126 10.4215 27.9134 9.68942 28.2682 8.83289C28.623 7.97636 28.7158 7.03386 28.5349 6.12458C28.3541 5.21529 27.9076 4.38006 27.2521 3.7245C26.5965 3.06894 25.7613 2.6225 24.852 2.44163C23.9427 2.26077 23.0002 2.35359 22.1437 2.70838C21.2871 3.06317 20.5551 3.66397 20.04 4.43483C19.5249 5.20568 19.25 6.11196 19.25 7.03906C19.2563 7.44824 19.3162 7.85482 19.4281 8.24844L10.7281 12.5984C10.2934 12.0396 9.73781 11.5865 9.10294 11.2731C8.46808 10.9597 7.77047 10.7943 7.0625 10.7891C5.8193 10.7891 4.62701 11.2829 3.74794 12.162C2.86886 13.0411 2.375 14.2334 2.375 15.4766C2.375 16.7198 2.86886 17.9121 3.74794 18.7911C4.62701 19.6702 5.8193 20.1641 7.0625 20.1641C7.77047 20.1589 8.46808 19.9934 9.10294 19.68C9.73781 19.3666 10.2934 18.9135 10.7281 18.3547L19.4281 22.7047C19.1753 23.6516 19.2256 24.6539 19.572 25.5708C19.9184 26.4876 20.5434 27.2728 21.3593 27.8159C22.1751 28.359 23.1406 28.6328 24.1201 28.5987C25.0996 28.5646 26.0438 28.2243 26.8198 27.6257C27.5959 27.0271 28.1648 26.2004 28.4465 25.2617C28.7283 24.323 28.7088 23.3195 28.3906 22.3925C28.0725 21.4655 27.4718 20.6615 26.6731 20.0936C25.8743 19.5257 24.9176 19.2225 23.9375 19.2266ZM23.9375 4.22656C24.4938 4.22656 25.0375 4.39152 25.5 4.70056C25.9626 5.0096 26.323 5.44885 26.5359 5.96277C26.7488 6.47668 26.8045 7.04218 26.696 7.58776C26.5874 8.13333 26.3196 8.63447 25.9262 9.0278C25.5329 9.42114 25.0318 9.689 24.4862 9.79752C23.9406 9.90604 23.3751 9.85035 22.8612 9.63748C22.3473 9.4246 21.908 9.06412 21.599 8.60161C21.29 8.13909 21.125 7.59532 21.125 7.03906C21.125 6.29314 21.4213 5.57777 21.9488 5.05033C22.4762 4.52288 23.1916 4.22656 23.9375 4.22656ZM7.0625 18.2891C6.50624 18.2891 5.96247 18.1241 5.49996 17.8151C5.03745 17.506 4.67696 17.0668 4.46409 16.5529C4.25122 16.0389 4.19552 15.4734 4.30404 14.9279C4.41256 14.3823 4.68043 13.8812 5.07376 13.4878C5.4671 13.0945 5.96824 12.8266 6.51381 12.7181C7.05938 12.6096 7.62488 12.6653 8.1388 12.8782C8.65271 13.091 9.09197 13.4515 9.40101 13.914C9.71005 14.3765 9.875 14.9203 9.875 15.4766C9.875 16.2225 9.57868 16.9379 9.05124 17.4653C8.52379 17.9927 7.80842 18.2891 7.0625 18.2891ZM23.9375 26.7266C23.3812 26.7266 22.8375 26.5616 22.375 26.2526C21.9124 25.9435 21.552 25.5043 21.3391 24.9904C21.1262 24.4764 21.0705 23.9109 21.179 23.3654C21.2876 22.8198 21.5554 22.3187 21.9488 21.9253C22.3421 21.532 22.8432 21.2641 23.3888 21.1556C23.9344 21.0471 24.4999 21.1028 25.0138 21.3157C25.5277 21.5285 25.967 21.889 26.276 22.3515C26.5851 22.814 26.75 23.3578 26.75 23.9141C26.75 24.66 26.4537 25.3754 25.9262 25.9028C25.3988 26.4302 24.6834 26.7266 23.9375 26.7266Z" fill="#45ABC2"/>
</svg>
