<svg width="1280" height="3034" viewBox="0 0 1280 3034" fill="none" xmlns="http://www.w3.org/2000/svg">
<path d="M1380.65 -32H551.852C510.435 110 1087.13 238.833 1380.65 285.5V-32Z" fill="#40AF92" fill-opacity="0.1" stroke="#E8F5F2"/>
<path d="M-77.0099 1490.27H-169.85H-332.31C-394.724 1490.27 -452.695 1460.92 -485.557 1412.68L-526.676 1352.32C-560.307 1302.95 -540.131 1237.99 -483.064 1211.9C-431.451 1188.3 -409.129 1132.14 -432.227 1084.01L-448.669 1049.74C-472.973 999.086 -461.798 940.147 -420.243 899.815L-348.117 829.81C-271.831 755.768 -143.261 753.859 -64.3557 825.596L25.6672 907.441C37.3612 918.072 55.5409 920.038 69.6505 912.196C92.3049 899.607 121.62 913.029 123.978 937.069L135.15 1050.87C137.608 1075.91 150.075 1099.24 172.174 1114.35C215.767 1144.15 275.904 1180.86 286.904 1205.29C364.439 1377.46 127.635 1490.27 -77.0099 1490.27Z" fill="#DAEEF3" fill-opacity="0.4"/>
<path d="M1600.92 3033.54H1508.08H1345.62C1283.21 3033.54 1225.24 3004.19 1192.37 2955.95L1151.25 2895.59C1117.62 2846.22 1137.8 2781.26 1194.87 2755.17C1246.48 2731.58 1268.8 2675.42 1245.7 2627.28L1229.26 2593.02C1204.96 2542.36 1216.13 2483.42 1257.69 2443.09L1329.81 2373.09C1406.1 2299.04 1534.67 2297.13 1613.57 2368.87L1703.6 2450.72C1715.29 2461.35 1733.47 2463.31 1747.58 2455.47C1770.24 2442.88 1799.55 2456.3 1801.91 2480.34L1813.08 2594.15C1815.54 2619.19 1828.01 2642.52 1850.1 2657.62C1893.7 2687.42 1953.83 2724.13 1964.83 2748.57C2042.37 2920.73 1805.57 3033.54 1600.92 3033.54Z" fill="#F0F8FA"/>
<ellipse cx="504.755" cy="755.096" rx="504.755" ry="755.096" transform="matrix(0.810951 -0.585114 0.52488 0.851176 403.667 -228.322)" fill="#40AF92" fill-opacity="0.1"/>
</svg>
