<svg width="31" height="31" viewBox="0 0 31 31" fill="none" xmlns="http://www.w3.org/2000/svg">
<g clip-path="url(#clip0_302_5772)">
<path d="M17.21 3.85483L17.2159 3.85571C17.2372 3.85883 17.2587 3.8604 17.2803 3.86039C17.3913 3.86031 17.4982 3.81822 17.5794 3.74259C17.6607 3.66695 17.7103 3.56338 17.7183 3.45266C17.7263 3.34195 17.6921 3.23231 17.6226 3.14577C17.5531 3.05922 17.4534 3.00218 17.3436 2.98612L17.3378 2.98524C17.2225 2.96829 17.1052 2.99785 17.0116 3.0674C16.9181 3.13696 16.8561 3.24082 16.8391 3.35614C16.8222 3.47145 16.8517 3.58877 16.9213 3.6823C16.9908 3.77582 17.0947 3.83788 17.21 3.85483ZM15.5028 3.73037H15.5087C15.6252 3.73037 15.737 3.68407 15.8194 3.60166C15.9018 3.51925 15.9481 3.40747 15.9481 3.29092C15.9481 3.17437 15.9018 3.06259 15.8194 2.98018C15.737 2.89777 15.6252 2.85147 15.5087 2.85147H15.5028C15.3863 2.85147 15.2745 2.89777 15.1921 2.98018C15.1097 3.06259 15.0634 3.17437 15.0634 3.29092C15.0634 3.40747 15.1097 3.51925 15.1921 3.60166C15.2745 3.68407 15.3863 3.73037 15.5028 3.73037ZM13.7311 3.85764C13.7526 3.85762 13.7742 3.85604 13.7955 3.85289L13.8014 3.85201C13.916 3.83426 14.0189 3.77194 14.0877 3.67861C14.1566 3.58529 14.1858 3.46854 14.1689 3.35381C14.152 3.23908 14.0905 3.13567 13.9977 3.06611C13.9049 2.99655 13.7884 2.96649 13.6735 2.98248L13.6677 2.9833C13.5577 2.99928 13.4579 3.0563 13.3883 3.14288C13.3188 3.22946 13.2845 3.33918 13.2926 3.44997C13.3006 3.56076 13.3503 3.66439 13.4316 3.74003C13.513 3.81566 13.62 3.85769 13.7311 3.85764ZM27.5762 14.3005C27.5889 14.3005 27.6018 14.2999 27.6147 14.2988C27.6721 14.2938 27.728 14.2776 27.7791 14.251C27.8303 14.2244 27.8757 14.188 27.9127 14.1439C27.9498 14.0998 27.9778 14.0488 27.9951 13.9938C28.0125 13.9389 28.0189 13.881 28.0139 13.8236L28.0119 13.8045C28.0009 13.7209 27.9661 13.6422 27.9115 13.5778C27.857 13.5135 27.7851 13.4662 27.7044 13.4417C27.6237 13.4172 27.5377 13.4164 27.4565 13.4395C27.3754 13.4626 27.3027 13.5086 27.247 13.5719C27.1914 13.6353 27.1551 13.7134 27.1427 13.7968C27.1302 13.8802 27.1421 13.9655 27.1768 14.0423C27.2115 14.1192 27.2677 14.1844 27.3385 14.2302C27.4094 14.276 27.4919 14.3004 27.5762 14.3005H27.5762ZM24.4619 12.5332C25.6561 12.5332 26.8235 12.179 27.8165 11.5155C28.8094 10.8521 29.5833 9.90903 30.0403 8.80571C30.4973 7.70239 30.6168 6.48834 30.3839 5.31708C30.1509 4.14581 29.5758 3.06994 28.7313 2.22551C27.8869 1.38108 26.811 0.806017 25.6397 0.573046C24.4685 0.340074 23.2544 0.459655 22.1511 0.916667C21.0478 1.37368 20.1048 2.1476 19.4413 3.14055C18.7778 4.13351 18.4237 5.3009 18.4237 6.49512C18.4255 8.09597 19.0623 9.63074 20.1943 10.7627C21.3262 11.8947 22.861 12.5314 24.4619 12.5332H24.4619ZM24.4619 11.6543C23.4194 11.6554 22.4012 11.3389 21.5431 10.7469C21.726 10.1141 22.1096 9.55793 22.636 9.1621C23.1625 8.76627 23.8033 8.55223 24.4619 8.55221C25.1206 8.5522 25.7614 8.76622 26.2879 9.16203C26.8143 9.55783 27.1979 10.114 27.3809 10.7467C26.5227 11.3389 25.5045 11.6555 24.4619 11.6543H24.4619ZM22.7164 5.92764C22.7164 5.58241 22.8188 5.24493 23.0106 4.95789C23.2024 4.67084 23.475 4.44711 23.7939 4.315C24.1129 4.18289 24.4639 4.14832 24.8024 4.21567C25.141 4.28302 25.4521 4.44927 25.6962 4.69338C25.9403 4.93749 26.1065 5.24851 26.1739 5.58711C26.2412 5.9257 26.2067 6.27667 26.0746 6.59562C25.9424 6.91457 25.7187 7.18718 25.4317 7.37898C25.1446 7.57077 24.8071 7.67315 24.4619 7.67315C23.9991 7.67264 23.5555 7.48857 23.2282 7.16133C22.901 6.8341 22.7169 6.39042 22.7164 5.92764ZM24.4619 1.33588C25.4829 1.33539 26.481 1.63797 27.3298 2.20529C28.1786 2.7726 28.84 3.57911 29.23 4.52263C29.62 5.46614 29.7212 6.5042 29.5207 7.50528C29.3202 8.50635 28.8271 9.42538 28.1038 10.1459C27.7253 9.1945 26.9904 8.42845 26.0554 8.01094C26.4916 7.67762 26.8122 7.21592 26.9723 6.69082C27.1323 6.16573 27.1236 5.60367 26.9475 5.08375C26.7714 4.56383 26.4367 4.11222 25.9905 3.79248C25.5443 3.47274 25.0091 3.30096 24.4601 3.30133C23.9112 3.30169 23.3762 3.47418 22.9304 3.79451C22.4846 4.11484 22.1505 4.56689 21.9751 5.08704C21.7996 5.6072 21.7917 6.16927 21.9525 6.69415C22.1132 7.21903 22.4344 7.6803 22.871 8.01305C21.9358 8.43001 21.2001 9.19536 20.8204 10.1463C20.0969 9.42583 19.6037 8.50679 19.4031 7.50567C19.2025 6.50456 19.3036 5.46643 19.6936 4.52284C20.0836 3.57925 20.745 2.77267 21.5939 2.20532C22.4427 1.63796 23.4409 1.33537 24.4619 1.33588ZM28.0766 15.6834L28.0774 15.6654C28.0775 15.6632 28.0775 15.6611 28.0775 15.6589L28.0776 15.6587L28.0783 15.6407C28.08 15.5831 28.0703 15.5258 28.0499 15.472C28.0294 15.4182 27.9985 15.369 27.959 15.3271C27.9195 15.2853 27.8722 15.2516 27.8196 15.228C27.7671 15.2045 27.7105 15.1915 27.6529 15.1898C27.6484 15.1897 27.6439 15.1896 27.6395 15.1896C27.5258 15.1898 27.4167 15.2341 27.335 15.313C27.2532 15.392 27.2053 15.4996 27.2012 15.6131C27.2009 15.6182 27.2008 15.6231 27.2006 15.6281L27.2002 15.6379C27.1948 15.7533 27.2352 15.8662 27.3126 15.9521C27.39 16.0379 27.4981 16.0898 27.6135 16.0964C27.6221 16.0969 27.6305 16.0972 27.6389 16.0972C27.7509 16.0971 27.8586 16.0542 27.94 15.9772C28.0214 15.9003 28.0702 15.7952 28.0766 15.6834ZM24.4619 18.3602C23.2677 18.3602 22.1003 18.7144 21.1073 19.3778C20.1144 20.0413 19.3405 20.9843 18.8835 22.0876C18.4264 23.191 18.3069 24.405 18.5399 25.5763C18.7728 26.7476 19.3479 27.8235 20.1923 28.6679C21.0368 29.5123 22.1127 30.0874 23.2839 30.3204C24.4552 30.5534 25.6693 30.4338 26.7726 29.9768C27.8759 29.5198 28.8189 28.7459 29.4824 27.7529C30.1459 26.7599 30.5 25.5925 30.5 24.3983C30.4982 22.7975 29.8614 21.2627 28.7295 20.1308C27.5975 18.9988 26.0628 18.3621 24.4619 18.3602ZM24.4619 29.5576C23.4194 29.5587 22.4012 29.2422 21.5431 28.6502C21.726 28.0174 22.1095 27.4612 22.636 27.0654C23.1624 26.6696 23.8032 26.4555 24.4619 26.4555C25.1206 26.4555 25.7614 26.6695 26.2879 27.0653C26.8143 27.4611 27.1979 28.0173 27.3809 28.65C26.5227 29.2422 25.5045 29.5588 24.4619 29.5576L24.4619 29.5576ZM22.7164 23.831C22.7164 23.4857 22.8188 23.1483 23.0106 22.8612C23.2024 22.5742 23.475 22.3504 23.7939 22.2183C24.1129 22.0862 24.4639 22.0516 24.8024 22.119C25.141 22.1863 25.4521 22.3526 25.6962 22.5967C25.9403 22.8408 26.1065 23.1518 26.1739 23.4904C26.2412 23.829 26.2067 24.18 26.0746 24.4989C25.9424 24.8179 25.7187 25.0905 25.4317 25.2823C25.1446 25.4741 24.8071 25.5765 24.4619 25.5765C23.9991 25.5759 23.5555 25.3919 23.2282 25.0646C22.901 24.7374 22.7169 24.2937 22.7164 23.831ZM28.1038 28.0492C27.7254 27.0978 26.9904 26.3317 26.0554 25.9142C26.4916 25.5809 26.8122 25.1192 26.9722 24.5941C27.1323 24.069 27.1236 23.5069 26.9475 22.987C26.7714 22.4671 26.4366 22.0155 25.9904 21.6957C25.5442 21.376 25.009 21.2042 24.46 21.2046C23.9111 21.205 23.3761 21.3775 22.9303 21.6978C22.4845 22.0182 22.1504 22.4702 21.975 22.9904C21.7996 23.5105 21.7917 24.0726 21.9524 24.5975C22.1132 25.1224 22.4344 25.5836 22.871 25.9164C21.9358 26.3333 21.2001 27.0987 20.8204 28.0496C20.097 27.3289 19.6038 26.4097 19.4032 25.4084C19.2026 24.4071 19.3037 23.3689 19.6936 22.4251C20.0835 21.4813 20.7447 20.6744 21.5934 20.1067C22.4422 19.5389 23.4404 19.2358 24.4616 19.2358C25.4827 19.2357 26.4809 19.5387 27.3298 20.1064C28.1786 20.674 28.8399 21.4808 29.2299 22.4245C29.6199 23.3683 29.7211 24.4065 29.5206 25.4078C29.3202 26.4091 28.827 27.3284 28.1038 28.0492ZM27.0116 17.3365C26.9894 17.4504 27.0132 17.5684 27.0778 17.6647C27.1423 17.761 27.2424 17.8279 27.3561 17.8507C27.4698 17.8735 27.5879 17.8503 27.6846 17.7863C27.7813 17.7222 27.8487 17.6225 27.8721 17.5089L27.8755 17.4908C27.8945 17.3769 27.8678 17.26 27.8013 17.1656C27.7347 17.0712 27.6335 17.0068 27.5198 16.9865C27.406 16.9662 27.2889 16.9916 27.1937 17.0571C27.0986 17.1227 27.0331 17.2231 27.0116 17.3366V17.3365ZM17.2803 27.4608C17.2587 27.4608 17.2372 27.4624 17.2159 27.4655L17.21 27.4664C17.0955 27.4843 16.9927 27.5466 16.924 27.6399C16.8552 27.7332 16.8261 27.8499 16.843 27.9645C16.8598 28.0791 16.9213 28.1825 17.0139 28.2521C17.1066 28.3216 17.223 28.3518 17.3378 28.3359L17.3437 28.3351C17.4535 28.319 17.5532 28.262 17.6227 28.1755C17.6922 28.0889 17.7264 27.9793 17.7183 27.8685C17.7103 27.7578 17.6607 27.6542 17.5794 27.5786C17.4982 27.503 17.3913 27.4609 17.2803 27.4608ZM6.53809 18.3602C5.34387 18.3602 4.17647 18.7144 3.18351 19.3778C2.19055 20.0413 1.41663 20.9843 0.959625 22.0876C0.502616 23.191 0.383042 24.405 0.616023 25.5763C0.849004 26.7476 1.42408 27.8235 2.26852 28.6679C3.11296 29.5123 4.18884 30.0874 5.36012 30.3204C6.53139 30.5534 7.74545 30.4338 8.84876 29.9768C9.95208 29.5198 10.8951 28.7459 11.5586 27.7529C12.222 26.7599 12.5762 25.5925 12.5762 24.3983C12.5743 22.7975 11.9376 21.2627 10.8056 20.1308C9.67367 18.9988 8.13893 18.3621 6.53809 18.3602ZM6.53809 29.5576C5.49553 29.5587 4.47737 29.2422 3.61924 28.6501C3.79173 28.0572 4.14036 27.5308 4.6189 27.1406C5.09743 26.7504 5.68327 26.5149 6.29873 26.4653C6.37831 26.4727 6.45817 26.4765 6.53809 26.4766C6.61836 26.4766 6.69758 26.4724 6.77598 26.4654C7.39204 26.5136 7.97876 26.7485 8.45781 27.1388C8.93686 27.5292 9.28545 28.0564 9.45705 28.65C8.59891 29.2421 7.5807 29.5587 6.53809 29.5576V29.5576ZM4.78192 23.8416C4.78182 23.5037 4.8792 23.173 5.06237 22.8891C5.24554 22.6052 5.50672 22.3801 5.81459 22.2409C6.12247 22.1017 6.46396 22.0543 6.79811 22.1043C7.13226 22.1544 7.44489 22.2997 7.6985 22.523C7.95211 22.7462 8.13593 23.0379 8.22792 23.363C8.31991 23.6881 8.31616 24.0329 8.21712 24.3559C8.11808 24.6789 7.92796 24.9666 7.66956 25.1842C7.41115 25.4019 7.09544 25.5405 6.76028 25.5832C6.68621 25.5789 6.61204 25.5766 6.53785 25.5765C6.46397 25.5765 6.39061 25.5793 6.31754 25.5834C5.89363 25.5293 5.50394 25.3226 5.22132 25.0021C4.9387 24.6815 4.7825 24.269 4.78192 23.8416ZM10.1799 28.0492C9.80421 27.1047 9.07709 26.3426 8.15129 25.9229C8.58595 25.5864 8.90446 25.1223 9.06223 24.5957C9.21999 24.0691 9.20911 23.5063 9.0311 22.9862C8.85309 22.4661 8.51687 22.0147 8.06952 21.6952C7.62218 21.3757 7.0861 21.2041 6.53638 21.2045C5.98665 21.2048 5.45079 21.3771 5.00385 21.6971C4.55691 22.0172 4.22127 22.4691 4.04392 22.9894C3.86657 23.5097 3.85641 24.0725 4.01484 24.5989C4.17327 25.1253 4.49238 25.589 4.92746 25.925C4.00135 26.3441 3.2735 27.1055 2.8966 28.0496C2.17323 27.3288 1.68001 26.4096 1.47942 25.4083C1.27883 24.4071 1.37989 23.3688 1.7698 22.425C2.1597 21.4812 2.82092 20.6743 3.66971 20.1066C4.51849 19.5389 5.51668 19.2358 6.53784 19.2357C7.559 19.2357 8.55721 19.5387 9.40606 20.1063C10.2549 20.674 10.9162 21.4808 11.3062 22.4245C11.6962 23.3683 11.7973 24.4066 11.5968 25.4078C11.3964 26.4091 10.9032 27.3284 10.1799 28.0492ZM15.5086 27.5909H15.5028C15.3862 27.5909 15.2744 27.6372 15.192 27.7196C15.1096 27.802 15.0633 27.9138 15.0633 28.0303C15.0633 28.1469 15.1096 28.2586 15.192 28.3411C15.2744 28.4235 15.3862 28.4698 15.5028 28.4698H15.5086C15.6252 28.4698 15.7369 28.4235 15.8194 28.3411C15.9018 28.2586 15.9481 28.1469 15.9481 28.0303C15.9481 27.9138 15.9018 27.802 15.8194 27.7196C15.7369 27.6372 15.6252 27.5909 15.5086 27.5909ZM16.3773 27.6707L16.3779 27.6783L16.3728 27.5926L16.3773 27.6707ZM13.8013 27.4692L13.7955 27.4683C13.7741 27.4652 13.7526 27.4636 13.731 27.4637C13.6201 27.4638 13.5133 27.5059 13.4321 27.5816C13.351 27.6572 13.3014 27.7607 13.2934 27.8713C13.2853 27.982 13.3195 28.0916 13.3889 28.1781C13.4583 28.2646 13.5579 28.3217 13.6677 28.3379L13.6735 28.3388C13.7888 28.3557 13.9062 28.3262 13.9997 28.2566C14.0932 28.1871 14.1552 28.0832 14.1722 27.9679C14.1891 27.8526 14.1596 27.7352 14.09 27.6417C14.0204 27.5482 13.9166 27.4862 13.8013 27.4692L13.8013 27.4692ZM14.5915 27.6502L14.5969 27.5895L14.5918 27.6462L14.5915 27.6502ZM18.1395 27.384L18.1401 27.3865L18.1301 27.3382L18.1395 27.384ZM19.8601 18.0867C19.8603 17.7285 19.7493 17.3791 19.5424 17.0867C19.3355 16.7944 19.0429 16.5734 18.705 16.4545C18.3672 16.3355 18.0007 16.3244 17.6563 16.4226C17.3118 16.5209 17.0064 16.7236 16.7821 17.0029L14.5781 15.7341C14.6081 15.5505 14.6081 15.3634 14.5781 15.1799L16.7822 13.911C17.0455 14.2375 17.4187 14.4569 17.8319 14.5283C18.2452 14.5998 18.6704 14.5184 19.028 14.2994C19.3857 14.0803 19.6514 13.7386 19.7756 13.338C19.8998 12.9374 19.8739 12.5053 19.7028 12.1223C19.5318 11.7394 19.2272 11.4318 18.8459 11.257C18.4647 11.0822 18.0328 11.0521 17.631 11.1723C17.2292 11.2926 16.8849 11.555 16.6624 11.9105C16.4399 12.266 16.3543 12.6904 16.4217 13.1043L14.2177 14.3732C13.9933 14.0939 13.6878 13.8911 13.3433 13.7929C12.9988 13.6947 12.6322 13.7058 12.2943 13.8247C11.9564 13.9437 11.6637 14.1646 11.4567 14.4569C11.2496 14.7493 11.1384 15.0987 11.1384 15.457C11.1384 15.8152 11.2496 16.1646 11.4567 16.457C11.6637 16.7494 11.9564 16.9703 12.2943 17.0892C12.6322 17.2082 12.9988 17.2193 13.3433 17.121C13.6878 17.0228 13.9933 16.8201 14.2177 16.5408L16.4217 17.8096C16.3834 18.0455 16.3944 18.2868 16.4539 18.5182C16.5135 18.7497 16.6203 18.9663 16.7677 19.1544C16.9151 19.3425 17.0999 19.498 17.3104 19.6112C17.5209 19.7243 17.7525 19.7926 17.9908 19.8118C18.229 19.831 18.4686 19.8007 18.6945 19.7227C18.9204 19.6447 19.1276 19.5208 19.3033 19.3587C19.4789 19.1966 19.619 18.9999 19.7149 18.781C19.8107 18.5621 19.8602 18.3257 19.8601 18.0867ZM18.1297 11.9757C18.2981 11.9757 18.4628 12.0256 18.6028 12.1192C18.7428 12.2127 18.852 12.3457 18.9165 12.5013C18.9809 12.6569 18.9978 12.8281 18.9649 12.9933C18.9321 13.1585 18.851 13.3102 18.7319 13.4293C18.6128 13.5484 18.4611 13.6295 18.2959 13.6624C18.1307 13.6953 17.9595 13.6784 17.8039 13.614C17.6483 13.5495 17.5153 13.4404 17.4217 13.3003C17.3281 13.1603 17.2782 12.9956 17.2782 12.8272C17.2785 12.6015 17.3683 12.385 17.5279 12.2254C17.6875 12.0658 17.9039 11.976 18.1297 11.9757ZM12.8702 16.3085C12.7018 16.3085 12.5372 16.2585 12.3971 16.165C12.2571 16.0714 12.148 15.9384 12.0835 15.7828C12.0191 15.6272 12.0022 15.456 12.0351 15.2909C12.0679 15.1257 12.149 14.974 12.2681 14.8549C12.3872 14.7358 12.5389 14.6547 12.7041 14.6219C12.8693 14.589 13.0405 14.6059 13.196 14.6703C13.3516 14.7348 13.4846 14.8439 13.5782 14.9839C13.6717 15.1239 13.7217 15.2886 13.7217 15.457C13.7214 15.6827 13.6316 15.8991 13.472 16.0588C13.3124 16.2184 13.0959 16.3082 12.8702 16.3085ZM18.1297 18.9383C17.9613 18.9383 17.7966 18.8883 17.6566 18.7948C17.5166 18.7012 17.4074 18.5682 17.343 18.4126C17.2785 18.257 17.2617 18.0858 17.2945 17.9206C17.3274 17.7554 17.4085 17.6037 17.5276 17.4846C17.6466 17.3655 17.7984 17.2844 17.9636 17.2515C18.1287 17.2187 18.3 17.2355 18.4556 17.3C18.6112 17.3644 18.7442 17.4736 18.8377 17.6136C18.9313 17.7537 18.9812 17.9183 18.9812 18.0867C18.981 18.3125 18.8912 18.5289 18.7315 18.6886C18.5719 18.8482 18.3555 18.938 18.1297 18.9383ZM6.53809 12.5332C7.73231 12.5332 8.89971 12.1791 9.89267 11.5156C10.8856 10.8521 11.6595 9.90911 12.1166 8.80579C12.5736 7.70248 12.6931 6.48842 12.4602 5.31715C12.2272 4.14587 11.6521 3.06999 10.8077 2.22555C9.96322 1.38111 8.88733 0.806035 7.71606 0.573054C6.54479 0.340073 5.33073 0.459647 4.22741 0.916656C3.1241 1.37366 2.18108 2.14758 1.5176 3.14054C0.85413 4.1335 0.500003 5.3009 0.500003 6.49512C0.501817 8.09596 1.13855 9.63072 2.27052 10.7627C3.40249 11.8947 4.93725 12.5314 6.53809 12.5332ZM6.53809 11.6543C5.49553 11.6554 4.47737 11.3389 3.61924 10.7469C3.80219 10.1141 4.18578 9.558 4.71222 9.1622C5.23867 8.7664 5.87947 8.55238 6.5381 8.55237C7.19674 8.55235 7.83755 8.76635 8.36401 9.16213C8.89047 9.55791 9.27408 10.114 9.45705 10.7467C8.5989 11.3389 7.5807 11.6554 6.53809 11.6543ZM4.79258 5.92764C4.79258 5.58241 4.89495 5.24493 5.08675 4.95789C5.27855 4.67084 5.55116 4.44711 5.87011 4.315C6.18906 4.18289 6.54002 4.14832 6.87862 4.21567C7.21722 4.28302 7.52823 4.44927 7.77235 4.69338C8.01646 4.93749 8.18271 5.24851 8.25006 5.58711C8.31741 5.9257 8.28284 6.27667 8.15073 6.59562C8.01861 6.91457 7.79489 7.18718 7.50784 7.37898C7.22079 7.57077 6.88332 7.67315 6.53809 7.67315C6.07531 7.67264 5.63163 7.48857 5.30439 7.16133C4.97716 6.8341 4.79309 6.39042 4.79258 5.92764ZM6.53809 1.33588C7.55905 1.33538 8.55718 1.63795 9.40601 2.20526C10.2548 2.77257 10.9162 3.57908 11.3062 4.5226C11.6962 5.46612 11.7974 6.50418 11.5969 7.50526C11.3964 8.50634 10.9033 9.42537 10.18 10.1459C9.80149 9.19452 9.06652 8.42848 8.1316 8.01094C8.56777 7.67762 8.88843 7.21592 9.04846 6.69083C9.2085 6.16573 9.19985 5.60367 9.02374 5.08375C8.84762 4.56382 8.51291 4.11221 8.0667 3.79246C7.6205 3.47272 7.08526 3.30094 6.53632 3.30131C5.98737 3.30167 5.45236 3.47416 5.00658 3.79449C4.56079 4.11483 4.22668 4.56688 4.05126 5.08704C3.87583 5.6072 3.86793 6.16927 4.02866 6.69415C4.18939 7.21904 4.51067 7.68031 4.94727 8.01305C4.01203 8.43001 3.27632 9.19536 2.8966 10.1463C2.17318 9.42583 1.67992 8.5068 1.47934 7.50569C1.27875 6.50458 1.37986 5.46645 1.76986 4.52287C2.15986 3.57928 2.82119 2.7727 3.67005 2.20534C4.5189 1.63798 5.51708 1.33538 6.53809 1.33588ZM3.35926 16.0617C3.3636 16.0617 3.36805 16.0615 3.37239 16.0614C3.48871 16.058 3.59892 16.0085 3.67876 15.9238C3.7586 15.8392 3.80153 15.7262 3.79813 15.6099L3.79731 15.5919C3.7913 15.5066 3.76053 15.425 3.70877 15.357C3.65701 15.289 3.58651 15.2375 3.50594 15.209C3.42536 15.1805 3.33821 15.1761 3.25518 15.1965C3.17216 15.2168 3.09687 15.2609 3.03858 15.3234C2.98028 15.3859 2.9415 15.4641 2.92701 15.5483C2.91252 15.6326 2.92294 15.7192 2.957 15.7976C2.99106 15.876 3.04726 15.9427 3.11872 15.9896C3.19018 16.0365 3.27378 16.0616 3.35926 16.0617ZM3.28731 15.6248L3.35949 15.6229L3.2808 15.6252L3.28731 15.6248ZM3.3742 14.2868C3.39139 14.2888 3.40869 14.2898 3.426 14.2898C3.53339 14.2896 3.637 14.2501 3.7172 14.1787C3.7974 14.1073 3.84863 14.0089 3.86117 13.9022L3.86322 13.8831C3.86953 13.7974 3.85052 13.7117 3.80853 13.6366C3.76655 13.5616 3.70345 13.5006 3.62707 13.4611C3.55069 13.4216 3.46439 13.4054 3.3789 13.4146C3.2934 13.4237 3.21248 13.4577 3.14617 13.5125C3.07986 13.5672 3.03109 13.6402 3.00591 13.7224C2.98073 13.8046 2.98026 13.8924 3.00455 13.9749C3.02884 14.0574 3.07682 14.1309 3.14254 14.1864C3.20826 14.2418 3.28881 14.2767 3.3742 14.2868ZM3.54957 17.8244C3.61368 17.8244 3.67702 17.8104 3.73513 17.7833C3.79324 17.7562 3.84473 17.7168 3.88596 17.6677C3.92719 17.6186 3.95718 17.5611 3.97381 17.4992C3.99044 17.4372 3.99331 17.3724 3.98223 17.3093L3.97877 17.2913C3.96099 17.2105 3.92073 17.1363 3.86264 17.0774C3.80455 17.0185 3.73099 16.9772 3.65045 16.9583C3.56991 16.9394 3.48567 16.9437 3.40743 16.9706C3.3292 16.9975 3.26017 17.046 3.20829 17.1104C3.15642 17.1748 3.12381 17.2526 3.11424 17.3348C3.10467 17.417 3.11852 17.5002 3.1542 17.5748C3.18987 17.6495 3.24592 17.7125 3.31587 17.7567C3.38583 17.8008 3.46684 17.8243 3.54957 17.8245V17.8244ZM3.47985 17.3978L3.55016 17.3855L3.47364 17.399L3.47985 17.3978Z" fill="#45ABC2"/>
</g>
<defs>
<clipPath id="clip0_302_5772">
<rect width="30" height="30" fill="white" transform="translate(0.5 0.476562)"/>
</clipPath>
</defs>
</svg>
