<svg width="31" height="31" viewBox="0 0 31 31" fill="none" xmlns="http://www.w3.org/2000/svg">
<g clip-path="url(#clip0_302_5763)">
<path d="M15.0313 0.945312H7.53125C6.90988 0.946057 6.31417 1.19323 5.87479 1.6326C5.43541 2.07198 5.18824 2.66769 5.1875 3.28906V20.1641C5.18824 20.7854 5.43541 21.3811 5.87479 21.8205C6.31417 22.2599 6.90988 22.5071 7.53125 22.5078H14.0938V23.9141C14.0929 25.2367 14.5784 26.5135 15.4578 27.5014L17.9623 30.3191L18.6627 29.6966L16.1563 26.8789C15.4307 26.0618 15.0304 25.0068 15.0313 23.9141V21.1016C15.0313 21.0288 15.0143 20.957 14.9818 20.8919C14.9492 20.8268 14.902 20.7702 14.8438 20.7266L12.0725 18.6481C11.8274 18.4634 11.6284 18.2245 11.4911 17.95C11.3538 17.6755 11.282 17.373 11.2812 17.0661C11.2813 16.953 11.3107 16.8418 11.3667 16.7436C11.4226 16.6453 11.5032 16.5632 11.6005 16.5055C11.6977 16.4478 11.8083 16.4163 11.9214 16.4143C12.0345 16.4122 12.1462 16.4396 12.2455 16.4938L17.0773 19.1295L20.3033 22.8163L21.0092 22.1994L17.728 18.4494C17.6914 18.4078 17.648 18.3729 17.5995 18.3463L17.375 18.2239V12.3894L19.8561 14.8705C20.9985 16.0179 21.741 17.5028 21.9734 19.1052L23.0047 26.3239C23.0121 26.3728 23.0271 26.4203 23.0492 26.4645L24.9242 30.2145L25.7633 29.7955L23.922 26.1172L22.9016 18.9725C22.64 17.1694 21.8045 15.4986 20.5189 14.2077L17.375 11.0638V3.28906C17.3743 2.66769 17.1271 2.07198 16.6877 1.6326C16.2483 1.19323 15.6526 0.946057 15.0313 0.945312ZM7.53125 1.88281H15.0313C15.4042 1.88281 15.7619 2.03097 16.0256 2.29469C16.2893 2.55842 16.4375 2.9161 16.4375 3.28906V4.69531H6.125V3.28906C6.125 2.9161 6.27316 2.55842 6.53688 2.29469C6.8006 2.03097 7.15829 1.88281 7.53125 1.88281ZM6.125 20.1641V19.6953H10.2406C10.0055 19.9509 9.87498 20.2855 9.87498 20.6328C9.87498 20.9801 10.0055 21.3147 10.2406 21.5703H7.53125C7.15829 21.5703 6.8006 21.4222 6.53688 21.1584C6.27316 20.8947 6.125 20.537 6.125 20.1641ZM11.2812 21.1016C11.1885 21.1016 11.0979 21.0741 11.0208 21.0226C10.9437 20.9711 10.8837 20.8979 10.8482 20.8122C10.8127 20.7265 10.8034 20.6323 10.8215 20.5414C10.8396 20.4504 10.8842 20.3669 10.9498 20.3014C11.0153 20.2358 11.0989 20.1912 11.1898 20.1731C11.2807 20.155 11.375 20.1643 11.4606 20.1997C11.5463 20.2352 11.6195 20.2953 11.671 20.3724C11.7225 20.4495 11.75 20.5401 11.75 20.6328C11.75 20.7571 11.7006 20.8764 11.6127 20.9643C11.5248 21.0522 11.4056 21.1016 11.2812 21.1016ZM14.0938 21.5703H12.3219C12.487 21.3945 12.602 21.1776 12.6548 20.9422C12.7076 20.7068 12.6964 20.4616 12.6223 20.232L14.0938 21.3359V21.5703ZM12.6941 15.6706C12.452 15.5385 12.1797 15.4717 11.904 15.4767C11.6283 15.4817 11.3587 15.5583 11.1215 15.6991C10.8844 15.8399 10.688 16.04 10.5517 16.2796C10.4153 16.5193 10.3436 16.7903 10.3438 17.0661C10.3462 17.6733 10.5379 18.2647 10.8922 18.7578H6.125V5.63281H16.4375V17.7125L12.6941 15.6706Z" fill="#45ABC2"/>
<path d="M13.1562 2.82031H9.40625V3.75781H13.1562V2.82031Z" fill="#45ABC2"/>
<path d="M15.3626 9.52006L13.9563 8.11381C13.8684 8.02593 13.7492 7.97656 13.6249 7.97656C13.5006 7.97656 13.3814 8.02593 13.2935 8.11381L10.3436 11.0637L9.26881 9.98881C9.1809 9.90093 9.0617 9.85156 8.9374 9.85156C8.8131 9.85156 8.6939 9.90093 8.60599 9.98881L7.19974 11.3951C7.11187 11.483 7.0625 11.6022 7.0625 11.7265C7.0625 11.8508 7.11187 11.97 7.19974 12.0579L10.0122 14.8704C10.1001 14.9582 10.2194 15.0076 10.3436 15.0076C10.4679 15.0076 10.5872 14.9582 10.6751 14.8704L15.3626 10.1829C15.4504 10.095 15.4998 9.97576 15.4998 9.85146C15.4998 9.72717 15.4504 9.60796 15.3626 9.52006ZM10.3436 13.8762L8.19396 11.7265L8.9374 10.983L10.0122 12.0579C10.1001 12.1457 10.2194 12.1951 10.3436 12.1951C10.4679 12.1951 10.5872 12.1457 10.6751 12.0579L13.6249 9.10802L14.3683 9.85146L10.3436 13.8762Z" fill="#45ABC2"/>
</g>
<defs>
<clipPath id="clip0_302_5763">
<rect width="30" height="30" fill="white" transform="translate(0.5 0.476562)"/>
</clipPath>
</defs>
</svg>
