<svg width="16" height="17" viewBox="0 0 16 17" fill="none" xmlns="http://www.w3.org/2000/svg">
<path d="M13.6666 0.599609C13.0529 0.59956 12.4639 0.833466 12.0272 1.25066C11.5905 1.66786 11.3411 2.23476 11.3333 2.82857C11.3333 5.05431 13.6666 6.08331 13.6666 6.08331C13.6666 6.08331 15.9999 5.05431 15.9999 2.82857C15.992 2.23476 15.7427 1.66786 15.306 1.25066C14.8693 0.833466 14.2803 0.59956 13.6666 0.599609ZM13.6666 3.78661C13.4737 3.78279 13.2862 3.72395 13.1277 3.61746C12.9692 3.51096 12.8467 3.36155 12.7756 3.18796C12.7045 3.01437 12.6879 2.82432 12.7279 2.64165C12.768 2.45898 12.8628 2.29182 13.0007 2.16112C13.1385 2.03042 13.3131 1.942 13.5026 1.90695C13.6922 1.87189 13.8882 1.89177 14.0661 1.96408C14.244 2.0364 14.3959 2.15793 14.5027 2.31344C14.6095 2.46895 14.6665 2.65151 14.6666 2.83825C14.6613 3.09153 14.5537 3.33273 14.3667 3.51005C14.1797 3.68736 13.9284 3.78666 13.6666 3.78661Z" fill="black"/>
<path d="M0 16.6L0.703333 14.342L0 12.084L4.33333 14.342L0 16.6Z" fill="black"/>
<path d="M5.33317 14.0184H13.1665C13.5643 14.0184 13.9459 13.8655 14.2272 13.5933C14.5085 13.321 14.6665 12.9518 14.6665 12.5669C14.6665 12.1819 14.5085 11.8127 14.2272 11.5404C13.9459 11.2682 13.5643 11.1153 13.1665 11.1153H2.83317C2.25853 11.1153 1.70743 10.8944 1.30111 10.5012C0.894777 10.108 0.666504 9.57466 0.666504 9.01858C0.666504 8.4625 0.894777 7.9292 1.30111 7.53599C1.70743 7.14278 2.25853 6.92188 2.83317 6.92188H13.6665" stroke="black" stroke-linecap="round"/>
</svg>
