<svg width="16" height="17" viewBox="0 0 16 17" fill="none" xmlns="http://www.w3.org/2000/svg">
<path d="M8.86658 8.74693C9.2223 8.43902 9.50762 8.05818 9.70317 7.63028C9.89872 7.20237 9.99992 6.7374 9.99992 6.26693C9.99992 5.38287 9.64873 4.53503 9.02361 3.9099C8.39849 3.28478 7.55064 2.93359 6.66658 2.93359C5.78253 2.93359 4.93468 3.28478 4.30956 3.9099C3.68444 4.53503 3.33325 5.38287 3.33325 6.26693C3.33325 6.7374 3.43445 7.20237 3.63 7.63028C3.82555 8.05818 4.11087 8.43902 4.46658 8.74693C3.53334 9.16952 2.74156 9.85195 2.18591 10.7126C1.63025 11.5733 1.33423 12.5758 1.33325 13.6003C1.33325 13.7771 1.40349 13.9466 1.52851 14.0717C1.65354 14.1967 1.82311 14.2669 1.99992 14.2669C2.17673 14.2669 2.3463 14.1967 2.47132 14.0717C2.59635 13.9466 2.66659 13.7771 2.66659 13.6003C2.66659 12.5394 3.08801 11.522 3.83816 10.7718C4.5883 10.0217 5.60572 9.60026 6.66658 9.60026C7.72745 9.60026 8.74487 10.0217 9.49501 10.7718C10.2452 11.522 10.6666 12.5394 10.6666 13.6003C10.6666 13.7771 10.7368 13.9466 10.8618 14.0717C10.9869 14.1967 11.1564 14.2669 11.3333 14.2669C11.5101 14.2669 11.6796 14.1967 11.8047 14.0717C11.9297 13.9466 11.9999 13.7771 11.9999 13.6003C11.9989 12.5758 11.7029 11.5733 11.1473 10.7126C10.5916 9.85195 9.79982 9.16952 8.86658 8.74693ZM6.66658 8.26693C6.27102 8.26693 5.88434 8.14963 5.55544 7.92987C5.22655 7.7101 4.9702 7.39775 4.81883 7.03229C4.66745 6.66684 4.62784 6.26471 4.70501 5.87675C4.78219 5.48878 4.97267 5.13242 5.25237 4.85271C5.53208 4.57301 5.88844 4.38253 6.2764 4.30536C6.66437 4.22819 7.0665 4.26779 7.43195 4.41917C7.7974 4.57054 8.10976 4.82689 8.32952 5.15579C8.54929 5.48468 8.66658 5.87136 8.66658 6.26693C8.66658 6.79736 8.45587 7.30607 8.0808 7.68114C7.70573 8.05621 7.19702 8.26693 6.66658 8.26693ZM14.4733 6.68693C14.4113 6.62444 14.3375 6.57485 14.2563 6.541C14.1751 6.50715 14.0879 6.48973 13.9999 6.48973C13.9119 6.48973 13.8248 6.50715 13.7435 6.541C13.6623 6.57485 13.5886 6.62444 13.5266 6.68693L12.1933 8.02026L11.7799 7.60026C11.7179 7.53777 11.6442 7.48818 11.563 7.45433C11.4817 7.42049 11.3946 7.40306 11.3066 7.40306C11.2186 7.40306 11.1314 7.42049 11.0502 7.45433C10.969 7.48818 10.8952 7.53777 10.8333 7.60026C10.7091 7.72517 10.6394 7.89414 10.6394 8.07026C10.6394 8.24638 10.7091 8.41535 10.8333 8.54026L11.7266 9.43359C11.8515 9.55776 12.0205 9.62745 12.1966 9.62745C12.3727 9.62745 12.5417 9.55776 12.6666 9.43359L14.4466 7.65359C14.5139 7.59314 14.5682 7.51962 14.6062 7.43751C14.6442 7.3554 14.665 7.26642 14.6675 7.17599C14.67 7.08555 14.6541 6.99555 14.6207 6.91148C14.5873 6.8274 14.5371 6.751 14.4733 6.68693Z" fill="black"/>
</svg>
