<svg width="16" height="17" viewBox="0 0 16 17" fill="none" xmlns="http://www.w3.org/2000/svg">
<path d="M12.6666 1.93359H3.33325C2.80282 1.93359 2.29411 2.14431 1.91904 2.51938C1.54397 2.89445 1.33325 3.40316 1.33325 3.93359V10.6003C1.33325 11.1307 1.54397 11.6394 1.91904 12.0145C2.29411 12.3895 2.80282 12.6003 3.33325 12.6003H11.0599L13.5266 15.0736C13.5889 15.1354 13.6628 15.1843 13.744 15.2174C13.8252 15.2506 13.9122 15.2674 13.9999 15.2669C14.0874 15.2692 14.1741 15.2509 14.2533 15.2136C14.375 15.1636 14.4792 15.0786 14.5528 14.9695C14.6263 14.8604 14.6659 14.7319 14.6666 14.6003V3.93359C14.6666 3.40316 14.4559 2.89445 14.0808 2.51938C13.7057 2.14431 13.197 1.93359 12.6666 1.93359ZM13.3333 12.9936L11.8066 11.4603C11.7443 11.3985 11.6704 11.3496 11.5892 11.3164C11.508 11.2832 11.421 11.2664 11.3333 11.2669H3.33325C3.15644 11.2669 2.98687 11.1967 2.86185 11.0717C2.73682 10.9466 2.66659 10.7771 2.66659 10.6003V3.93359C2.66659 3.75678 2.73682 3.58721 2.86185 3.46219C2.98687 3.33717 3.15644 3.26693 3.33325 3.26693H12.6666C12.8434 3.26693 13.013 3.33717 13.138 3.46219C13.263 3.58721 13.3333 3.75678 13.3333 3.93359V12.9936Z" fill="black"/>
<path d="M4.96303 6.71196C5.07267 6.63871 5.20156 6.59961 5.33342 6.59961C5.51023 6.59961 5.6798 6.66985 5.80482 6.79487C5.92984 6.9199 6.00008 7.08947 6.00008 7.26628C6.00008 7.39813 5.96098 7.52702 5.88773 7.63666C5.81447 7.74629 5.71036 7.83174 5.58854 7.8822C5.46672 7.93265 5.33268 7.94586 5.20335 7.92013C5.07403 7.89441 4.95525 7.83092 4.86201 7.73768C4.76878 7.64445 4.70528 7.52566 4.67956 7.39634C4.65383 7.26702 4.66704 7.13297 4.7175 7.01115C4.76795 6.88934 4.8534 6.78522 4.96303 6.71196Z" fill="black"/>
<path d="M10.2964 6.71196C10.406 6.63871 10.5349 6.59961 10.6667 6.59961C10.8436 6.59961 11.0131 6.66985 11.1382 6.79487C11.2632 6.9199 11.3334 7.08947 11.3334 7.26628C11.3334 7.39813 11.2943 7.52702 11.2211 7.63666C11.1478 7.74629 11.0437 7.83174 10.9219 7.8822C10.8001 7.93265 10.666 7.94586 10.5367 7.92013C10.4074 7.89441 10.2886 7.83092 10.1953 7.73768C10.1021 7.64445 10.0386 7.52566 10.0129 7.39634C9.98717 7.26702 10.0004 7.13297 10.0508 7.01115C10.1013 6.88934 10.1867 6.78522 10.2964 6.71196Z" fill="black"/>
<path d="M7.62954 6.71196C7.73917 6.63871 7.86806 6.59961 7.99992 6.59961C8.17673 6.59961 8.3463 6.66985 8.47132 6.79487C8.59635 6.9199 8.66659 7.08947 8.66659 7.26628C8.66659 7.39813 8.62749 7.52702 8.55423 7.63666C8.48098 7.74629 8.37686 7.83174 8.25504 7.8822C8.13322 7.93265 7.99918 7.94586 7.86986 7.92013C7.74054 7.89441 7.62175 7.83092 7.52851 7.73768C7.43528 7.64445 7.37179 7.52566 7.34606 7.39634C7.32034 7.26702 7.33354 7.13297 7.384 7.01115C7.43446 6.88934 7.51991 6.78522 7.62954 6.71196Z" fill="black"/>
</svg>
