<svg width="16" height="17" viewBox="0 0 16 17" fill="none" xmlns="http://www.w3.org/2000/svg">
<path d="M5.16659 8.09896C5.16659 7.08896 4.34325 6.26562 3.33325 6.26562C2.32325 6.26562 1.49992 7.08896 1.49992 8.09896C1.49992 9.10896 2.32325 9.93229 3.33325 9.93229C4.34325 9.93229 5.16659 9.10896 5.16659 8.09896ZM2.49992 8.09896C2.49992 7.87794 2.58772 7.66598 2.744 7.5097C2.90028 7.35342 3.11224 7.26562 3.33325 7.26562C3.55427 7.26562 3.76623 7.35342 3.92251 7.5097C4.07879 7.66598 4.16659 7.87794 4.16659 8.09896C4.16659 8.31997 4.07879 8.53193 3.92251 8.68821C3.76623 8.84449 3.55427 8.93229 3.33325 8.93229C3.11224 8.93229 2.90028 8.84449 2.744 8.68821C2.58772 8.53193 2.49992 8.31997 2.49992 8.09896ZM0.833252 12.099V13.4323C0.833252 13.709 1.05659 13.9323 1.33325 13.9323H5.33325C5.60992 13.9323 5.83325 13.709 5.83325 13.4323V12.099C5.83325 11.089 5.00992 10.2656 3.99992 10.2656H2.66659C2.18063 10.2665 1.71482 10.4599 1.3712 10.8036C1.02757 11.1472 0.834133 11.613 0.833252 12.099ZM1.83325 12.099C1.83325 11.8779 1.92105 11.666 2.07733 11.5097C2.23361 11.3534 2.44557 11.2656 2.66659 11.2656H3.99992C4.22093 11.2656 4.43289 11.3534 4.58917 11.5097C4.74545 11.666 4.83325 11.8779 4.83325 12.099V12.9323H1.83325V12.099ZM12.6666 6.26562C11.6566 6.26562 10.8333 7.08896 10.8333 8.09896C10.8333 9.10896 11.6566 9.93229 12.6666 9.93229C13.6766 9.93229 14.4999 9.10896 14.4999 8.09896C14.4999 7.08896 13.6766 6.26562 12.6666 6.26562ZM12.6666 8.93229C12.4456 8.93229 12.2336 8.84449 12.0773 8.68821C11.921 8.53193 11.8333 8.31997 11.8333 8.09896C11.8333 7.87794 11.921 7.66598 12.0773 7.5097C12.2336 7.35342 12.4456 7.26562 12.6666 7.26562C12.8876 7.26562 13.0996 7.35342 13.2558 7.5097C13.4121 7.66598 13.4999 7.87794 13.4999 8.09896C13.4999 8.31997 13.4121 8.53193 13.2558 8.68821C13.0996 8.84449 12.8876 8.93229 12.6666 8.93229ZM13.3333 10.2656H11.9999C11.514 10.2665 11.0482 10.4599 10.7045 10.8036C10.3609 11.1472 10.1675 11.613 10.1666 12.099V13.4323C10.1666 13.709 10.3899 13.9323 10.6666 13.9323H14.6666C14.9433 13.9323 15.1666 13.709 15.1666 13.4323V12.099C15.1666 11.089 14.3433 10.2656 13.3333 10.2656ZM14.1666 12.9323H11.1666V12.099C11.1666 11.8779 11.2544 11.666 11.4107 11.5097C11.5669 11.3534 11.7789 11.2656 11.9999 11.2656H13.3333C13.5543 11.2656 13.7662 11.3534 13.9225 11.5097C14.0788 11.666 14.1666 11.8779 14.1666 12.099V12.9323ZM9.83325 5.09896C9.83325 4.08896 9.00992 3.26562 7.99992 3.26562C6.98992 3.26562 6.16659 4.08896 6.16659 5.09896C6.16659 6.10896 6.98992 6.93229 7.99992 6.93229C9.00992 6.93229 9.83325 6.10896 9.83325 5.09896ZM7.16659 5.09896C7.16659 4.87794 7.25438 4.66598 7.41066 4.5097C7.56694 4.35342 7.7789 4.26562 7.99992 4.26562C8.22093 4.26562 8.43289 4.35342 8.58917 4.5097C8.74545 4.66598 8.83325 4.87794 8.83325 5.09896C8.83325 5.31997 8.74545 5.53193 8.58917 5.68821C8.43289 5.84449 8.22093 5.93229 7.99992 5.93229C7.7789 5.93229 7.56694 5.84449 7.41066 5.68821C7.25438 5.53193 7.16659 5.31997 7.16659 5.09896ZM9.99992 10.9323C10.2766 10.9323 10.4999 10.709 10.4999 10.4323V9.09896C10.4999 8.08896 9.67659 7.26562 8.66659 7.26562H7.33325C6.84729 7.26651 6.38149 7.45994 6.03786 7.80357C5.69424 8.14719 5.5008 8.613 5.49992 9.09896V10.4323C5.49992 10.709 5.72325 10.9323 5.99992 10.9323H9.99992ZM6.49992 9.09896C6.49992 8.87794 6.58772 8.66598 6.744 8.5097C6.90028 8.35342 7.11224 8.26562 7.33325 8.26562H8.66659C8.8876 8.26562 9.09956 8.35342 9.25584 8.5097C9.41212 8.66598 9.49992 8.87794 9.49992 9.09896V9.93229H6.49992V9.09896Z" fill="black"/>
</svg>
