<svg width="16" height="17" viewBox="0 0 16 17" fill="none" xmlns="http://www.w3.org/2000/svg">
<path d="M8 0.599609C3.582 0.599609 0 4.18161 0 8.59961C0 13.0176 3.582 16.5996 8 16.5996C12.418 16.5996 16 13.0176 16 8.59961C16 4.18161 12.418 0.599609 8 0.599609ZM8 15.5996C4.14 15.5996 1 12.4596 1 8.59961C1 4.73961 4.14 1.59961 8 1.59961C11.86 1.59961 15 4.73961 15 8.59961C15 12.4596 11.86 15.5996 8 15.5996ZM8 3.59961C7.73478 3.59961 7.48043 3.70497 7.29289 3.8925C7.10536 4.08004 7 4.33439 7 4.59961V9.59961C7 9.86483 7.10536 10.1192 7.29289 10.3067C7.48043 10.4943 7.73478 10.5996 8 10.5996C8.26522 10.5996 8.51957 10.4943 8.70711 10.3067C8.89464 10.1192 9 9.86483 9 9.59961V4.59961C9 4.33439 8.89464 4.08004 8.70711 3.8925C8.51957 3.70497 8.26522 3.59961 8 3.59961ZM7 12.5836C7 12.8488 7.10536 13.1032 7.29289 13.2907C7.48043 13.4783 7.73478 13.5836 8 13.5836C8.26522 13.5836 8.51957 13.4783 8.70711 13.2907C8.89464 13.1032 9 12.8488 9 12.5836C9 12.4523 8.97414 12.3223 8.92388 12.2009C8.87363 12.0796 8.79997 11.9694 8.70711 11.8765C8.61425 11.7836 8.50401 11.71 8.38268 11.6597C8.26136 11.6095 8.13132 11.5836 8 11.5836C7.86868 11.5836 7.73864 11.6095 7.61732 11.6597C7.49599 11.71 7.38575 11.7836 7.29289 11.8765C7.20004 11.9694 7.12638 12.0796 7.07612 12.2009C7.02587 12.3223 7 12.4523 7 12.5836Z" fill="black"/>
</svg>
