<svg width="76" height="75" viewBox="0 0 76 75" fill="none" xmlns="http://www.w3.org/2000/svg">
<rect x="0.5" width="75" height="75" rx="20" fill="#45ABC2" fill-opacity="0.2"/>
<g clip-path="url(#clip0_619_3796)">
<path d="M22.6512 39.94C22.8667 40.0236 23.089 40.063 23.3072 40.063C24.0303 40.063 24.713 39.6294 24.9918 38.9209C26.7488 34.4654 29.0664 32.1042 30.8914 30.8044C31.2448 30.5541 31.58 30.345 31.8904 30.1693V34.8276L42.2209 25.7644H33.6364C33.5663 25.7644 33.4979 25.7696 33.4299 25.7776C33.3676 25.7823 33.3045 25.7902 33.2417 25.8016C33.0484 25.837 31.1587 26.2102 28.7906 27.8867C26.4224 29.5579 23.6111 32.5491 21.624 37.6182C21.2612 38.5409 21.7214 39.5805 22.6512 39.94ZM31.9825 37.739C33.7116 37.3246 35.7149 37.0555 38.0001 37.0557C40.3262 37.0552 42.3594 37.3352 44.1099 37.7623V30.1704C44.5212 30.403 44.9755 30.6937 45.4572 31.0605C47.2203 32.4088 49.3619 34.7433 51.0085 38.9212C51.2868 39.6296 51.9699 40.063 52.6928 40.0632C52.9112 40.0632 53.1331 40.0238 53.3488 39.9402C54.2786 39.5805 54.7386 38.5411 54.376 37.6184C52.3892 32.5493 49.5776 29.5583 47.2093 27.8869C46.3158 27.2543 45.4908 26.8076 44.7991 26.4943L31.9825 37.739Z" fill="#45ABC2"/>
<path d="M38.0003 25.0849C40.8075 25.0849 43.0831 22.8273 43.0831 20.0425C43.0831 17.2576 40.8075 15 38.0003 15C35.1932 15 32.9175 17.2576 32.9175 20.0425C32.9175 22.8273 35.1932 25.0849 38.0003 25.0849Z" fill="#45ABC2"/>
<path d="M44.6882 25.0955C44.9116 25.3459 45.2224 25.4738 45.5346 25.4738C45.8005 25.4738 46.0675 25.3811 46.2828 25.1924L46.2835 25.1919L50.4721 21.5167C50.9395 21.1064 50.9834 20.3982 50.5702 19.935C50.157 19.4713 49.4432 19.4278 48.9758 19.8377L44.7864 23.5138C44.786 23.514 44.7857 23.5145 44.7855 23.5149C44.3188 23.9255 44.2754 24.6323 44.6882 25.0955ZM44.6507 37.8996L44.212 39.4961L44.1096 39.8688V39.8684L44.0565 40.0615C42.3788 39.6082 40.3685 39.2969 37.9999 39.2969C35.6308 39.2969 33.6212 39.6082 31.943 40.0615L31.8901 39.8686L31.7815 39.4728L31.4254 38.1757C31.7078 37.7622 31.6882 37.1983 31.3394 36.8073C30.9257 36.3438 30.2121 36.3001 29.7447 36.7104L29.7425 36.7125L25.0514 40.8282C24.0823 41.5337 23.5912 42.0684 23.5482 42.116L23.5659 42.1316L22.9216 42.6968C22.454 43.1072 22.4101 43.8151 22.8235 44.2786C23.0467 44.5292 23.3578 44.6569 23.6704 44.6569C23.9363 44.6571 24.2031 44.5643 24.418 44.3759L26.4662 42.5785C27.4033 41.9069 28.884 41.036 30.9458 40.3603C29.5855 41.1742 28.3577 42.5507 27.5587 44.3983C26.6029 46.5746 26.0932 49.3896 26.0887 53.2206C26.0887 54.2031 26.1237 55.2535 26.1965 56.3783C26.2923 57.861 27.535 59.0001 29.0121 59.0001C29.0731 59.0001 29.1341 58.9981 29.1956 58.9943C30.7518 58.895 31.9324 57.5629 31.8325 56.019C31.7666 55.0031 31.7358 54.0717 31.7358 53.2208C31.7245 48.7733 32.5972 46.5854 33.2322 45.7602C33.553 45.3339 33.7909 45.1874 34.0039 45.0852C34.2165 44.9893 34.4417 44.95 34.6884 44.9491C34.9177 44.9482 35.1521 44.9897 35.3021 45.0294C35.3774 45.0491 35.4311 45.067 35.4524 45.0744C35.453 45.0746 35.4537 45.0749 35.4544 45.0751C36.2295 45.3971 37.0692 45.3481 37.7735 45.0103C38.477 45.3476 39.3155 45.3971 40.0897 45.0764L40.0915 45.0762C40.1441 45.0536 40.5081 44.9449 40.8587 44.9491C41.1053 44.95 41.3306 44.9897 41.5431 45.0856C41.8458 45.2412 42.2791 45.4836 42.8166 46.6504C43.3357 47.8077 43.815 49.8963 43.8105 53.2212C43.8105 54.0722 43.7805 55.0036 43.7147 56.0206C43.6156 57.5645 44.7964 58.8961 46.3526 58.9945C46.414 58.9985 46.4753 59.0003 46.536 59.0003C48.0134 59.0003 49.2557 57.861 49.351 56.3776C49.4233 55.2532 49.4578 54.2033 49.4578 53.2212C49.4466 48.1272 48.561 44.7793 46.8731 42.453C46.0901 41.3833 45.1128 40.5918 44.1092 40.0967V40.0772C46.4278 40.7106 48.1103 41.6153 49.2069 42.3524C49.759 42.724 50.1622 43.0527 50.4209 43.282C50.5503 43.3965 50.6434 43.4859 50.7014 43.5435C50.7299 43.5722 50.75 43.5931 50.7613 43.6049C50.7672 43.6108 50.7703 43.6141 50.7715 43.6155L51.0319 43.3779L50.7683 43.6119L52.4506 42.1164C52.3526 42.0068 49.878 39.313 44.6497 37.8993L44.6502 37.8996H44.6507Z" fill="#45ABC2"/>
</g>
<defs>
<clipPath id="clip0_619_3796">
<rect width="33" height="44" fill="white" transform="translate(21.5 15)"/>
</clipPath>
</defs>
</svg>
