<svg width="31" height="31" viewBox="0 0 31 31" fill="none" xmlns="http://www.w3.org/2000/svg">
<path d="M27.5107 0.232422H3.38256C1.78114 0.232422 0.5 1.51814 0.5 3.12528V27.4467C0.5 28.9467 1.78114 30.2324 3.38256 30.2324H27.6174C29.2189 30.2324 30.5 28.9467 30.5 27.3396V3.12528C30.3932 1.51814 29.1121 0.232422 27.5107 0.232422ZM3.38256 2.37528H27.6174C27.9377 2.37528 28.258 2.69671 28.258 3.12528V9.44671L26.016 7.19671C24.9484 6.12528 23.1335 6.12528 21.9591 7.19671L16.5142 12.661L14.2722 10.411C13.2046 9.33956 11.3897 9.33956 10.2153 10.411L2.63523 18.0181V3.12528C2.63523 2.69671 2.95552 2.37528 3.38256 2.37528ZM27.5107 28.0896H3.38256C2.95552 28.0896 2.63523 27.7681 2.63523 27.3396V21.0181L11.71 11.911C12.0302 11.5896 12.4573 11.5896 12.6708 11.911L22.0658 21.3396C22.2794 21.5539 22.5996 21.661 22.8132 21.661C23.0267 21.661 23.347 21.5539 23.5605 21.3396C23.9875 20.911 23.9875 20.2681 23.5605 19.8396L18.0089 14.161L23.4537 8.69671C23.774 8.37528 24.2011 8.37528 24.4146 8.69671L27.9377 12.2324C28.0445 12.3396 28.0445 12.3396 28.1512 12.3396V27.3396C28.258 27.7681 27.9377 28.0896 27.5107 28.0896Z" fill="#40AF92"/>
</svg>
