<svg width="24" height="24" viewBox="0 0 24 24" fill="none" xmlns="http://www.w3.org/2000/svg">
<path d="M12.0001 8.87628C10.2798 8.87628 8.87589 10.2802 8.87589 12.0005C8.87589 13.7208 10.2798 15.1247 12.0001 15.1247C13.7204 15.1247 15.1243 13.7208 15.1243 12.0005C15.1243 10.2802 13.7204 8.87628 12.0001 8.87628ZM21.3704 12.0005C21.3704 10.7068 21.3821 9.42472 21.3095 8.13331C21.2368 6.63331 20.8946 5.30206 19.7978 4.20519C18.6985 3.10597 17.3696 2.76613 15.8696 2.69347C14.5759 2.62081 13.2939 2.63253 12.0025 2.63253C10.7087 2.63253 9.42667 2.62081 8.13527 2.69347C6.63527 2.76613 5.30402 3.10831 4.20714 4.20519C3.10792 5.30441 2.76808 6.63331 2.69542 8.13331C2.62277 9.42706 2.63449 10.7091 2.63449 12.0005C2.63449 13.2919 2.62277 14.5763 2.69542 15.8677C2.76808 17.3677 3.11027 18.6989 4.20714 19.7958C5.30636 20.895 6.63527 21.2349 8.13527 21.3075C9.42902 21.3802 10.711 21.3685 12.0025 21.3685C13.2962 21.3685 14.5782 21.3802 15.8696 21.3075C17.3696 21.2349 18.7009 20.8927 19.7978 19.7958C20.897 18.6966 21.2368 17.3677 21.3095 15.8677C21.3845 14.5763 21.3704 13.2943 21.3704 12.0005ZM12.0001 16.8075C9.33995 16.8075 7.19308 14.6607 7.19308 12.0005C7.19308 9.34035 9.33995 7.19347 12.0001 7.19347C14.6603 7.19347 16.8071 9.34035 16.8071 12.0005C16.8071 14.6607 14.6603 16.8075 12.0001 16.8075ZM17.004 8.11925C16.3829 8.11925 15.8814 7.61769 15.8814 6.9966C15.8814 6.3755 16.3829 5.87394 17.004 5.87394C17.6251 5.87394 18.1267 6.3755 18.1267 6.9966C18.1269 7.14408 18.0979 7.29015 18.0416 7.42644C17.9852 7.56273 17.9026 7.68656 17.7983 7.79085C17.694 7.89513 17.5701 7.97782 17.4339 8.03417C17.2976 8.09053 17.1515 8.11944 17.004 8.11925Z" fill="black"/>
</svg>
