<svg width="165" height="182" viewBox="0 0 165 182" fill="none" xmlns="http://www.w3.org/2000/svg">
<path d="M44.5842 35.8245C47.009 38.225 54.1971 40.8399 54.1971 40.8506C54.1971 40.8614 54.4881 35.6101 54.4666 35.2779C54.1864 31.4199 51.352 24.1217 47.1168 23.0929C46.4085 22.9415 45.6762 22.9404 44.9675 23.0896C44.2588 23.2387 43.5897 23.5349 43.0039 23.9586C42.4181 24.3824 41.9288 24.9242 41.5679 25.5488C41.2069 26.1733 40.9825 26.8666 40.9093 27.5832C40.4782 30.6161 42.5043 33.7883 44.5842 35.8245Z" fill="#40AF92"/>
<path d="M32.6989 53.0695C35.2352 55.6319 42.5499 58.4052 43.1312 58.6161C41.5389 62.7954 40.2283 67.0765 39.2082 71.4309C38.5895 73.9638 38.059 76.5335 37.5513 79.1096C37.6062 77.8953 37.6489 76.8128 37.6267 76.6714C37.3388 72.3985 34.2566 64.3232 29.5952 63.1612C28.817 62.9923 28.0121 62.9888 27.2326 63.1508C26.4532 63.3129 25.7166 63.6369 25.0708 64.1018C24.4249 64.5667 23.8842 65.1622 23.4837 65.8496C23.0832 66.5369 22.8319 67.3008 22.746 68.0917C22.2668 71.4503 24.5249 74.9682 26.761 77.238C28.9971 79.5079 35.2646 82.0636 36.8829 82.6615C36.7044 83.6569 36.503 84.646 36.3244 85.6414C35.466 90.4069 34.6222 95.1641 33.6178 99.7906C33.2843 101.432 32.8886 103.03 32.4928 104.629C32.5438 103.562 32.5764 102.649 32.5656 102.51C32.2663 98.2342 29.1841 90.1589 24.5309 89.0115C23.7521 88.8408 22.9463 88.8358 22.1656 88.9968C21.385 89.1578 20.6472 89.4812 20 89.9459C19.3529 90.4107 18.811 91.0064 18.4096 91.6943C18.0082 92.3823 17.7563 93.147 17.6703 93.9388C17.1942 97.286 19.4523 100.804 21.6884 103.074C23.9246 105.344 29.5695 107.615 31.5229 108.38C31.0688 110.012 30.6147 111.644 30.1193 113.203C29.7522 114.257 29.4633 115.295 29.0245 116.341C28.5857 117.387 28.2282 118.407 27.8218 119.425C26.9887 121.357 26.1365 123.358 25.2736 125.22C24.6787 126.518 24.0914 127.744 23.5009 128.981C23.8541 127.358 24.4957 124.167 24.5117 123.889C24.8737 119.625 23.0494 111.186 18.6192 109.327C17.8759 109.04 17.0806 108.913 16.2851 108.955C15.4897 108.996 14.7121 109.204 14.0028 109.566C13.2936 109.928 12.6687 110.435 12.169 111.055C11.6693 111.674 11.3059 112.392 11.1026 113.161C10.1144 116.403 11.798 120.216 13.6748 122.804C15.7522 125.644 22.2854 129.368 23.1046 129.83C22.116 131.879 21.1465 133.859 20.2315 135.731C18.142 139.835 16.189 143.447 14.497 146.431L17.001 148.358C18.7077 145.144 20.6709 141.362 22.7732 136.992C23.7827 134.912 24.8202 132.643 25.8463 130.371C28.1831 130.994 30.553 131.486 32.9449 131.843C33.311 135.437 36.4665 141.7 36.8827 142.505C34.9302 143.683 33.0228 144.787 31.203 145.842C27.404 147.994 23.9383 149.833 20.9754 151.37L23.7078 153.359C26.3814 151.89 29.3806 150.18 32.6419 148.235C34.6287 147.066 36.7253 145.768 38.8638 144.408C39.4698 145.106 44.4857 150.744 47.6899 152.189C50.6129 153.494 54.6924 154.359 57.6694 152.728C58.3795 152.369 59.0061 151.865 59.5086 151.248C60.011 150.631 60.3781 149.916 60.5859 149.148C60.7937 148.381 60.8376 147.578 60.7149 146.792C60.5922 146.006 60.3054 145.255 59.8734 144.587C57.1578 140.634 48.5059 140.587 44.3974 141.817C44.1569 141.885 41.6173 142.961 40.0311 143.663C40.9001 143.106 41.7596 142.583 42.6654 141.937C44.4357 140.795 46.1585 139.602 48.0272 138.327L50.6907 136.363C51.5965 135.717 52.4655 134.939 53.3675 134.218C55.4287 132.517 57.4239 130.699 59.4006 128.815C60.4082 130.325 64.0564 135.791 66.7579 137.539C69.4593 139.287 73.3477 140.75 76.5251 139.593C77.2719 139.34 77.9577 138.934 78.5387 138.401C79.1198 137.869 79.5834 137.221 79.9 136.5C80.2166 135.778 80.3792 134.998 80.3776 134.21C80.3759 133.422 80.2101 132.643 79.8904 131.922C77.7817 127.647 69.2602 126.247 65.0103 126.835C64.7532 126.874 61.7472 127.636 60.1186 128.092C61.2879 126.942 62.4737 125.822 63.6214 124.616C66.9535 121.179 70.2178 117.587 73.4871 114.021C74.4907 112.935 75.4943 111.85 76.5062 110.779C76.8571 111.331 81.0636 117.888 84.0906 119.836C86.7693 121.578 90.6804 123.047 93.8579 121.891C94.6047 121.637 95.2904 121.232 95.8715 120.699C96.4525 120.166 96.9161 119.519 97.2327 118.797C97.5493 118.076 97.712 117.296 97.7104 116.508C97.7087 115.72 97.5428 114.941 97.2232 114.22C95.1258 109.948 86.5929 108.544 82.3545 109.136C82.0339 109.182 77.7211 110.305 76.637 110.618C78.8627 108.238 81.0934 105.883 83.3869 103.656C86.479 100.633 89.7602 97.8086 93.2109 95.201C93.3708 95.4668 97.7277 102.323 100.825 104.328C103.518 106.061 107.418 107.528 110.607 106.374C111.354 106.121 112.039 105.715 112.621 105.183C113.202 104.65 113.665 104.002 113.982 103.281C114.298 102.559 114.461 101.78 114.459 100.992C114.458 100.203 114.292 99.4243 113.972 98.7037C111.875 94.4314 103.339 93.0396 99.0889 93.6275C98.757 93.6704 94.1287 94.8662 93.3017 95.1401C93.5041 94.9875 93.687 94.817 93.9009 94.6675C97.4323 92.1519 101.182 89.9569 105.105 88.1086C107.267 87.0626 109.339 86.1637 111.457 85.3637C112.133 86.7815 115.323 92.9196 117.9 95.0261C120.477 97.1326 124.112 98.9311 127.398 98.1364C128.178 97.973 128.915 97.6476 129.561 97.1815C130.207 96.7153 130.748 96.1187 131.148 95.4303C131.549 94.7419 131.8 93.9771 131.886 93.1854C131.971 92.3937 131.89 91.5927 131.646 90.8344C130.047 86.3195 121.698 84.0331 117.417 84.1575C117.181 84.1655 114.859 84.5031 113.104 84.7523C114.051 84.4011 115.009 84.053 115.93 83.7068C119.356 82.4962 122.558 81.6044 125.406 80.8354C127.029 80.4015 128.505 80.05 129.886 79.7333C131.246 80.7267 136.794 84.6313 140.004 85.3032C143.214 85.9752 147.314 85.9236 149.867 83.6953C150.482 83.192 150.985 82.5651 151.343 81.8551C151.7 81.1451 151.905 80.3679 151.942 79.5739C151.98 78.7798 151.85 77.9867 151.561 77.2458C151.272 76.5049 150.831 75.8328 150.266 75.2731C146.759 71.9978 138.303 73.8129 134.579 75.8261C134.258 76.0072 129.528 79.3386 129.582 79.4522L129.674 79.4776C128.363 79.7646 126.914 80.0622 125.356 80.4403C122.49 81.1427 119.255 81.9761 115.787 83.1138C112.038 84.296 108.361 85.695 104.775 87.3037C100.757 89.084 96.9071 91.2226 93.2734 93.6937C93.2336 93.7299 93.1914 93.7633 93.1471 93.7938C94.0105 92.6815 96.32 89.5126 96.468 89.2463C98.5879 85.5205 100.477 77.095 97.2271 73.5593C96.6714 72.9872 96.0014 72.5384 95.2607 72.2421C94.52 71.9459 93.7252 71.8088 92.9281 71.8399C92.131 71.871 91.3495 72.0695 90.6345 72.4224C89.9195 72.7754 89.287 73.275 88.7782 73.8886C86.5373 76.4127 86.4501 80.6181 87.088 83.722C87.8038 87.2533 92.3753 93.6036 92.7389 94.1106C89.0997 96.7092 85.6403 99.5505 82.3844 102.615C80.4768 104.383 78.6073 106.236 76.7689 108.11C77.4977 107.083 78.1123 106.246 78.2037 106.05C80.309 102.332 82.2014 93.8955 78.9596 90.3744C78.4039 89.8023 77.7339 89.3535 76.9932 89.0573C76.2525 88.7611 75.4577 88.624 74.6606 88.6551C73.8636 88.6861 73.0821 88.8846 72.3671 89.2376C71.6521 89.5906 71.0196 90.0902 70.5108 90.7038C68.2699 93.2279 68.1827 97.4333 68.8237 100.526C69.4647 103.618 73.2697 109.14 74.2659 110.647C73.5708 111.376 72.856 112.087 72.1577 112.827C68.8097 116.322 65.4845 119.823 62.1061 123.162C60.9158 124.343 59.7072 125.457 58.4985 126.572C59.134 125.704 59.6597 124.965 59.7289 124.849C61.8374 121.12 63.7299 112.683 60.488 109.162C59.9323 108.589 59.2623 108.141 58.5216 107.844C57.7809 107.548 56.9861 107.411 56.1891 107.442C55.392 107.473 54.6105 107.672 53.8955 108.025C53.1804 108.378 52.548 108.877 52.0392 109.491C49.7983 112.015 49.7111 116.22 50.3489 119.324C50.9868 122.428 54.4136 127.452 55.6115 129.162C54.3426 130.272 53.0705 131.394 51.7895 132.414C50.8888 133.086 50.0762 133.794 49.1476 134.433C48.2189 135.073 47.3309 135.698 46.4396 136.336C44.6693 137.478 42.8571 138.683 41.1026 139.769C39.8947 140.527 38.7172 141.22 37.5448 141.939C38.7433 140.772 41.0362 138.459 41.2057 138.248C43.4373 135.214 44.8509 131.657 45.311 127.919C45.5725 127.594 45.8049 127.248 46.0056 126.883C46.402 126.189 46.6473 125.419 46.7254 124.624C46.8034 123.829 46.7126 123.026 46.4587 122.268C46.2048 121.511 45.7936 120.815 45.2521 120.227C44.7106 119.638 44.0509 119.171 43.3162 118.855C38.8897 117.07 31.6414 121.754 28.885 125.069C28.7186 125.269 27.2058 127.565 26.2699 129.026C26.6801 128.083 27.1068 127.169 27.5265 126.191C28.3596 124.259 29.147 122.314 30.0017 120.216C30.3738 119.188 30.7574 118.164 31.1359 117.113C31.5144 116.063 31.837 114.947 32.1907 113.853C32.9624 111.301 33.6325 108.672 34.2258 106.009C35.9152 106.75 41.9365 109.262 45.179 109.242C48.4216 109.222 52.4507 108.277 54.4606 105.566C54.9578 104.946 55.3186 104.228 55.5196 103.459C55.7206 102.69 55.7572 101.887 55.6272 101.103C55.4971 100.318 55.2033 99.5702 54.7647 98.9067C54.3262 98.2432 53.7528 97.6793 53.0819 97.2518C48.9634 94.8023 41.0882 98.3775 37.8756 101.209C37.6782 101.388 35.6017 103.675 34.4837 104.95C34.842 103.353 35.2003 101.756 35.4932 100.128C36.3637 95.452 37.1142 90.632 37.8667 85.8493C38.1005 84.3897 38.3458 82.9333 38.5911 81.4769C39.194 81.743 46.2699 84.8433 49.9542 84.8726C53.1511 84.8401 57.2145 83.9052 59.2244 81.1938C59.7216 80.5735 60.0824 79.8554 60.2833 79.0864C60.4843 78.3174 60.521 77.5146 60.3909 76.7303C60.2609 75.9461 59.967 75.1978 59.5285 74.5344C59.09 73.8709 58.5166 73.307 57.8457 72.8794C53.7157 70.4268 45.852 74.0052 42.6394 76.8368C42.395 77.0515 39.4088 80.3519 38.6984 81.2239C39.2341 78.0163 39.7926 74.815 40.4787 71.6861C41.3657 67.4578 42.5251 63.2914 43.9498 59.2128C44.2468 59.2955 51.6096 62.6477 55.3097 62.62C58.518 62.5906 62.5814 61.6557 64.5913 58.9443C65.0867 58.3233 65.446 57.6052 65.6459 56.8364C65.8459 56.0677 65.882 55.2656 65.7521 54.4818C65.6221 53.6981 65.3289 52.9503 64.8915 52.2867C64.454 51.6232 63.8821 51.0588 63.2126 50.6299C59.0827 48.1773 51.2075 51.7525 48.0063 54.5873C47.7473 54.8103 44.4989 58.3451 44.0088 59.0448C44.0755 58.8052 44.1454 58.5541 44.2121 58.3144C45.7652 54.2643 47.6754 50.3602 49.9202 46.6481C51.1494 44.5311 52.4146 42.6822 53.6964 40.8626C55.0113 41.6219 61.0781 45.0316 64.3948 45.3644C67.7116 45.6972 71.726 45.2036 74.0259 42.7328C74.5865 42.1669 75.0218 41.4896 75.3037 40.7448C75.5855 40 75.7076 39.2042 75.6619 38.4091C75.6163 37.614 75.4041 36.8372 75.0389 36.1291C74.6737 35.421 74.1638 34.7973 73.5421 34.2986C69.7169 31.4143 61.4967 34.1066 57.9915 36.5739C57.7954 36.7038 56.0167 38.2745 54.7319 39.4416C55.3286 38.624 55.9203 37.7804 56.5044 37.0085C58.6889 34.1121 60.8663 31.595 62.8082 29.3934C63.9312 28.1444 64.9672 27.031 65.9404 26.0107C67.6331 26.076 74.4164 26.2915 77.4631 25.0736C80.5098 23.8558 83.8924 21.5633 84.7861 18.3077C85.0242 17.5475 85.0994 16.7456 85.0068 15.9542C84.9142 15.1629 84.6559 14.3998 84.2486 13.7146C83.8413 13.0295 83.2942 12.4376 82.643 11.9776C81.9917 11.5175 81.2509 11.1996 80.4686 11.0445C75.7659 10.2522 69.6927 16.4191 67.7117 20.2205C67.5479 20.5438 65.4663 25.9895 65.5526 25.9889L65.6555 26.0175C64.6867 26.9775 63.6666 28.0338 62.5773 29.2062C60.5814 31.3804 58.3417 33.8557 56.0836 36.707C53.6209 39.7582 51.3359 42.9486 49.2399 46.2621C46.9306 50.0096 44.9559 53.9531 43.3388 58.0468C43.3307 58.0977 43.3169 58.1475 43.2975 58.1952C43.4032 56.7983 43.5493 52.8675 43.5602 52.5631C43.2691 48.3015 40.19 40.2149 35.5254 39.0643C34.7473 38.8954 33.9423 38.8919 33.1629 39.0539C32.3834 39.2159 31.6469 39.5399 31.001 40.0049C30.3551 40.4698 29.8144 41.0653 29.4139 41.7526C29.0134 42.44 28.7621 43.2039 28.6763 43.9948C28.2047 47.2817 30.4463 50.7704 32.6989 53.0695Z" fill="#40AF92"/>
<path d="M111.918 85.9553C111.918 86.0229 115.534 81.5372 115.72 81.2216C117.912 77.6714 119.856 69.6467 116.451 66.2993C115.868 65.7582 115.167 65.3349 114.392 65.0567C113.618 64.7786 112.788 64.6518 111.956 64.6848C111.124 64.7178 110.31 64.9096 109.565 65.248C108.82 65.5864 108.162 66.0636 107.633 66.6487C105.292 69.0606 105.23 73.0279 105.899 76.0146C106.654 79.4634 111.905 85.9553 111.918 85.9553Z" fill="#40AF92"/>
</svg>
