<svg width="655" height="178" viewBox="0 0 655 178" fill="none" xmlns="http://www.w3.org/2000/svg">
<path d="M24.0566 6.86712C24.0566 6.86712 24.2777 5.85814 24.3037 5.74603C24.5768 5.01733 25.6041 3.76172 26.5924 3.76172C26.7544 3.7655 26.9137 3.79824 27.0602 3.85786C27.2067 3.91748 27.3373 4.00267 27.4436 4.10806C27.55 4.21344 27.6298 4.33674 27.678 4.4701C27.7262 4.60346 27.7418 4.74399 27.7237 4.88281C27.6376 5.18504 27.4768 5.46767 27.2524 5.71144C27.028 5.95522 26.7452 6.15442 26.4234 6.29539C25.6722 6.58718 24.8743 6.77989 24.0566 6.86712Z" fill="#40AF92"/>
<path d="M22.1459 0.0289079C23.0822 0.320391 23.5373 1.81146 23.4463 2.5738C23.4463 2.62986 23.2643 3.69489 23.2513 3.69489C23.2513 3.93032 23.3943 4.17695 23.4723 4.45722C23.6154 4.96171 23.7714 5.57832 23.8884 6.18371C24.0199 6.87409 24.1067 7.57022 24.1485 8.26892C24.2016 9.0507 24.1711 9.83502 24.0575 10.612C24.1745 10.3878 24.5386 9.75998 24.5777 9.71513C25.0588 9.08732 26.4372 8.10078 27.3865 8.32499C27.5435 8.36581 27.6888 8.43461 27.813 8.52695C27.9372 8.61929 28.0374 8.73311 28.1073 8.86101C28.1772 8.98891 28.2152 9.12803 28.2187 9.26937C28.2222 9.41072 28.1912 9.55114 28.1277 9.6815C27.9657 9.96202 27.7336 10.2081 27.448 10.4019C27.1624 10.5958 26.8305 10.7326 26.4762 10.8026C25.663 10.8948 24.8379 10.8759 24.0315 10.7465C23.8975 11.5379 23.702 12.3208 23.4463 13.0896C23.3033 13.5268 23.1342 13.9753 22.9652 14.4237L23.1992 14.0313C23.6804 13.3923 25.0588 12.4057 26.0081 12.6412C26.1727 12.672 26.3278 12.7331 26.4625 12.8204C26.5972 12.9076 26.7085 13.0189 26.7888 13.1466C26.869 13.2744 26.9164 13.4155 26.9275 13.5605C26.9386 13.7054 26.9133 13.8507 26.8533 13.9865C26.6913 14.267 26.4592 14.513 26.1736 14.7069C25.8881 14.9008 25.5562 15.0376 25.2018 15.1076C24.4175 15.2113 23.6194 15.2113 22.8351 15.1076C22.7571 15.2757 22.6921 15.4551 22.6271 15.6233C22.302 16.4417 21.9769 17.2489 21.6778 18.056C21.5738 18.3363 21.4827 18.6278 21.3917 18.9081L21.5868 18.5717C22.0809 17.9327 23.4463 16.9461 24.4086 17.1704C24.5661 17.2122 24.7116 17.2822 24.8355 17.3758C24.9594 17.4695 25.059 17.5846 25.1278 17.7137C25.1965 17.8428 25.2328 17.983 25.2344 18.1251C25.236 18.2671 25.2027 18.4079 25.1368 18.5381C24.9696 18.8074 24.7364 19.0421 24.4535 19.226C24.1705 19.4099 23.8446 19.5386 23.4983 19.6031C22.7319 19.7115 21.9501 19.7115 21.1836 19.6031C21.1056 19.8946 21.0146 20.1861 20.9496 20.4776C20.8845 20.7691 20.8585 20.8587 20.8325 21.0605C20.8065 21.2623 20.8325 21.4529 20.7285 21.6435C20.7285 22.0135 20.6375 22.4058 20.6115 22.7646C20.5855 23.1233 20.6115 23.2579 20.6115 23.5045C20.7025 23.2242 20.9236 22.6749 20.9366 22.6301C21.2922 22.0318 21.8151 21.5194 22.458 21.139C22.494 21.072 22.5375 21.0081 22.5881 20.9484C22.6773 20.83 22.7944 20.729 22.9318 20.6521C23.0692 20.5751 23.2238 20.5239 23.3856 20.5017C23.5474 20.4795 23.7128 20.4868 23.8711 20.5232C24.0294 20.5596 24.1771 20.6243 24.3046 20.713C25.0588 21.2736 24.8767 22.7982 24.5256 23.5045L24.0445 24.2444L24.4476 23.8072L25.3189 22.9328L25.774 22.4955C25.9301 22.3498 26.1121 22.2153 26.2812 22.0695C26.6713 21.7332 27.1004 21.4193 27.5816 21.1054C26.9547 20.6914 26.4064 20.196 25.9561 19.6368C25.7116 19.3637 25.5472 19.0437 25.477 18.704C25.4069 18.3644 25.4329 18.0152 25.5529 17.6861C25.6215 17.5572 25.7205 17.4421 25.8435 17.348C25.9666 17.2539 26.111 17.183 26.2676 17.1398C26.4242 17.0965 26.5896 17.0819 26.7531 17.0968C26.9167 17.1117 27.0748 17.1559 27.2174 17.2264C28.0627 17.6861 28.1407 19.2219 27.9327 19.9619C27.9327 19.9619 27.6856 20.5224 27.5555 20.8027L28.3488 20.2534C29.129 19.7264 29.9483 19.222 30.7545 18.7175L31.4957 18.2466C30.8444 17.8165 30.2742 17.3022 29.8052 16.7219C29.6219 16.4579 29.5082 16.1624 29.4723 15.8562C29.4363 15.5501 29.4789 15.2409 29.5972 14.9506C29.6669 14.8227 29.7668 14.7087 29.8904 14.6158C30.0139 14.5229 30.1586 14.4531 30.3151 14.411C30.4716 14.3688 30.6365 14.3551 30.7995 14.3708C30.9624 14.3865 31.1198 14.4313 31.2617 14.5022C32.1069 14.9506 32.1849 16.4865 31.9639 17.2264C31.9639 17.2825 31.6258 18.0224 31.5347 18.213C32.0809 17.8654 32.6141 17.5179 33.1212 17.1591C33.8123 16.667 34.4681 16.1392 35.0848 15.5784C34.4224 15.1483 33.8393 14.6343 33.3553 14.0537C33.1753 13.7886 33.0635 13.4932 33.0276 13.1876C32.9917 12.882 33.0325 12.5733 33.1472 12.2824C33.217 12.1545 33.3168 12.0405 33.4404 11.9476C33.564 11.8547 33.7086 11.7849 33.8651 11.7428C34.0216 11.7006 34.1866 11.687 34.3496 11.7027C34.5125 11.7184 34.6699 11.7631 34.8117 11.834C35.657 12.2824 35.735 13.8183 35.5269 14.5582C35.5269 14.6143 35.2669 15.1748 35.1368 15.4439C35.7329 14.8656 36.2681 14.2429 36.7363 13.5829C37.0094 13.2242 37.2305 12.8654 37.4515 12.4618C36.7639 12.0971 36.1418 11.6476 35.605 11.1277C35.3963 10.8802 35.2513 10.5972 35.1796 10.2975C35.1078 9.9979 35.111 9.68851 35.1888 9.39001C35.2402 9.25484 35.3239 9.13044 35.4343 9.02478C35.5448 8.91913 35.6796 8.83456 35.8303 8.7765C35.9809 8.71844 36.1439 8.68814 36.3089 8.68762C36.4739 8.68709 36.6372 8.71632 36.7883 8.77342C37.6726 9.15459 37.9587 10.6681 37.8286 11.4304C37.8286 11.4304 37.7116 11.8788 37.6076 12.1815L37.8936 11.6994C38.2187 11.1165 38.4788 10.5784 38.6999 10.0739C38.8169 9.79362 38.934 9.54695 39.025 9.31152C38.6137 8.71862 38.307 8.07634 38.1147 7.40569C38.0579 7.10274 38.0772 6.7928 38.1714 6.49686C38.2657 6.20092 38.4326 5.92589 38.6609 5.69043C38.7796 5.59255 38.9207 5.51705 39.0752 5.46876C39.2296 5.42047 39.394 5.40046 39.5579 5.40995C39.7218 5.41944 39.8817 5.45825 40.0272 5.52391C40.1728 5.58957 40.3009 5.68064 40.4034 5.79132C41.0016 6.47518 40.4034 7.93259 39.9223 8.54919C39.9223 8.54919 39.077 9.37881 39.064 9.3676C38.986 9.60303 38.8819 9.84965 38.7779 10.1187C38.5568 10.612 38.3228 11.1726 38.0107 11.7555C37.6816 12.3946 37.3081 13.0161 36.8924 13.6165C36.4389 14.2968 35.9121 14.9386 35.3189 15.5336C35.566 15.3991 36.2682 15.0515 36.3332 15.0291C37.1394 14.7264 38.934 14.5582 39.5712 15.2085C39.6767 15.3169 39.7542 15.4435 39.7986 15.5798C39.8429 15.7161 39.8532 15.859 39.8286 15.999C39.804 16.139 39.7451 16.2728 39.6559 16.3917C39.5667 16.5105 39.4491 16.6116 39.3111 16.6883C38.9981 16.8332 38.6525 16.9183 38.298 16.9377C37.9434 16.957 37.5881 16.9102 37.2565 16.8004C36.5208 16.4868 35.8418 16.0827 35.2409 15.6008C34.6569 16.2184 34.0271 16.8026 33.3553 17.3497L32.0549 18.2354L32.497 18.0224C33.3163 17.7309 35.0978 17.5515 35.735 18.2018C35.8405 18.3103 35.918 18.4369 35.9624 18.5732C36.0068 18.7095 36.017 18.8523 35.9924 18.9923C35.9678 19.1323 35.909 19.2661 35.8197 19.385C35.7305 19.5038 35.613 19.6049 35.4749 19.6816C35.1631 19.8294 34.8173 19.9161 34.4621 19.9355C34.107 19.9549 33.7513 19.9065 33.4203 19.7937C32.706 19.5104 32.0478 19.1321 31.4697 18.6726L30.9756 19.009C30.1823 19.5359 29.3891 20.0516 28.6219 20.5897C28.3488 20.7691 28.1017 20.9709 27.8416 21.1614L28.2188 20.9709C29.038 20.6682 30.8195 20.5 31.4567 21.1503C31.5622 21.2587 31.6397 21.3853 31.6841 21.5216C31.7285 21.6579 31.7387 21.8008 31.7141 21.9408C31.6895 22.0807 31.6307 22.2146 31.5414 22.3334C31.4522 22.4523 31.3347 22.5534 31.1966 22.6301C30.8839 22.7757 30.5383 22.8612 30.1836 22.8805C29.8289 22.8999 29.4735 22.8527 29.142 22.7422C28.4459 22.4552 27.8054 22.077 27.2435 21.6211C26.9834 21.8229 26.7233 22.0247 26.4892 22.2377C26.2552 22.4507 26.1641 22.5067 26.0081 22.6637L25.5529 23.1009L24.7337 23.9754L24.2135 24.5696L25.0458 23.9866C25.8 23.583 27.5295 23.1906 28.2838 23.74C28.4061 23.8346 28.504 23.9504 28.571 24.0798C28.6381 24.2092 28.6727 24.3493 28.6727 24.4911C28.6727 24.6328 28.6381 24.7729 28.571 24.9023C28.504 25.0318 28.4061 25.1476 28.2838 25.2422C27.9983 25.4253 27.671 25.5539 27.3235 25.6197C26.976 25.6854 26.6163 25.6866 26.2682 25.6234C25.4894 25.4106 24.7527 25.0968 24.0835 24.6929L23.2773 25.6346C22.406 26.6772 21.7168 27.5741 21.2487 28.2131V28.2804L20.6375 28.0225L20.7415 27.8992C21.2226 27.2714 21.9379 26.3745 22.8481 25.3319C23.1342 25.0068 23.4463 24.6592 23.7714 24.3117C23.4381 23.9904 23.1256 23.6536 22.8351 23.3027C22.0759 23.4762 21.2928 23.5592 20.5074 23.5494C20.5074 23.953 20.4424 24.3453 20.4294 24.6705C20.4294 25.9597 20.4294 27.0359 20.4294 27.7871V27.8768L19.7662 27.5965C19.7662 26.8454 19.7662 25.8364 19.8832 24.648C19.8832 24.2332 19.8832 23.796 20.0003 23.3476C19.2045 23.1969 18.441 22.9396 17.7376 22.5852C17.4455 22.4095 17.2011 22.1811 17.0215 21.9159C16.8418 21.6507 16.7312 21.355 16.6973 21.0493C16.6963 20.9068 16.7303 20.7658 16.797 20.6355C16.8638 20.5051 16.9618 20.3884 17.0847 20.2931C17.2075 20.1978 17.3524 20.126 17.5098 20.0824C17.6671 20.0389 17.8334 20.0245 17.9977 20.0403C18.986 20.1412 19.8052 21.509 19.9613 22.2825C19.9613 22.2825 19.9613 22.8207 20.0393 23.1233C20.0393 22.944 20.0393 22.7646 20.0393 22.574C20.0393 22.2041 20.1303 21.8341 20.1953 21.4529C20.1953 21.2624 20.2604 21.0718 20.2994 20.87C20.3384 20.6682 20.4034 20.4776 20.4424 20.2758C20.5594 19.8161 20.7155 19.3453 20.8715 18.8744C20.0824 18.8264 19.3063 18.6752 18.5699 18.426C18.2502 18.291 17.9684 18.0978 17.7439 17.8597C17.5193 17.6216 17.3575 17.3444 17.2695 17.0471C17.2438 16.906 17.2526 16.7619 17.2956 16.6241C17.3385 16.4862 17.4145 16.3577 17.5187 16.2467C17.6229 16.1358 17.7529 16.0449 17.9004 15.98C18.0478 15.9151 18.2095 15.8776 18.3748 15.8699C19.3631 15.8699 20.4164 17.0919 20.7025 17.8206C20.7025 17.8206 20.8715 18.3924 20.9366 18.6951C21.0406 18.4148 21.1316 18.1345 21.2487 17.8542C21.5607 17.0471 21.9119 16.2399 22.263 15.4327L22.5751 14.6815C21.7592 14.6343 20.9566 14.4793 20.1953 14.2219C19.8757 14.0869 19.5939 13.8937 19.3693 13.6556C19.1448 13.4176 18.983 13.1403 18.895 12.843C18.877 12.7069 18.8914 12.569 18.9373 12.4379C18.9831 12.3067 19.0595 12.185 19.1617 12.0801C19.2639 11.9752 19.3898 11.8893 19.5317 11.8277C19.6737 11.7662 19.8287 11.7301 19.9873 11.7219C20.9886 11.7219 22.0419 12.9439 22.328 13.6614C22.328 13.7174 22.549 14.491 22.6011 14.6815C22.8221 14.1434 23.0432 13.5605 23.2383 13.0448C23.5061 12.3107 23.7147 11.5615 23.8624 10.8026C23.0427 10.7535 22.2361 10.5986 21.4697 10.3429C21.1501 10.208 20.8683 10.0148 20.6437 9.77668C20.4192 9.5386 20.2573 9.2613 20.1693 8.96399C20.1436 8.82298 20.1525 8.67891 20.1955 8.54105C20.2384 8.40319 20.3144 8.27463 20.4186 8.16368C20.5228 8.05273 20.6528 7.96186 20.8002 7.89696C20.9477 7.83205 21.1093 7.79454 21.2747 7.78686C22.263 7.78686 23.3163 9.00883 23.6024 9.73754C23.6024 9.73754 23.7844 10.3653 23.8494 10.6456C23.9772 9.87724 24.0294 9.10095 24.0055 8.32499C24.0055 7.89898 24.0055 7.49536 23.9145 7.10298C23.1078 7.12721 22.3014 7.04787 21.5217 6.86756C21.1861 6.76227 20.8809 6.59549 20.6272 6.37872C20.3735 6.16196 20.1774 5.90036 20.0523 5.61194C20.0102 5.4747 20.0019 5.33142 20.0277 5.19123C20.0536 5.05104 20.1131 4.91701 20.2024 4.79778C20.2918 4.67854 20.409 4.5767 20.5466 4.49876C20.6842 4.42081 20.8392 4.36848 21.0016 4.34511C21.9769 4.233 23.1862 5.3653 23.6024 6.06037C23.6024 6.06037 23.7974 6.49759 23.9015 6.78907C23.9015 6.6097 23.9015 6.43032 23.9015 6.26216C23.7974 5.61193 23.6544 5.04019 23.5373 4.52449L23.3163 3.72852C22.5952 3.43735 21.9254 3.05993 21.3267 2.60743C21.0867 2.38102 20.9067 2.1124 20.7989 1.82013C20.6911 1.52785 20.6582 1.21888 20.7025 0.914578C20.7182 0.770278 20.7698 0.630612 20.8538 0.505049C20.9378 0.379486 21.0521 0.270978 21.1891 0.186937C21.326 0.102897 21.4824 0.0452955 21.6475 0.0180282C21.8126 -0.00923922 21.9826 -0.00554603 22.1459 0.0289079Z" fill="#40AF92"/>
<path d="M40.051 13.1899C39.2431 13.0548 38.463 12.8167 37.7363 12.4836C37.7363 12.4836 38.5686 11.7437 38.6206 11.6989C39.3098 11.228 40.9743 10.6563 41.8065 11.1271C41.9401 11.2094 42.0522 11.3149 42.1353 11.4369C42.2185 11.5589 42.271 11.6946 42.2894 11.8352C42.3078 11.9758 42.2917 12.1182 42.2421 12.2531C42.1925 12.388 42.1106 12.5124 42.0016 12.6182C41.7469 12.8334 41.4394 12.9965 41.1018 13.0955C40.7642 13.1944 40.4051 13.2267 40.051 13.1899Z" fill="#40AF92"/>
<path d="M31.0137 29.9069C31.0137 29.9069 26.3193 20.1422 23.6925 20.5682C21.0657 20.9942 28.1528 36.1402 28.1528 36.1402C28.1528 36.1402 19.8953 22.6871 14.2517 22.6871C8.60796 22.6871 16.3193 37.5415 23.4584 42.4967C23.4584 42.4967 12.184 32.0258 5.61706 34.2904C-0.949912 36.555 18.803 47.1717 18.803 47.1717C18.803 47.1717 7.34658 44.0663 8.64697 46.499C9.94736 48.9318 13.5234 49.3354 13.5234 49.3354L0.519531 49.8959H45.6691L35.526 49.0439C35.526 49.0439 46.0462 44.5595 43.2243 42.6761C40.4025 40.7927 34.2126 44.8062 34.2126 44.8062C34.2126 44.8062 44.9149 34.6155 42.8472 30.7926C40.7796 26.9696 31.5728 37.7321 31.5728 37.7321C31.5728 37.7321 39.0891 23.9988 37.5937 21.5996C36.0982 19.2005 31.0137 29.9069 31.0137 29.9069Z" fill="#40AF92"/>
<path d="M32.522 30.4219C30.1222 36.1918 28.7286 42.2368 28.3867 48.3593C31.9868 48.2864 35.47 47.2436 38.3477 45.3772" stroke="#263238" stroke-linecap="round" stroke-linejoin="round"/>
<path d="M30.4543 36.0952C29.6049 32.9455 28.4745 29.857 27.0732 26.8574" stroke="#263238" stroke-linecap="round" stroke-linejoin="round"/>
<path d="M18.2441 29.9395L28.7643 43.3925C28.7643 43.3925 35.9554 38.2019 38.3482 35.287" stroke="#263238" stroke-linecap="round" stroke-linejoin="round"/>
<path d="M28.5695 46.6223C28.5695 46.6223 17.4902 42.0819 12.9648 39.4922" stroke="#263238" stroke-linecap="round" stroke-linejoin="round"/>
<path d="M631.132 170.621C631.132 170.621 630.911 171.63 630.885 171.742C630.612 172.471 629.584 173.727 628.596 173.727C628.434 173.723 628.275 173.69 628.128 173.63C627.982 173.571 627.851 173.486 627.745 173.38C627.638 173.275 627.559 173.152 627.51 173.018C627.462 172.885 627.447 172.744 627.465 172.605C627.551 172.303 627.712 172.021 627.936 171.777C628.161 171.533 628.443 171.334 628.765 171.193C629.516 170.901 630.314 170.708 631.132 170.621Z" fill="#40AF92"/>
<path d="M633.043 177.459C632.106 177.168 631.651 175.677 631.742 174.914C631.742 174.858 631.924 173.793 631.937 173.793C631.937 173.558 631.794 173.311 631.716 173.031C631.573 172.527 631.417 171.91 631.3 171.305C631.169 170.614 631.082 169.918 631.04 169.219C630.987 168.438 631.017 167.653 631.131 166.876C631.014 167.101 630.65 167.728 630.611 167.773C630.13 168.401 628.751 169.388 627.802 169.163C627.645 169.122 627.5 169.054 627.375 168.961C627.251 168.869 627.151 168.755 627.081 168.627C627.011 168.499 626.973 168.36 626.97 168.219C626.966 168.078 626.997 167.937 627.061 167.807C627.223 167.526 627.455 167.28 627.74 167.086C628.026 166.892 628.358 166.756 628.712 166.686C629.526 166.593 630.351 166.612 631.157 166.742C631.291 165.95 631.486 165.168 631.742 164.399C631.885 163.961 632.054 163.513 632.223 163.065L631.989 163.457C631.508 164.096 630.13 165.083 629.18 164.847C629.016 164.816 628.861 164.755 628.726 164.668C628.591 164.581 628.48 164.469 628.4 164.342C628.319 164.214 628.272 164.073 628.261 163.928C628.25 163.783 628.275 163.638 628.335 163.502C628.497 163.221 628.729 162.975 629.015 162.781C629.3 162.588 629.632 162.451 629.987 162.381C630.771 162.277 631.569 162.277 632.353 162.381C632.431 162.213 632.496 162.033 632.561 161.865C632.887 161.047 633.212 160.239 633.511 159.432C633.615 159.152 633.706 158.86 633.797 158.58L633.602 158.917C633.108 159.556 631.742 160.542 630.78 160.318C630.622 160.276 630.477 160.206 630.353 160.112C630.229 160.019 630.129 159.904 630.061 159.775C629.992 159.645 629.956 159.505 629.954 159.363C629.953 159.221 629.986 159.08 630.052 158.95C630.219 158.681 630.452 158.446 630.735 158.262C631.018 158.078 631.344 157.95 631.69 157.885C632.457 157.777 633.238 157.777 634.005 157.885C634.083 157.594 634.174 157.302 634.239 157.011C634.304 156.719 634.33 156.63 634.356 156.428C634.382 156.226 634.356 156.035 634.46 155.845C634.46 155.475 634.551 155.082 634.577 154.724C634.603 154.365 634.577 154.23 634.577 153.984C634.486 154.264 634.265 154.813 634.252 154.858C633.896 155.456 633.373 155.969 632.73 156.349C632.695 156.416 632.651 156.48 632.6 156.54C632.511 156.658 632.394 156.759 632.257 156.836C632.119 156.913 631.965 156.964 631.803 156.987C631.641 157.009 631.476 157.001 631.317 156.965C631.159 156.929 631.011 156.864 630.884 156.775C630.13 156.215 630.312 154.69 630.663 153.984L631.144 153.244L630.741 153.681L629.87 154.556L629.414 154.993C629.258 155.138 629.076 155.273 628.907 155.419C628.517 155.755 628.088 156.069 627.607 156.383C628.234 156.797 628.782 157.292 629.232 157.852C629.477 158.125 629.641 158.445 629.711 158.784C629.782 159.124 629.756 159.473 629.636 159.802C629.567 159.931 629.468 160.046 629.345 160.14C629.222 160.234 629.077 160.305 628.921 160.349C628.764 160.392 628.599 160.406 628.435 160.391C628.272 160.377 628.114 160.332 627.971 160.262C627.126 159.802 627.048 158.266 627.256 157.526C627.256 157.526 627.503 156.966 627.633 156.686L626.84 157.235C626.059 157.762 625.24 158.266 624.434 158.771L623.693 159.242C624.344 159.672 624.914 160.186 625.383 160.766C625.567 161.03 625.68 161.326 625.716 161.632C625.752 161.938 625.71 162.247 625.591 162.538C625.522 162.666 625.422 162.78 625.298 162.873C625.175 162.965 625.03 163.035 624.873 163.077C624.717 163.119 624.552 163.133 624.389 163.117C624.226 163.102 624.069 163.057 623.927 162.986C623.082 162.538 623.004 161.002 623.225 160.262C623.225 160.206 623.563 159.466 623.654 159.275C623.108 159.623 622.574 159.97 622.067 160.329C621.376 160.821 620.72 161.349 620.104 161.91C620.766 162.34 621.349 162.854 621.833 163.435C622.013 163.7 622.125 163.995 622.161 164.301C622.197 164.606 622.156 164.915 622.041 165.206C621.971 165.334 621.872 165.448 621.748 165.541C621.624 165.634 621.48 165.703 621.323 165.746C621.167 165.788 621.002 165.801 620.839 165.786C620.676 165.77 620.519 165.725 620.377 165.654C619.531 165.206 619.453 163.67 619.662 162.93C619.662 162.874 619.922 162.313 620.052 162.044C619.456 162.623 618.92 163.245 618.452 163.905C618.179 164.264 617.958 164.623 617.737 165.026C618.425 165.391 619.047 165.841 619.584 166.361C619.792 166.608 619.937 166.891 620.009 167.191C620.081 167.49 620.078 167.8 620 168.098C619.948 168.233 619.865 168.358 619.754 168.463C619.644 168.569 619.509 168.654 619.358 168.712C619.208 168.77 619.045 168.8 618.88 168.801C618.715 168.801 618.551 168.772 618.4 168.715C617.516 168.334 617.23 166.82 617.36 166.058C617.36 166.058 617.477 165.609 617.581 165.307L617.295 165.789C616.97 166.372 616.71 166.91 616.489 167.414C616.372 167.695 616.255 167.941 616.163 168.177C616.575 168.77 616.882 169.412 617.074 170.083C617.131 170.386 617.111 170.695 617.017 170.991C616.923 171.287 616.756 171.562 616.528 171.798C616.409 171.896 616.268 171.971 616.113 172.02C615.959 172.068 615.794 172.088 615.631 172.078C615.467 172.069 615.307 172.03 615.161 171.964C615.016 171.899 614.888 171.808 614.785 171.697C614.187 171.013 614.785 169.556 615.266 168.939C615.266 168.939 616.111 168.109 616.124 168.121C616.202 167.885 616.307 167.639 616.411 167.37C616.632 166.876 616.866 166.316 617.178 165.733C617.507 165.094 617.88 164.472 618.296 163.872C618.75 163.192 619.276 162.55 619.87 161.955C619.623 162.089 618.92 162.437 618.855 162.459C618.049 162.762 616.255 162.93 615.617 162.28C615.512 162.171 615.434 162.045 615.39 161.908C615.346 161.772 615.335 161.629 615.36 161.489C615.384 161.349 615.443 161.215 615.533 161.097C615.622 160.978 615.739 160.877 615.877 160.8C616.19 160.655 616.536 160.57 616.891 160.551C617.245 160.531 617.6 160.578 617.932 160.688C618.668 161.002 619.347 161.406 619.948 161.887C620.532 161.27 621.161 160.686 621.833 160.139L623.134 159.253L622.691 159.466C621.872 159.757 620.091 159.937 619.453 159.286C619.348 159.178 619.27 159.051 619.226 158.915C619.182 158.779 619.171 158.636 619.196 158.496C619.221 158.356 619.28 158.222 619.369 158.103C619.458 157.984 619.576 157.883 619.714 157.807C620.025 157.659 620.371 157.572 620.726 157.553C621.081 157.533 621.437 157.582 621.768 157.695C622.482 157.978 623.141 158.356 623.719 158.816L624.213 158.479C625.006 157.952 625.799 157.437 626.567 156.899C626.84 156.719 627.087 156.517 627.347 156.327L626.97 156.517C626.15 156.82 624.369 156.988 623.732 156.338C623.626 156.23 623.549 156.103 623.504 155.967C623.46 155.83 623.45 155.687 623.474 155.548C623.499 155.408 623.558 155.274 623.647 155.155C623.736 155.036 623.854 154.935 623.992 154.858C624.305 154.713 624.65 154.627 625.005 154.608C625.36 154.588 625.715 154.636 626.046 154.746C626.743 155.033 627.383 155.411 627.945 155.867C628.205 155.665 628.465 155.464 628.699 155.251C628.933 155.038 629.024 154.982 629.18 154.825L629.636 154.387L630.455 153.513L630.975 152.919L630.143 153.502C629.388 153.905 627.659 154.298 626.905 153.748C626.782 153.654 626.684 153.538 626.617 153.408C626.55 153.279 626.516 153.139 626.516 152.997C626.516 152.855 626.55 152.715 626.617 152.586C626.684 152.457 626.782 152.341 626.905 152.246C627.19 152.063 627.517 151.934 627.865 151.869C628.212 151.803 628.572 151.802 628.92 151.865C629.699 152.078 630.436 152.391 631.105 152.795L631.911 151.854C632.782 150.811 633.472 149.914 633.94 149.275V149.208L634.551 149.466L634.447 149.589C633.966 150.217 633.251 151.114 632.34 152.156C632.054 152.482 631.742 152.829 631.417 153.177C631.75 153.498 632.063 153.835 632.353 154.186C633.113 154.012 633.896 153.929 634.681 153.939C634.681 153.535 634.746 153.143 634.759 152.818C634.759 151.529 634.759 150.452 634.759 149.701V149.611L635.422 149.892C635.422 150.643 635.422 151.652 635.305 152.84C635.305 153.255 635.305 153.692 635.188 154.141C635.984 154.291 636.747 154.549 637.451 154.903C637.743 155.079 637.987 155.307 638.167 155.572C638.347 155.838 638.457 156.133 638.491 156.439C638.492 156.581 638.458 156.722 638.391 156.853C638.325 156.983 638.227 157.1 638.104 157.195C637.981 157.29 637.836 157.362 637.679 157.406C637.521 157.449 637.355 157.464 637.191 157.448C636.203 157.347 635.383 155.979 635.227 155.206C635.227 155.206 635.227 154.668 635.149 154.365C635.149 154.544 635.149 154.724 635.149 154.914C635.149 155.284 635.058 155.654 634.993 156.035C634.993 156.226 634.928 156.417 634.889 156.618C634.85 156.82 634.785 157.011 634.746 157.213C634.629 157.672 634.473 158.143 634.317 158.614C635.106 158.662 635.882 158.813 636.619 159.062C636.938 159.197 637.22 159.39 637.445 159.629C637.669 159.867 637.831 160.144 637.919 160.441C637.945 160.582 637.936 160.726 637.893 160.864C637.85 161.002 637.774 161.131 637.67 161.242C637.566 161.353 637.436 161.443 637.288 161.508C637.141 161.573 636.979 161.611 636.814 161.618C635.825 161.618 634.772 160.396 634.486 159.668C634.486 159.668 634.317 159.096 634.252 158.793C634.148 159.073 634.057 159.354 633.94 159.634C633.628 160.441 633.277 161.248 632.926 162.056L632.613 162.807C633.429 162.854 634.232 163.009 634.993 163.266C635.313 163.401 635.595 163.595 635.819 163.833C636.044 164.071 636.206 164.348 636.294 164.645C636.311 164.781 636.297 164.919 636.251 165.05C636.205 165.182 636.129 165.303 636.027 165.408C635.925 165.513 635.799 165.599 635.657 165.661C635.515 165.722 635.36 165.758 635.201 165.766C634.2 165.766 633.147 164.544 632.86 163.827C632.86 163.771 632.639 162.997 632.587 162.807C632.366 163.345 632.145 163.928 631.95 164.444C631.682 165.178 631.474 165.927 631.326 166.686C632.146 166.735 632.952 166.89 633.719 167.145C634.038 167.28 634.32 167.474 634.545 167.712C634.769 167.95 634.931 168.227 635.019 168.524C635.045 168.665 635.036 168.809 634.993 168.947C634.95 169.085 634.874 169.214 634.77 169.325C634.666 169.436 634.536 169.526 634.388 169.591C634.241 169.656 634.079 169.694 633.914 169.701C632.926 169.701 631.872 168.479 631.586 167.751C631.586 167.751 631.404 167.123 631.339 166.843C631.211 167.611 631.159 168.387 631.183 169.163C631.183 169.589 631.183 169.993 631.274 170.385C632.081 170.361 632.887 170.44 633.667 170.621C634.002 170.726 634.308 170.893 634.561 171.11C634.815 171.326 635.011 171.588 635.136 171.876C635.178 172.014 635.187 172.157 635.161 172.297C635.135 172.437 635.075 172.571 634.986 172.691C634.897 172.81 634.779 172.912 634.642 172.99C634.504 173.067 634.349 173.12 634.187 173.143C633.212 173.255 632.002 172.123 631.586 171.428C631.586 171.428 631.391 170.991 631.287 170.699C631.287 170.879 631.287 171.058 631.287 171.226C631.391 171.876 631.534 172.448 631.651 172.964L631.872 173.76C632.593 174.051 633.263 174.428 633.862 174.881C634.102 175.107 634.282 175.376 634.39 175.668C634.497 175.96 634.53 176.269 634.486 176.574C634.47 176.718 634.419 176.858 634.335 176.983C634.251 177.109 634.136 177.217 633.999 177.301C633.862 177.385 633.706 177.443 633.541 177.47C633.376 177.498 633.206 177.494 633.043 177.459Z" fill="#40AF92"/>
<path d="M615.137 164.298C615.945 164.433 616.725 164.672 617.452 165.005C617.452 165.005 616.62 165.745 616.568 165.789C615.879 166.26 614.214 166.832 613.382 166.361C613.248 166.279 613.136 166.173 613.053 166.051C612.97 165.929 612.917 165.794 612.899 165.653C612.881 165.512 612.897 165.37 612.946 165.235C612.996 165.1 613.078 164.976 613.187 164.87C613.442 164.655 613.749 164.492 614.087 164.393C614.424 164.294 614.783 164.262 615.137 164.298Z" fill="#40AF92"/>
<path d="M624.175 147.581C624.175 147.581 628.869 157.346 631.496 156.92C634.123 156.494 627.036 141.348 627.036 141.348C627.036 141.348 635.293 154.801 640.937 154.801C646.581 154.801 638.869 139.947 631.73 134.992C631.73 134.992 643.004 145.463 649.571 143.198C656.138 140.933 636.385 130.317 636.385 130.317C636.385 130.317 647.842 133.422 646.542 130.989C645.241 128.556 641.665 128.153 641.665 128.153L654.669 127.592H609.519L619.662 128.444C619.662 128.444 609.142 132.929 611.964 134.812C614.786 136.696 620.976 132.682 620.976 132.682C620.976 132.682 610.274 142.873 612.341 146.696C614.409 150.519 623.616 139.756 623.616 139.756C623.616 139.756 616.099 153.49 617.595 155.889C619.09 158.288 624.175 147.581 624.175 147.581Z" fill="#40AF92"/>
<path d="M622.667 147.066C625.066 141.296 626.46 135.252 626.802 129.129C623.202 129.202 619.718 130.245 616.841 132.111" stroke="#263238" stroke-linecap="round" stroke-linejoin="round"/>
<path d="M624.734 141.393C625.584 144.543 626.714 147.631 628.115 150.631" stroke="#263238" stroke-linecap="round" stroke-linejoin="round"/>
<path d="M636.944 147.549L626.424 134.096C626.424 134.096 619.233 139.286 616.84 142.201" stroke="#263238" stroke-linecap="round" stroke-linejoin="round"/>
<path d="M626.619 130.866C626.619 130.866 637.698 135.406 642.224 137.996" stroke="#263238" stroke-linecap="round" stroke-linejoin="round"/>
</svg>
