<svg width="80" height="81" viewBox="0 0 80 81" fill="none" xmlns="http://www.w3.org/2000/svg">
<rect y="0.976562" width="80" height="80" rx="20" fill="#40AF92" fill-opacity="0.2"/>
<path d="M45.9092 24.9766C41.8266 24.9766 38.5074 28.4 38.5074 32.5944C38.5074 36.7888 41.8266 40.2122 45.9092 40.2122C54.9676 40.2122 60.7919 31.0525 60.7919 31.0525C60.8757 30.9233 60.9188 30.7711 60.9156 30.6162C60.9123 30.4613 60.8629 30.3111 60.7738 30.1856C60.6847 30.0602 60.5602 29.9654 60.4169 29.9139C60.2736 29.8625 60.1184 29.8568 59.9718 29.8977C57.389 30.6107 55.8235 29.5594 53.8189 28.1486C51.8142 26.7378 49.4734 24.9766 45.9092 24.9766ZM45.9092 26.5001C48.9984 26.5001 50.9343 27.9719 52.9704 29.404C54.5568 30.5208 56.4016 31.2948 58.5572 31.3146C57.3412 32.9814 52.9151 38.6886 45.9092 38.6886C43.1665 38.6886 40.89 36.7659 40.2193 34.153C41.6369 34.6375 43.422 34.6832 45.0398 34.6619C47.0415 34.636 48.7399 34.4303 48.7399 34.4303C48.8374 34.4185 48.9317 34.3872 49.0173 34.3382C49.103 34.2893 49.1783 34.2236 49.2391 34.1449C49.2998 34.0663 49.3448 33.9762 49.3714 33.8798C49.398 33.7834 49.4058 33.6826 49.3942 33.5832C49.3826 33.4837 49.352 33.3876 49.304 33.3002C49.256 33.2129 49.1916 33.136 49.1144 33.0741C49.0373 33.0121 48.949 32.9662 48.8545 32.9391C48.76 32.9119 48.6612 32.904 48.5637 32.9159C48.5637 32.9159 46.9354 33.1139 45.0233 33.1383C43.1113 33.1627 40.8825 32.9265 40.0281 32.4192C40.0251 32.4171 40.0221 32.4151 40.0191 32.4131C40.1132 29.1207 42.702 26.5001 45.9092 26.5001ZM18.347 36.7933C18.1489 36.7933 17.9589 36.8736 17.8189 37.0164C17.6788 37.1593 17.6001 37.3531 17.6001 37.5551V53.0696C17.6001 53.2716 17.6788 53.4654 17.8189 53.6082C17.9589 53.7511 18.1489 53.8313 18.347 53.8313H26.5196C26.7177 53.8313 26.9077 53.7511 27.0477 53.6082C27.1878 53.4654 27.2665 53.2716 27.2665 53.0696V51.9421L41.2186 56.7627C41.2378 56.7696 41.2572 56.7757 41.2769 56.781C42.9006 57.2015 44.7754 56.9485 46.1915 55.978L60.6396 47.9702C60.6426 47.9702 60.6455 47.9702 60.6485 47.9702L61.0055 47.7675C61.5896 47.4309 62.0325 46.8877 62.2507 46.2407C62.469 45.5937 62.4474 44.8876 62.1901 44.2557C61.7315 43.1512 60.8308 42.6469 60.1272 42.5417V42.5387C59.698 42.4767 59.2607 42.5105 58.8455 42.6377C58.8206 42.6465 58.7962 42.6567 58.7723 42.6682L50.8074 46.4344C50.8178 46.3324 50.8402 46.2333 50.8402 46.1282C50.8402 44.4157 49.451 43.0247 47.7645 43.0247H41.132C41.1051 42.9744 41.0722 42.9028 41.0453 42.8541C40.6908 42.1993 40.2444 41.6008 39.7203 41.0776C38.265 39.6319 36.3114 38.8266 34.2799 38.8349H27.2665V37.5551C27.2665 37.3531 27.1878 37.1593 27.0477 37.0164C26.9077 36.8736 26.7177 36.7933 26.5196 36.7933H18.347ZM19.0939 38.3169H25.7727V52.3078H19.0939V38.3169ZM27.265 40.3585H34.2799C35.2901 40.3536 36.2864 40.5988 37.1832 41.073C38.0801 41.5472 38.8507 42.2363 39.429 43.0811C39.5396 43.2441 39.6442 43.4163 39.7383 43.593C39.8563 43.8078 39.9354 43.9373 39.9982 44.0866L40.1909 44.5483H47.7645C48.6608 44.5483 49.3464 45.2461 49.3464 46.1282C49.3464 46.7772 48.97 47.3211 48.4158 47.5649L48.371 47.5862C48.1782 47.6656 47.9724 47.707 47.7645 47.7081H37.3751V49.2317H47.7645C48.0662 49.2317 48.3515 49.1708 48.6279 49.0885C48.7278 49.0815 48.8254 49.054 48.9147 49.0077L59.3325 44.0805C59.3414 44.0805 59.5954 43.9952 59.9106 44.0424C60.2318 44.0881 60.538 44.1796 60.8158 44.8454C60.9364 45.1319 60.9472 45.4542 60.8459 45.7485C60.7447 46.0428 60.5388 46.2876 60.2691 46.4344L59.9196 46.6371L45.4192 54.6739C45.3982 54.6856 45.3778 54.6983 45.358 54.712C44.372 55.3884 42.8424 55.6109 41.6473 55.3016H41.6444L27.2665 50.3348L27.265 40.3585Z" fill="#40AF92"/>
</svg>
