<svg width="148" height="60" viewBox="0 0 148 60" fill="none" xmlns="http://www.w3.org/2000/svg">
<circle cx="127.737" cy="39.9068" r="20.0934" fill="#40AF92"/>
<path d="M40.1869 39.9068C40.1869 51.0041 31.1907 60.0002 20.0934 60.0002C8.99614 60.0002 0 51.0041 0 39.9068C0 28.8095 8.99614 19.8134 20.0934 19.8134C31.1907 19.8134 40.1869 28.8095 40.1869 39.9068Z" fill="#45ABC2"/>
<path d="M34.4461 40.1872C34.4461 48.1138 28.0203 54.5396 20.0937 54.5396C12.167 54.5396 5.74121 48.1138 5.74121 40.1872C5.74121 32.2605 12.167 25.8347 20.0937 25.8347C28.0203 25.8347 34.4461 32.2605 34.4461 40.1872Z" fill="white"/>
<path d="M27.2697 40.187C27.2697 44.1503 24.0568 47.3632 20.0935 47.3632C16.1301 47.3632 12.9172 44.1503 12.9172 40.187C12.9172 36.2236 16.1301 33.0107 20.0935 33.0107C24.0568 33.0107 27.2697 36.2236 27.2697 40.187Z" fill="#45ABC2"/>
<path d="M141.739 40.1698C141.739 48.0965 135.313 54.5223 127.387 54.5223C119.46 54.5223 113.034 48.0965 113.034 40.1698C113.034 32.2432 119.46 25.8174 127.387 25.8174C135.313 25.8174 141.739 32.2432 141.739 40.1698Z" fill="white"/>
<path d="M7.89355 16.9426C61.2847 -7.16949 97.5964 17.8995 109.078 33.448L111.231 30.1402L115.537 25.1168L124.866 23.6816V19.8077C76.0677 -14.6382 26.5518 3.5452 7.89355 16.9426Z" fill="#40AF92"/>
<path d="M36.4586 28.4587L32.8705 25.5883L33.5881 40.6583L30 55.4481C42.9172 39.2231 83.1467 45.5319 103.198 52.1427C83.4849 36.9378 50.7116 29.2851 36.4586 28.4587Z" fill="#45ABC2"/>
<path d="M134.913 40.187C134.913 44.1503 131.7 47.3632 127.737 47.3632C123.774 47.3632 120.561 44.1503 120.561 40.187C120.561 36.2236 123.774 33.0107 127.737 33.0107C131.7 33.0107 134.913 36.2236 134.913 40.187Z" fill="#40AF92"/>
<circle cx="127.737" cy="39.9068" r="20.0934" fill="#40AF92"/>
<path d="M40.1869 39.9068C40.1869 51.0041 31.1907 60.0002 20.0934 60.0002C8.99614 60.0002 0 51.0041 0 39.9068C0 28.8095 8.99614 19.8134 20.0934 19.8134C31.1907 19.8134 40.1869 28.8095 40.1869 39.9068Z" fill="#45ABC2"/>
<path d="M34.4461 40.1872C34.4461 48.1138 28.0203 54.5396 20.0937 54.5396C12.167 54.5396 5.74121 48.1138 5.74121 40.1872C5.74121 32.2605 12.167 25.8347 20.0937 25.8347C28.0203 25.8347 34.4461 32.2605 34.4461 40.1872Z" fill="white"/>
<path d="M27.2697 40.187C27.2697 44.1503 24.0568 47.3632 20.0935 47.3632C16.1301 47.3632 12.9172 44.1503 12.9172 40.187C12.9172 36.2236 16.1301 33.0107 20.0935 33.0107C24.0568 33.0107 27.2697 36.2236 27.2697 40.187Z" fill="#45ABC2"/>
<path d="M141.739 40.1698C141.739 48.0965 135.313 54.5223 127.387 54.5223C119.46 54.5223 113.034 48.0965 113.034 40.1698C113.034 32.2432 119.46 25.8174 127.387 25.8174C135.313 25.8174 141.739 32.2432 141.739 40.1698Z" fill="white"/>
<path d="M7.89355 16.9426C61.2847 -7.16949 97.5964 17.8995 109.078 33.448L111.231 30.1402L115.537 25.1168L124.866 23.6816V19.8077C76.0677 -14.6382 26.5518 3.5452 7.89355 16.9426Z" fill="#40AF92"/>
<path d="M134.913 40.187C134.913 44.1503 131.7 47.3632 127.737 47.3632C123.774 47.3632 120.561 44.1503 120.561 40.187C120.561 36.2236 123.774 33.0107 127.737 33.0107C131.7 33.0107 134.913 36.2236 134.913 40.187Z" fill="#40AF92"/>
<path d="M41.6223 40.1861L28.7051 51.668V28.7041L41.6223 40.1861Z" fill="white"/>
<path d="M112.272 21.5644L131.693 26.5349L113.036 40.1689L112.272 21.5644Z" fill="white"/>
</svg>
