<svg width="148" height="60" viewBox="0 0 148 60" fill="none" xmlns="http://www.w3.org/2000/svg">
<circle cx="127.737" cy="39.9059" r="20.0934" fill="#40AF92"/>
<path d="M40.1869 39.9059C40.1869 51.0032 31.1907 59.9994 20.0934 59.9994C8.99614 59.9994 0 51.0032 0 39.9059C0 28.8086 8.99614 19.8125 20.0934 19.8125C31.1907 19.8125 40.1869 28.8086 40.1869 39.9059Z" fill="#45ABC2"/>
<path d="M34.4461 40.1864C34.4461 48.1131 28.0203 54.5389 20.0937 54.5389C12.167 54.5389 5.74121 48.1131 5.74121 40.1864C5.74121 32.2598 12.167 25.834 20.0937 25.834C28.0203 25.834 34.4461 32.2598 34.4461 40.1864Z" fill="white"/>
<path d="M27.2694 40.186C27.2694 44.1493 24.0565 47.3622 20.0932 47.3622C16.1299 47.3622 12.917 44.1493 12.917 40.186C12.917 36.2227 16.1299 33.0098 20.0932 33.0098C24.0565 33.0098 27.2694 36.2227 27.2694 40.186Z" fill="#45ABC2"/>
<path d="M141.739 40.1708C141.739 48.0975 135.313 54.5233 127.387 54.5233C119.46 54.5233 113.034 48.0975 113.034 40.1708C113.034 32.2442 119.46 25.8184 127.387 25.8184C135.313 25.8184 141.739 32.2442 141.739 40.1708Z" fill="white"/>
<path d="M7.89355 16.9426C61.2847 -7.16949 97.5964 17.8995 109.078 33.448L111.231 30.1402L115.537 25.1168L124.866 23.6816V19.8077C76.0677 -14.6382 26.5518 3.5452 7.89355 16.9426Z" fill="#40AF92"/>
<path d="M36.4586 28.4584L32.8705 25.5879L33.5881 40.658L30 55.4477C42.9172 39.2227 83.1467 45.5315 103.198 52.1423C83.4849 36.9374 50.7116 29.2847 36.4586 28.4584Z" fill="#45ABC2"/>
<path d="M134.913 40.186C134.913 44.1493 131.7 47.3622 127.737 47.3622C123.773 47.3622 120.561 44.1493 120.561 40.186C120.561 36.2227 123.773 33.0098 127.737 33.0098C131.7 33.0098 134.913 36.2227 134.913 40.186Z" fill="#40AF92"/>
<circle cx="127.737" cy="39.9059" r="20.0934" fill="#40AF92"/>
<path d="M40.1869 39.9059C40.1869 51.0032 31.1907 59.9994 20.0934 59.9994C8.99614 59.9994 0 51.0032 0 39.9059C0 28.8086 8.99614 19.8125 20.0934 19.8125C31.1907 19.8125 40.1869 28.8086 40.1869 39.9059Z" fill="#45ABC2"/>
<path d="M34.4461 40.1864C34.4461 48.1131 28.0203 54.5389 20.0937 54.5389C12.167 54.5389 5.74121 48.1131 5.74121 40.1864C5.74121 32.2598 12.167 25.834 20.0937 25.834C28.0203 25.834 34.4461 32.2598 34.4461 40.1864Z" fill="white"/>
<path d="M27.2694 40.186C27.2694 44.1493 24.0565 47.3622 20.0932 47.3622C16.1299 47.3622 12.917 44.1493 12.917 40.186C12.917 36.2227 16.1299 33.0098 20.0932 33.0098C24.0565 33.0098 27.2694 36.2227 27.2694 40.186Z" fill="#45ABC2"/>
<path d="M141.739 40.1708C141.739 48.0975 135.313 54.5233 127.387 54.5233C119.46 54.5233 113.034 48.0975 113.034 40.1708C113.034 32.2442 119.46 25.8184 127.387 25.8184C135.313 25.8184 141.739 32.2442 141.739 40.1708Z" fill="white"/>
<path d="M7.89355 16.9426C61.2847 -7.16949 97.5964 17.8995 109.078 33.448L111.231 30.1402L115.537 25.1168L124.866 23.6816V19.8077C76.0677 -14.6382 26.5518 3.5452 7.89355 16.9426Z" fill="#40AF92"/>
<path d="M134.913 40.186C134.913 44.1493 131.7 47.3622 127.737 47.3622C123.773 47.3622 120.561 44.1493 120.561 40.186C120.561 36.2227 123.773 33.0098 127.737 33.0098C131.7 33.0098 134.913 36.2227 134.913 40.186Z" fill="#40AF92"/>
<path d="M41.6221 40.1851L28.7049 51.6671V28.7031L41.6221 40.1851Z" fill="white"/>
<path d="M112.272 21.5646L131.694 26.5351L113.036 40.1692L112.272 21.5646Z" fill="white"/>
</svg>
