<svg width="16" height="17" viewBox="0 0 16 17" fill="none" xmlns="http://www.w3.org/2000/svg">
<path d="M14.7751 5.20819L13.8457 4.44331V1.91776C13.8535 1.82486 13.8421 1.73133 13.8122 1.64311C13.7824 1.55488 13.7347 1.47388 13.6722 1.40522C13.6097 1.33657 13.5337 1.28176 13.4491 1.24427C13.3646 1.20677 13.2732 1.18741 13.1808 1.18741C13.0884 1.18741 12.9971 1.20677 12.9125 1.24427C12.8279 1.28176 12.752 1.33657 12.6895 1.40522C12.627 1.47388 12.5793 1.55488 12.5494 1.64311C12.5195 1.73133 12.5081 1.82486 12.5159 1.91776V3.32726L10.109 1.35974C9.51315 0.868153 8.76722 0.599609 7.99762 0.599609C7.22802 0.599609 6.48208 0.868153 5.88621 1.35974L1.22014 5.20819C0.838619 5.52062 0.531074 5.91514 0.319975 6.36291C0.108876 6.81068 -0.000444779 7.30039 1.36005e-06 7.79627V13.2322C1.36005e-06 14.1253 0.351505 14.9818 0.977184 15.6133C1.60286 16.2448 2.45147 16.5996 3.33631 16.5996H12.6637C13.5485 16.5996 14.3971 16.2448 15.0228 15.6133C15.6485 14.9818 16 14.1253 16 13.2322V7.77703C15.997 7.28402 15.8856 6.79782 15.6738 6.35357C15.462 5.90932 15.155 5.5181 14.7751 5.20819ZM6.0006 15.2286V10.572C6.02567 10.0538 6.24726 9.56521 6.61948 9.20743C6.99169 8.84965 7.486 8.65009 8 8.65009C8.514 8.65009 9.00831 8.84965 9.38052 9.20743C9.75274 9.56521 9.97433 10.0538 9.9994 10.572V15.2286H6.0006ZM14.6702 13.213C14.669 13.7472 14.4582 14.2591 14.0839 14.6368C13.7097 15.0146 13.2025 15.2273 12.6732 15.2286H11.3339V10.572C11.3339 9.67888 10.9824 8.82237 10.3567 8.19086C9.73107 7.55935 8.88246 7.20457 7.99762 7.20457C7.11277 7.20457 6.26417 7.55935 5.63849 8.19086C5.01281 8.82237 4.66131 9.67888 4.66131 10.572V15.2286H3.32678C2.7967 15.2286 2.28826 15.0164 1.91299 14.6385C1.53772 14.2607 1.32626 13.748 1.32499 13.213V7.77703C1.32468 7.47778 1.39039 7.18222 1.51734 6.91179C1.6443 6.64136 1.82932 6.40286 2.05898 6.2136L6.72505 2.36514C7.08236 2.073 7.52825 1.91359 7.98808 1.91359C8.44792 1.91359 8.89381 2.073 9.25112 2.36514L13.9172 6.2136C14.1503 6.40097 14.339 6.63863 14.4693 6.90916C14.5996 7.17969 14.6683 7.47623 14.6702 7.77703V13.213Z" fill="black"/>
</svg>
