<svg width="22" height="23" viewBox="0 0 22 23" fill="none" xmlns="http://www.w3.org/2000/svg">
<rect y="0.5" width="22" height="22" rx="4" fill="#45ABC2"/>
<path d="M14.4291 5.95898H7.04033C6.62042 5.95898 6.2177 6.12637 5.92077 6.42433C5.62384 6.72228 5.45703 7.12639 5.45703 7.54776V12.8437C5.45703 13.265 5.62384 13.6692 5.92077 13.9671C6.2177 14.2651 6.62042 14.4325 7.04033 14.4325H13.1572L15.1099 16.3972C15.1592 16.4463 15.2177 16.4852 15.282 16.5115C15.3463 16.5379 15.4152 16.5512 15.4846 16.5508C15.5538 16.5526 15.6225 16.5381 15.6852 16.5085C15.7815 16.4687 15.864 16.4013 15.9223 16.3145C15.9805 16.2278 16.0119 16.1258 16.0124 16.0212V7.54776C16.0124 7.12639 15.8456 6.72228 15.5486 6.42433C15.2517 6.12637 14.849 5.95898 14.4291 5.95898ZM14.9568 14.7449L13.7483 13.5269C13.6989 13.4778 13.6405 13.4389 13.5762 13.4126C13.5119 13.3862 13.443 13.3729 13.3735 13.3733H7.04033C6.90036 13.3733 6.76612 13.3175 6.66715 13.2182C6.56817 13.1188 6.51257 12.9841 6.51257 12.8437V7.54776C6.51257 7.4073 6.56817 7.2726 6.66715 7.17328C6.76612 7.07396 6.90036 7.01817 7.04033 7.01817H14.4291C14.569 7.01817 14.7033 7.07396 14.8023 7.17328C14.9012 7.2726 14.9568 7.4073 14.9568 7.54776V14.7449Z" fill="white"/>
</svg>
