<svg width="17" height="15" viewBox="0 0 17 15" fill="none" xmlns="http://www.w3.org/2000/svg">
<path d="M8.6952 1.96826L8.95184 1.71345C9.75281 0.938849 10.8281 0.50856 11.9457 0.516234C13.0642 0.523914 14.1344 0.969731 14.9247 1.75657C15.715 2.54335 16.1621 3.6078 16.1699 4.71956C16.1777 5.83019 15.7466 6.89971 14.9689 7.69715L14.7126 7.9524L8.34292 14.2944L1.97325 7.9524L1.62047 8.30672L1.97325 7.9524L1.71604 7.6963C0.931655 6.9 0.494902 5.82811 0.500045 4.71362C0.505192 3.59839 0.952411 2.52986 1.74511 1.7406C2.53788 0.951275 3.61207 0.505178 4.73413 0.500045C5.85544 0.494915 6.93302 0.930575 7.73289 1.71164L7.99013 1.96776L8.34242 2.31852L8.6952 1.96826Z" stroke="#45ABC2"/>
</svg>
