<svg width="19" height="25" viewBox="0 0 19 25" fill="none" xmlns="http://www.w3.org/2000/svg">
<path d="M9.33333 11.5007C10.3882 11.5007 11.4193 11.1879 12.2964 10.6018C13.1734 10.0158 13.857 9.18284 14.2607 8.2083C14.6644 7.23376 14.77 6.1614 14.5642 5.12684C14.3584 4.09227 13.8504 3.14196 13.1046 2.39608C12.3587 1.6502 11.4084 1.14225 10.3738 0.936465C9.33925 0.730677 8.26689 0.836295 7.29235 1.23996C6.31781 1.64363 5.48486 2.32722 4.89883 3.20428C4.31279 4.08134 4 5.11249 4 6.16732C4 7.58181 4.5619 8.93836 5.5621 9.93856C6.56229 10.9387 7.91885 11.5007 9.33333 11.5007ZM9.33333 3.50065C9.86075 3.50065 10.3763 3.65705 10.8149 3.95007C11.2534 4.24308 11.5952 4.65956 11.797 5.14683C11.9988 5.6341 12.0517 6.17028 11.9488 6.68756C11.8459 7.20484 11.5919 7.68 11.219 8.05294C10.846 8.42588 10.3709 8.67985 9.85357 8.78275C9.33629 8.88564 8.80011 8.83283 8.31284 8.631C7.82557 8.42916 7.4091 8.08737 7.11608 7.64884C6.82306 7.21031 6.66667 6.69474 6.66667 6.16732C6.66667 5.46008 6.94762 4.7818 7.44772 4.2817C7.94781 3.7816 8.62609 3.50065 9.33333 3.50065ZM9.33333 14.1673C6.85798 14.1673 4.48401 15.1507 2.73367 16.901C0.98333 18.6513 0 21.0253 0 23.5007C0 23.8543 0.140476 24.1934 0.390525 24.4435C0.640573 24.6935 0.979711 24.834 1.33333 24.834C1.68696 24.834 2.02609 24.6935 2.27614 24.4435C2.52619 24.1934 2.66667 23.8543 2.66667 23.5007C2.66667 21.7325 3.36905 20.0369 4.61929 18.7866C5.86953 17.5364 7.56522 16.834 9.33333 16.834C11.1014 16.834 12.7971 17.5364 14.0474 18.7866C15.2976 20.0369 16 21.7325 16 23.5007C16 23.8543 16.1405 24.1934 16.3905 24.4435C16.6406 24.6935 16.9797 24.834 17.3333 24.834C17.687 24.834 18.0261 24.6935 18.2761 24.4435C18.5262 24.1934 18.6667 23.8543 18.6667 23.5007C18.6667 21.0253 17.6833 18.6513 15.933 16.901C14.1827 15.1507 11.8087 14.1673 9.33333 14.1673Z" fill="#45ABC2"/>
</svg>
