<svg width="75" height="75" viewBox="0 0 75 75" fill="none" xmlns="http://www.w3.org/2000/svg">
<rect width="75" height="75" rx="20" fill="#40AF92" fill-opacity="0.2"/>
<path fill-rule="evenodd" clip-rule="evenodd" d="M24.6221 16.9583C24.6221 16.3385 31.0854 12 37.5032 12C43.9209 12 50.3844 16.3385 50.3844 16.9583C50.3844 19.1683 50.1472 20.4771 49.946 21.1898C49.8139 21.6574 49.3713 21.9167 48.8807 21.9167H26.1257C25.6351 21.9167 25.1924 21.6573 25.0605 21.1896C24.8591 20.4768 24.6221 19.168 24.6221 16.9583ZM35.3564 16.25C34.5659 16.25 33.9251 16.8843 33.9251 17.6667C33.9251 18.4491 34.5659 19.0833 35.3564 19.0833H39.6501C40.4404 19.0833 41.0813 18.4491 41.0813 17.6667C41.0813 16.8843 40.4404 16.25 39.6501 16.25H35.3564ZM26.1074 30.7255C21.341 29.2661 22.5438 26.6608 24.3626 24.75H51.0426C52.4966 26.5883 53.2769 29.0693 48.8809 30.5545C48.9287 30.9745 48.9531 31.4014 48.9531 31.8333C48.9531 38.0926 43.8267 43.1667 37.5032 43.1667C31.1796 43.1667 26.0533 38.0926 26.0533 31.8333C26.0533 31.4599 26.0716 31.0903 26.1074 30.7255ZM37.1131 31.8333C40.8957 31.8333 43.8253 31.6353 46.0733 31.2889C46.0848 31.4688 46.0907 31.6503 46.0907 31.8333C46.0907 36.5277 42.2459 40.3333 37.5032 40.3333C32.7605 40.3333 28.9158 36.5277 28.9158 31.8333C28.9158 31.6834 28.9197 31.5346 28.9274 31.3867C31.0204 31.6725 33.7046 31.8333 37.1131 31.8333ZM49.5507 52.5154C47.0048 48.5962 42.5602 46 37.5032 46C32.4442 46 27.9982 48.598 25.4529 52.5196C24.9882 51.8133 24.2686 51.2677 23.3813 51.0324L20.6163 50.2992C18.7076 49.7928 16.7456 50.9141 16.2341 52.8034L15.1228 56.9086C14.6113 58.798 15.7441 60.74 17.6529 61.2463L20.4178 61.9796C21.3956 62.239 22.3872 62.0712 23.1908 61.592C23.1956 62.3704 23.8345 63 24.6221 63C25.4124 63 26.0533 62.3658 26.0533 61.5833V60.1667C26.0533 59.6269 26.0914 59.0959 26.1651 58.5763L33.6133 60.5516C34.2983 61.9981 35.7824 63 37.5032 63C39.2239 63 40.7082 61.9981 41.3932 60.5516L48.8412 58.5763C48.9149 59.0959 48.9531 59.6269 48.9531 60.1667V61.5833C48.9531 62.3658 49.5939 63 50.3844 63C51.1701 63 51.8082 62.3731 51.8155 61.5969C52.618 62.0732 53.607 62.2394 54.5822 61.9807L57.3471 61.2474C59.2559 60.7411 60.3886 58.7992 59.8772 56.9097L58.7659 52.8045C58.2545 50.9153 56.2924 49.794 54.3837 50.3003L51.6187 51.0336C50.7336 51.2683 50.0154 51.8117 49.5507 52.5154ZM26.9164 55.8421C28.4591 52.1458 31.9204 49.4334 36.072 48.921V54.7418C34.7776 55.1946 33.7681 56.2443 33.381 57.5567L26.9164 55.8421ZM48.0901 55.8421C46.5472 52.1458 43.0859 49.4334 38.9345 48.921V54.7418C40.2287 55.1946 41.2382 56.2443 41.6253 57.5567L48.0901 55.8421ZM37.5032 60.1667C38.2936 60.1667 38.9345 59.5324 38.9345 58.75C38.9345 57.9676 38.2936 57.3333 37.5032 57.3333C36.7128 57.3333 36.072 57.9676 36.072 58.75C36.072 59.5324 36.7128 60.1667 37.5032 60.1667Z" fill="#40AF92"/>
</svg>
