<svg width="81" height="81" viewBox="0 0 81 81" fill="none" xmlns="http://www.w3.org/2000/svg">
<rect x="0.5" y="0.976562" width="80" height="80" rx="10" fill="#45ABC2" fill-opacity="0.2"/>
<path d="M62.2335 51.7225C61.5863 49.794 61.4286 46.8014 61.4286 44.7673C61.4286 42.1452 59.0179 39.9998 56.0714 39.9998C53.125 39.9998 50.7143 42.1452 50.7143 44.7673C50.7143 45.3357 50.8332 45.8901 51.0466 46.406C51.526 47.5649 51.3977 49.2415 50.6543 50.2517C49.8778 51.307 48.3054 52.0195 47.2185 51.288L42.8577 48.3532C41.7411 47.6016 41.0714 46.3438 41.0714 44.9978C41.0714 42.7641 42.8822 40.9533 45.1159 40.9533H45.3571C45.9464 40.9533 46.4286 40.5242 46.4286 39.9998V33.3254C46.4286 32.7613 46.3353 32.2153 46.1621 31.6992C45.5149 29.7707 45.3571 26.7782 45.3571 24.744C45.3571 22.1219 42.9464 19.9766 40 19.9766C37.0536 19.9766 34.6429 22.1219 34.6429 24.744C34.6429 26.7782 34.4851 29.7707 33.8379 31.6992C33.6647 32.2153 33.5714 32.7613 33.5714 33.3254V39.9998C33.5714 40.5242 34.0536 40.9533 34.6429 40.9533H34.8906C37.1207 40.9533 38.9286 42.7612 38.9286 44.9913C38.9286 46.3407 38.2546 47.6008 37.1323 48.3499L32.7426 51.2798C31.6695 51.996 30.1266 51.3114 29.3755 50.2624C28.6424 49.2385 28.5215 47.4993 28.9839 46.328C29.1781 45.8361 29.2857 45.3081 29.2857 44.7673C29.2857 42.1452 26.875 39.9998 23.9286 39.9998C20.9821 39.9998 18.5714 42.1452 18.5714 44.7673C18.5714 46.8014 18.4137 49.794 17.7665 51.7225C17.5933 52.2385 17.5 52.7846 17.5 53.3487V60.0231C17.5 60.5475 17.9821 60.9766 18.5714 60.9766H29.2857C29.875 60.9766 30.3571 60.5475 30.3571 60.0231C30.3571 57.0444 31.845 54.2626 34.3225 52.609L34.6468 52.3925C37.8878 50.2294 42.1122 50.2294 45.3532 52.3925L45.6775 52.609C48.155 54.2626 49.6429 57.0444 49.6429 60.0231C49.6429 60.5475 50.125 60.9766 50.7143 60.9766H61.4286C62.0179 60.9766 62.5 60.5475 62.5 60.0231V53.3487C62.5 52.7846 62.4067 52.2385 62.2335 51.7225ZM23.9286 41.9068C25.6964 41.9068 27.1429 43.194 27.1429 44.7673C27.1429 46.3405 25.6964 47.6277 23.9286 47.6277C22.1607 47.6277 20.7143 46.3405 20.7143 44.7673C20.7143 43.194 22.1607 41.9068 23.9286 41.9068ZM28.2143 54.7839C28.2143 57.1508 26.2955 59.0696 23.9286 59.0696C21.5616 59.0696 19.6429 57.1508 19.6429 54.7839V53.3487C19.6429 51.251 21.5714 49.5347 23.9286 49.5347C26.2857 49.5347 28.2143 51.251 28.2143 53.3487V54.7839ZM40 21.8835C41.7679 21.8835 43.2143 23.1707 43.2143 24.744C43.2143 26.3173 41.7679 27.6045 40 27.6045C38.2321 27.6045 36.7857 26.3173 36.7857 24.744C36.7857 23.1707 38.2321 21.8835 40 21.8835ZM40 39.0463C37.6331 39.0463 35.7143 37.1276 35.7143 34.7606V33.3254C35.7143 31.2277 37.6429 29.5114 40 29.5114C42.3571 29.5114 44.2857 31.2277 44.2857 33.3254V34.7606C44.2857 37.1276 42.3669 39.0463 40 39.0463ZM56.0714 41.9068C57.8393 41.9068 59.2857 43.194 59.2857 44.7673C59.2857 46.3405 57.8393 47.6277 56.0714 47.6277C54.3036 47.6277 52.8571 46.3405 52.8571 44.7673C52.8571 43.194 54.3036 41.9068 56.0714 41.9068ZM60.3571 54.7839C60.3571 57.1508 58.4384 59.0696 56.0714 59.0696C53.7045 59.0696 51.7857 57.1508 51.7857 54.7839V53.3487C51.7857 51.251 53.7143 49.5347 56.0714 49.5347C58.4286 49.5347 60.3571 51.251 60.3571 53.3487V54.7839Z" fill="#45ABC2"/>
</svg>
