<svg width="31" height="31" viewBox="0 0 31 31" fill="none" xmlns="http://www.w3.org/2000/svg">
<path d="M4.03736 20.8433C6.11564 22.9239 8.88327 24.1729 11.8188 24.355C14.7544 24.5371 17.6553 23.6398 19.9749 21.832L27.9565 29.8112C28.2395 30.0846 28.6187 30.2358 29.0122 30.2324C29.4057 30.2289 29.7821 30.0712 30.0604 29.793C30.3387 29.5148 30.4965 29.1385 30.4999 28.745C30.5034 28.3516 30.3521 27.9726 30.0787 27.6897L22.0971 19.7104C23.9857 17.2875 24.8785 14.2356 24.5936 11.1772C24.3087 8.11882 22.8676 5.28424 20.564 3.25158C18.2604 1.21892 15.268 0.141291 12.197 0.238466C9.12599 0.335641 6.20773 1.6003 4.03736 3.77453C2.91592 4.89507 2.0263 6.22553 1.41935 7.68988C0.8124 9.15424 0.5 10.7238 0.5 12.3089C0.5 13.894 0.8124 15.4635 1.41935 16.9279C2.0263 18.3923 2.91592 19.7227 4.03736 20.8433ZM6.15957 5.89912C7.64327 4.41588 9.59551 3.49281 11.6837 3.28719C13.7718 3.08157 15.8667 3.60611 17.6113 4.77144C19.356 5.93677 20.6425 7.6708 21.2517 9.67809C21.8609 11.6854 21.7551 13.8417 20.9522 15.7797C20.1494 17.7178 18.6993 19.3176 16.8488 20.3065C14.9984 21.2955 12.8623 21.6125 10.8043 21.2035C8.74631 20.7945 6.89385 19.6848 5.56252 18.0635C4.23119 16.4422 3.50337 14.4095 3.50305 12.3119C3.49894 11.1199 3.73164 9.939 4.18766 8.83765C4.64369 7.7363 5.31395 6.73645 6.15957 5.89612V5.89912Z" fill="#40AF92"/>
</svg>
