<svg width="31" height="31" viewBox="0 0 31 31" fill="none" xmlns="http://www.w3.org/2000/svg">
<path d="M0.775256 20.1452L3.28016 22.6497C3.45596 22.8255 3.69436 22.9242 3.94295 22.9242C4.19153 22.9242 4.42993 22.8255 4.60573 22.6497C4.86623 22.3878 5.1761 22.1801 5.51741 22.0387C5.85871 21.8973 6.22467 21.8251 6.59409 21.8261C8.14513 21.8261 9.40648 23.0875 9.40648 24.6386C9.40739 25.0082 9.33503 25.3742 9.19359 25.7156C9.05215 26.057 8.84443 26.3669 8.58245 26.6276C8.40671 26.8034 8.30798 27.0418 8.30798 27.2904C8.30798 27.539 8.40671 27.7774 8.58245 27.9532L11.0874 30.4577C11.2706 30.641 11.5102 30.7324 11.7501 30.7324C11.9901 30.7324 12.2301 30.641 12.4129 30.4577L30.2247 12.6451C30.312 12.5582 30.3812 12.4549 30.4285 12.3411C30.4757 12.2274 30.5 12.1055 30.5 11.9823C30.5 11.8591 30.4757 11.7372 30.4285 11.6234C30.3812 11.5097 30.312 11.4064 30.2247 11.3195L27.7198 8.81493C27.544 8.63918 27.3056 8.54044 27.0571 8.54044C26.8085 8.54044 26.5701 8.63918 26.3943 8.81493C26.1338 9.07689 25.8239 9.28456 25.4826 9.42593C25.1413 9.56731 24.7753 9.63957 24.4059 9.63853C22.8549 9.63853 21.5935 8.37712 21.5935 6.82601C21.5935 6.0746 21.8865 5.36866 22.4175 4.83709C22.5933 4.66128 22.692 4.42287 22.692 4.17428C22.692 3.92568 22.5933 3.68727 22.4175 3.51146L19.9126 1.00691C19.7368 0.831156 19.4984 0.732422 19.2499 0.732422C19.0013 0.732422 18.7629 0.831156 18.5871 1.00691L0.775256 18.8195C0.68801 18.9065 0.618785 19.0098 0.57155 19.1235C0.524315 19.2372 0.5 19.3592 0.5 19.4823C0.5 19.6055 0.524315 19.7275 0.57155 19.8412C0.618785 19.9549 0.68801 20.0582 0.775256 20.1452ZM12.6876 9.55791L13.431 10.3013C13.6138 10.4846 13.8538 10.576 14.0938 10.576C14.3338 10.576 14.5738 10.4846 14.7566 10.3013C14.9323 10.1255 15.0311 9.88712 15.0311 9.63853C15.0311 9.38994 14.9323 9.15152 14.7566 8.97571L14.0132 8.23227L19.2499 2.99536L20.4948 4.2399C19.9864 5.00637 19.7163 5.90623 19.7186 6.82601C19.7186 9.41072 21.8213 11.5135 24.4059 11.5135C25.3255 11.5161 26.2252 11.2461 26.9914 10.7378L28.2359 11.9823L22.9997 17.2192L22.2563 16.4758C22.1698 16.3862 22.0664 16.3148 21.952 16.2657C21.8376 16.2165 21.7146 16.1907 21.5901 16.1896C21.4657 16.1885 21.3422 16.2122 21.227 16.2594C21.1118 16.3065 21.0071 16.3761 20.9191 16.4641C20.8311 16.5522 20.7615 16.6568 20.7143 16.7721C20.6672 16.8873 20.6435 17.0107 20.6446 17.1352C20.6456 17.2597 20.6715 17.3827 20.7206 17.4971C20.7698 17.6115 20.8412 17.7149 20.9307 17.8014L21.6741 18.5448L11.7501 28.4693L10.5052 27.2247C11.0136 26.4583 11.2837 25.5584 11.2814 24.6386C11.2814 22.0539 9.17868 19.9511 6.59409 19.9511C5.67454 19.9485 4.77484 20.2185 4.00857 20.7269L2.76409 19.4823L12.6876 9.55791Z" fill="#40AF92"/>
<path d="M16.2432 13.1138C16.426 13.2971 16.666 13.3885 16.906 13.3885C17.146 13.3885 17.386 13.2971 17.5688 13.1138C17.7445 12.938 17.8432 12.6996 17.8432 12.451C17.8432 12.2024 17.7445 11.964 17.5688 11.7882L16.6313 10.8507C16.5448 10.7611 16.4414 10.6897 16.327 10.6406C16.2126 10.5914 16.0896 10.5656 15.9651 10.5645C15.8407 10.5634 15.7172 10.5871 15.602 10.6343C15.4868 10.6814 15.3821 10.751 15.2941 10.839C15.2061 10.9271 15.1365 11.0317 15.0893 11.147C15.0422 11.2622 15.0185 11.3856 15.0196 11.5101C15.0206 11.6346 15.0465 11.7576 15.0956 11.872C15.1448 11.9864 15.2162 12.0898 15.3057 12.1763L16.2432 13.1138ZM18.1181 14.9888L19.0556 15.9263C19.2384 16.1096 19.4784 16.201 19.7184 16.201C19.9584 16.201 20.1984 16.1096 20.3812 15.9263C20.5569 15.7505 20.6556 15.5121 20.6556 15.2635C20.6556 15.0149 20.5569 14.7765 20.3812 14.6007L19.4437 13.6632C19.3572 13.5736 19.2538 13.5022 19.1394 13.4531C19.025 13.404 18.902 13.3781 18.7775 13.377C18.6531 13.3759 18.5296 13.3996 18.4144 13.4468C18.2992 13.4939 18.1945 13.5635 18.1065 13.6516C18.0185 13.7396 17.9489 13.8443 17.9017 13.9595C17.8546 14.0747 17.8309 14.1981 17.832 14.3226C17.833 14.4471 17.8589 14.5701 17.908 14.6845C17.9572 14.7989 18.0286 14.9023 18.1181 14.9888Z" fill="#40AF92"/>
</svg>
